<mxfile host="65bd71144e">
    <diagram id="bkSwJD8wrCWUdWug7b2Q" name="Page-1">
        <mxGraphModel dx="532" dy="439" grid="1" gridSize="10" guides="1" tooltips="1" connect="1" arrows="1" fold="1" page="1" pageScale="1" pageWidth="827" pageHeight="1169" math="0" shadow="0">
            <root>
                <mxCell id="0"/>
                <mxCell id="1" parent="0"/>
                <mxCell id="61" value="" style="pointerEvents=1;verticalLabelPosition=bottom;shadow=0;dashed=0;align=center;html=1;verticalAlign=top;shape=mxgraph.electrical.resistors.resistor_2;" parent="1" vertex="1">
                    <mxGeometry x="411" y="400" width="100" height="20" as="geometry"/>
                </mxCell>
                <mxCell id="62" value="" style="verticalLabelPosition=bottom;shadow=0;dashed=0;align=center;html=1;verticalAlign=top;shape=mxgraph.electrical.opto_electronics.led_2;pointerEvents=1;rotation=-180;fillColor=#a20025;fontColor=#ffffff;strokeColor=#6F0000;" parent="1" vertex="1">
                    <mxGeometry x="311" y="380" width="100" height="70" as="geometry"/>
                </mxCell>
                <mxCell id="63" style="edgeStyle=none;rounded=0;html=1;exitX=0.47;exitY=0.09;exitDx=0;exitDy=0;exitPerimeter=0;entryX=1;entryY=0.5;entryDx=0;entryDy=0;entryPerimeter=0;endArrow=none;endFill=0;" parent="1" target="71" edge="1">
                    <mxGeometry relative="1" as="geometry">
                        <Array as="points">
                            <mxPoint x="415" y="560"/>
                            <mxPoint x="531" y="560"/>
                            <mxPoint x="531" y="480"/>
                        </Array>
                        <mxPoint x="414.95000000000005" y="588.81" as="sourcePoint"/>
                    </mxGeometry>
                </mxCell>
                <mxCell id="64" style="edgeStyle=none;rounded=0;html=1;exitX=0.5;exitY=0.09;exitDx=0;exitDy=0;exitPerimeter=0;entryX=1;entryY=0.5;entryDx=0;entryDy=0;entryPerimeter=0;endArrow=none;endFill=0;" parent="1" target="61" edge="1">
                    <mxGeometry relative="1" as="geometry">
                        <Array as="points">
                            <mxPoint x="424" y="550"/>
                            <mxPoint x="541" y="550"/>
                            <mxPoint x="541" y="410"/>
                        </Array>
                        <mxPoint x="423.5" y="588.81" as="sourcePoint"/>
                    </mxGeometry>
                </mxCell>
                <mxCell id="65" style="edgeStyle=none;rounded=0;html=1;exitX=0.53;exitY=0.09;exitDx=0;exitDy=0;exitPerimeter=0;entryX=1;entryY=0.5;entryDx=0;entryDy=0;entryPerimeter=0;endArrow=none;endFill=0;" parent="1" target="74" edge="1">
                    <mxGeometry relative="1" as="geometry">
                        <Array as="points">
                            <mxPoint x="432" y="540"/>
                            <mxPoint x="551" y="540"/>
                            <mxPoint x="551" y="340"/>
                        </Array>
                        <mxPoint x="432.04999999999995" y="588.81" as="sourcePoint"/>
                    </mxGeometry>
                </mxCell>
                <mxCell id="66" style="edgeStyle=none;rounded=0;html=1;exitX=0.44;exitY=0.09;exitDx=0;exitDy=0;exitPerimeter=0;entryX=1;entryY=0.57;entryDx=0;entryDy=0;entryPerimeter=0;endArrow=none;endFill=0;" parent="1" target="72" edge="1">
                    <mxGeometry relative="1" as="geometry">
                        <Array as="points">
                            <mxPoint x="406" y="540"/>
                            <mxPoint x="261" y="540"/>
                            <mxPoint x="261" y="480"/>
                        </Array>
                        <mxPoint x="406.4" y="588.81" as="sourcePoint"/>
                    </mxGeometry>
                </mxCell>
                <mxCell id="67" style="edgeStyle=none;rounded=0;html=1;exitX=0.44;exitY=0.09;exitDx=0;exitDy=0;exitPerimeter=0;entryX=1;entryY=0.57;entryDx=0;entryDy=0;entryPerimeter=0;endArrow=none;endFill=0;" parent="1" target="62" edge="1">
                    <mxGeometry relative="1" as="geometry">
                        <Array as="points">
                            <mxPoint x="406" y="540"/>
                            <mxPoint x="261" y="540"/>
                            <mxPoint x="261" y="410"/>
                        </Array>
                        <mxPoint x="406.4" y="588.81" as="sourcePoint"/>
                    </mxGeometry>
                </mxCell>
                <mxCell id="68" style="edgeStyle=none;rounded=0;html=1;exitX=0.44;exitY=0.09;exitDx=0;exitDy=0;exitPerimeter=0;entryX=1;entryY=0.57;entryDx=0;entryDy=0;entryPerimeter=0;endArrow=none;endFill=0;" parent="1" target="75" edge="1">
                    <mxGeometry relative="1" as="geometry">
                        <Array as="points">
                            <mxPoint x="406" y="540"/>
                            <mxPoint x="261" y="540"/>
                            <mxPoint x="261" y="340"/>
                        </Array>
                        <mxPoint x="406.4" y="588.81" as="sourcePoint"/>
                    </mxGeometry>
                </mxCell>
                <mxCell id="70" value="220&lt;span style=&quot;font-family: arial, sans-serif; font-size: 14px; text-align: left;&quot;&gt;Ω&lt;/span&gt;" style="text;html=1;align=center;verticalAlign=middle;resizable=0;points=[];autosize=1;strokeColor=none;fillColor=none;" parent="1" vertex="1">
                    <mxGeometry x="436" y="370" width="50" height="30" as="geometry"/>
                </mxCell>
                <mxCell id="71" value="" style="pointerEvents=1;verticalLabelPosition=bottom;shadow=0;dashed=0;align=center;html=1;verticalAlign=top;shape=mxgraph.electrical.resistors.resistor_2;" parent="1" vertex="1">
                    <mxGeometry x="411" y="470" width="100" height="20" as="geometry"/>
                </mxCell>
                <mxCell id="72" value="" style="verticalLabelPosition=bottom;shadow=0;dashed=0;align=center;html=1;verticalAlign=top;shape=mxgraph.electrical.opto_electronics.led_2;pointerEvents=1;rotation=-180;fillColor=#0050ef;fontColor=#ffffff;strokeColor=#001DBC;" parent="1" vertex="1">
                    <mxGeometry x="311" y="450" width="100" height="70" as="geometry"/>
                </mxCell>
                <mxCell id="73" value="&lt;div style=&quot;text-align: left;&quot;&gt;&lt;span style=&quot;text-align: center;&quot;&gt;220&lt;/span&gt;&lt;span style=&quot;border-color: var(--border-color); font-family: arial, sans-serif; font-size: 14px;&quot;&gt;Ω&lt;/span&gt;&lt;br&gt;&lt;/div&gt;" style="text;html=1;align=center;verticalAlign=middle;resizable=0;points=[];autosize=1;strokeColor=none;fillColor=none;" parent="1" vertex="1">
                    <mxGeometry x="436" y="440" width="50" height="30" as="geometry"/>
                </mxCell>
                <mxCell id="74" value="" style="pointerEvents=1;verticalLabelPosition=bottom;shadow=0;dashed=0;align=center;html=1;verticalAlign=top;shape=mxgraph.electrical.resistors.resistor_2;" parent="1" vertex="1">
                    <mxGeometry x="411" y="330" width="100" height="20" as="geometry"/>
                </mxCell>
                <mxCell id="75" value="" style="verticalLabelPosition=bottom;shadow=0;dashed=0;align=center;html=1;verticalAlign=top;shape=mxgraph.electrical.opto_electronics.led_2;pointerEvents=1;rotation=-180;fillColor=#60a917;fontColor=#ffffff;strokeColor=#2D7600;" parent="1" vertex="1">
                    <mxGeometry x="311" y="310" width="100" height="70" as="geometry"/>
                </mxCell>
                <mxCell id="76" value="220&lt;span style=&quot;color: rgb(189, 193, 198); font-family: arial, sans-serif; font-size: 14px; text-align: left;&quot;&gt;Ω&lt;/span&gt;" style="text;html=1;align=center;verticalAlign=middle;resizable=0;points=[];autosize=1;strokeColor=none;fillColor=none;" parent="1" vertex="1">
                    <mxGeometry x="436" y="300" width="50" height="30" as="geometry"/>
                </mxCell>
                <mxCell id="77" value="" style="shape=image;verticalLabelPosition=bottom;labelBackgroundColor=default;verticalAlign=top;aspect=fixed;imageAspect=0;image=data:image/png,iVBORw0KGgoAAAANSUhEUgAAAmQAAAGYCAYAAADsqf5DAAEAAElEQVR4Xux9B2Cc1ZX1mT7qXXKTu9x7wQ03DKYTCCGkAakkpGzIJrvZkE3+7Cab3kN6IYQQQuimGdvYBvfee7dlq/c2ff5z38zYsixZI1m2JbgvGSTNfN/73nfeSHN877nnAjoUAUVAEVAEFAFFQBFQBBQBRUARUAQUAUVAEVAEFAFFQBFQBBQBRUARUAQUAUVAEVAEFAFFQBFQBBQBRUARUAQUAUVAEVAEFAFFQBFQBBQBRUARUAQUAUVAEVAEFAFFQBFQBBQBRUARUAQUAUVAEVAEFAFFQBFQBBQBRUARUAQUAUVAEVAEFAFFQBFQBBQBRUARUAQUAUVAEVAEFAFFQBFQBBQBRUARUAQUAUVAEVAEFAFFQBFQBBQBRUARUAQUAUVAEVAEFAFFQBFQBBQBRUARUAQUAUVAEVAEFAFFQBFQBBQBRUARUAQUAUVAEVAEFAFFQBFQBBQBRUARUAQUAUVAEVAEFAFFQBFQBBQBRUARUAQUAUVAEVAEFAFFQBFQBBQBRUARUAQUAUVAEVAEFAFFQBFQBBQBRUARUAQUAUVAEVAEFAFFQBFQBBQBRUARUAQUAUVAEVAEFAFFQBFQBBQBRUARUAQUAUVAEVAEFAFFQBFQBBQBRUARUAQUAUVAEVAEFAFFQBFQBBQBRUARUAQUAUVAEVAEFAFFQBFQBBQBRUARUAQUAUVAEVAEFAFFQBFQBBQBRUARUAQUAUVAEVAEFAFFQBFQBBQBRUARUAQUAUVAEVAEFAFFQBFQBBQBRUARUAQUAUVAEVAEFAFFQBFQBBQBRUARUAQUAUVAEVAEFAFFQBFQBBQBRUARUAQUAUVAEVAEFAFFQBFQBBQBRUARUAQUAUVAEVAEFAFFQBFQBBQBRUARUAQUAUVAEVAEFAFFQBFQBBQBRUARUAQUAUVAEVAEeioClp66cF23IqAI9GwESkpKer/y8sv/4/P5+lssFhfvxs6Hgw8rH7G/TWF+Lw8Zseea/90697rFEkbYHBo7vuV5zQEL8YegPHhtfyAQaMrIzDx0++23/7+UlJSGno2srl4RUAR6IgLyB1CHIqAIKAJXBIFwOOzkhRL9fn/fn//8588OKygYMXjIEASDwo0uHFarFQ6H4ywTa3ORFgtCoRD8Pt9ZNnaxG7LZbHDYo3/+eK5cZ8OGDXjmX/+axjXeynM9JGq+KwKKXkQRUAQUASKghEzfBoqAInBZEaipqXGsevvtb4wZO7aSFxKyM7S6urq3zWp1XTt7tiFcJEEXrIGECC6Xy5Cl9oaQMUbaDClrbwgZczqdkPljQ66RmZGBvzz22LUkhwd5zFqu6Ud79uxxnTlzJnnhwoWvtDevvq4IKAKKwKUgoITsUtDTcxUBReCiCDAtafv1o4/+MyEhYTbJTc4XH37YkKwYGRICJdGx1giZkCZ5PR6S5fV64zpOiJc8Wkbk5DlzHRJDri2PN3VXRUXFfEbMqnNycnY8+qtf9f/8F77wG91uRUARUAQuFwLt/9Pzcl1Z51UEFIF3PAIej8fBR9qHP/KR8gxGoJYsWYLTp0/jb48/juzsbBOpaouMSSQrnhFvZExIoEl/NouMxeaXNSQkJcHtdpu1lZaU4MUXX0yfMWNGxnvvvvtPJJbp8axFj1EEFAFFoLMIqKi/s8jpeYqAIhAXAv/4xz++TxL08MyZM12P//WvJgo1ddo0TJ061USrWhIyIU32mL6rnStQiwYK8ttdh5AwIX8XS3/KMRJpe2vlSuzYsQPp6el44KMfLXry73/fMGr06K/Pmzdvb7sX0gMUAUVAEegkAkrIOgmcnqYIKALxIVBVVZX1m9/8ZvdHH3igl51kS1KDiYxGBUmkWpKxmL4rnpkl7SjRsXiGkLF4Im5CyoQM1tbWwsVoWU11NR5//PHXHnnkEdG+6VAEFAFF4LIhoBqyywatTqwIKAKCQGJiYnWC291IbwkkJScbQhZgZKvlMJWPJGzxDCFjEh2LZ8ic8ZAxmUsIoszLNcPK9Uj0LSU5Wf/hGg/QeowioAhcEgJKyC4JPj1ZEVAE2kOAJOesVlUIT/OoWEzPJanEWOVja5qy5tcw9hYkTe0dJ+cIEWsr/dmWlixGzGLz86v+nWxvk/V1RUARuGQEVNR/yRDqBIqAItAZBJpHrWJieyFBF9OPyeuSpoyXjAnJazliackYOYx9lefjjaR15n71HEVAEVAELoaA/stP3x+KgCJwJRA4z2hMImI7tm/HqlWrTGrQGq18lFTkyJEjceNNN11QDdkRMhYzlG15Y/J8Y2MjFi1ahDOs9oyJ/GVuWcett9yCgmHDWtpixFfueSVQ1GsoAorAOxYBJWTv2K3VG1MEug0C4tZ6nmOrEKDly5dj27Zt50XEQiRkx44dwzWswqT/13nESNKU8XiSxSoqW0tJSgTs+PHjeOH55w0Za36MRN7SUlMNIWsxlJB1m7eSLkQReOcioCnLd+7e6p0pAt0CAXp7SV+kC8ohY1EsSVeefUSrIVumJIWMtdVeqflNXoyMxY4T0hfTrDW/dlueaDxP/052i3eSLkIReGcjoH9o3tn7q3enCHQXBM4jZKITM9GpVlomtSRjUukYj9eY3KgQrPZaLbUsLGgOUDzatO4CqK5DEVAE3lkIKCF7Z+2n3o0i0F0ROKshi3mNCXlqmYIMs4JSXo+J67va3kIIl/iLtdY/U64lTv2xNGYzr4sLKwO6K8q6LkVAEeixCCgh67FbpwtXBHoGAk1NTYlcqTxM9CpWUXnXe9+LXr17nyVlQpac7HN51113ISsry1hbxOs1JhG3eNz9hXQNHToUd7/vfeeBJ8+PHTvWFBM0J4kSmeO6zNp1KAKKgCJwORFQUf/lRFfnVgSuEAKHTx3L/NebLz28/ei++R6fN4tRHvndjv2DS6JTIqqXr7FHTGgvP4vGK/a6rDh2jJwv0SF5yHwSNGo+h/QskoekI5v4aIx+lbnkWAcPTr7n/306Z0AwbYTT7jjbuzJGjCZMmIA33njjbMPv/P79MX3GDKMX64i9RbyGskL65NipU6bgtVdegYetkiQiJtebNHkyevXqZdonyRAySNk/NuzbPvaO//roZh5Xwac90fuVQwSTJD5Sol/F1VYwk3uPBdhaYt682jR2XPOv5trNzm/5mtlL3kfQ7XTVThg88q33L3jPD4bmDyqPnahfFQFFoGcioISsZ+6brloROIvA29vWzVzwlQ8+fSLY0A9s4E12cwXQiXGzOC4VDOMjSSPhomBfyE9MpyUkqGUlpNhfyPMSpYpHz9WWvcXFViXztlYgIM/HomMSGZNjZD1F/gasqCydzMXGcbMxLnWey0ec53XwMGL0r71rp/7+9X++n++Be+ZMnLGxgzPo4YqAItCNEFBC1o02Q5eiCHQGgc/96pt/PJFo7efMGtSqSL4zc7Y8R7T3gTDJVIikxPASIRwiyud/rTRz5aM1umJoSTBkPL4srRDFlqQr1roonvRjPBWVbd17a8L+5kTRRMei67XZ7HAkp1xAHmNzCzZ+wYX4tMTGSlxsbWDTFfuCtHScqCjvz/fA7znfxC6ZUydRBBSBq4KAErKrArteVBHoGgReXPnqrXf+9D9HYchQ+PznWX1dcAEJ8LRFnNokLnzBH7TCZQthck4dpubWoV+KFw6SDC+fP1KTgK2lydhbmWRIiYPHXUDMWqmklOsZx3ymDyUaJd/HW0kZOzfWaqmjSDYX9tc3NJxNlyYkJJgIWau6tVarQYWIWZHoCGJybj3GZzegf4rHYNMYsOJwdSK2lyVhf1UEGyex6cgIRUmw4b5tDr6YnoNdRw5P4HvhPXfOu/WljlxDj1UEFIHug4ASsu6zF7oSRaDDCBSWl4we0yeEof1rEWIkqvmw29g3kk8IlxCSVOqxY3eNG3U+K+xxZN8CJBE2Zj/vHFKGL4w/jam96pDiZkNvCyc00SB+5THVTU6sLkrFb3b0xZKTmWYJNnmtnSHk57rrrkNyUlKk4XhUcN9a9WXLqeKxt2jr8pKKzMvLw8c/8QmcOHHCEDJpJj516lSwACGuVKlg4yC+Hx5Wgs+MPYOJJKpJLsrpmmNDwlrV5MDK02n45fZ8vMWvgou1HewFOX/QguyEACZmNSGFRE7glhHk8y2HjZt0qCkEeS/wNSVk7b3x9HVFoJsioISsm26MLksRiAcBX8ia8tnhJXhoITX11KLHAjkWkoWDJxOxdl82PH67IQENAQtmuTxY7rJiW70bF7Ofl4hOr0Qffjz7CD4wvJQpR5I9IQOM/LQc6S4/bhtSjhv7V+F3O/vgG+sHkvSx6pGRoosNIWG9WWV59z33IMgomU+c+EmW2ouUCRm71J6TEiWbNn06ZsycGSGtXEsDo2XxmM/6iE2/JB9+Nucw3jes9CwxbQ2bDBLYu4aV4eaBVfj51n74340DwD1rk7CaCguyr48WVOGLBeU4fiQFxRXJcDsDmDOmDIP7kjA2I2UW2UR7GL8J18q8yfG8Z/QYRUAR6J4IKCHrnvuiq1IE4kIgPyfn1E9eza8/WVOa/OUFDmSnkDAxCrP7SDKeWD0b4yZfj5w0KQIU0hFEAiNCC08ugS2tDhurE+BoJZIl0Z/eJBzP3rIHM/pVkSHwU78VInZ2gRK+IdlzWEP4wuRT6MNzP7V8GGpJyqztRMqElHkYlYpVNrZ300LG4tGXtTePvN48NSkVnfGQMcGmf7IXzxGbKf1qIriIfqytEcXGbQviv6YfRw5J7hdWFpgUZmuRMomMPTiiEj+fcAZ/fWMIat23YtS4EaiorMYf3lyGD0xfhwkj6rl4Xpd/vfec8uMnK6w4Wl1w8vMTc3bHc996jCKgCHRPBJSQdc990VUpAnEhcOfshY9NHz2l6C+vvfjsQ09/3/n4R4JIdAHLdgzEpGk3o2BIXxQWFsLj8WDw4MHo0ycPfm8jbgm+gP2semxk+rJ58aBEaEQv9ut5hzAjn2TM3zyORneMsLhcxJ6LumlYom4PUfJx94gSlDQ68cW3h8ak/23eixAyIUPxDImKdRUZa369eNsysVgUKc4g/rDgAKb0re44NiRbnxh3BhVMY/7X2iEkZOenmAOcPz/Zj39nZOzPi4cgmPk+3DBrKtO5QfTrl4vc3Ez8Y5mNmK7BRJKyvaeC+OyLvfD5j/zwL3PGTfhar8wshut0KAKKQE9F4ErUx/dUbHTdikC3R8Bus1v75eR+6JsPPNiQ3u9evLGXeUtGXwK0xsrNycThw4exevVqVFVVoaKiglEhH1Ky+mCoy4IxGU2mcvI8ckLd0wMjS3BnAT/bm5OxMOe15VJA/hWgN2VK+euAXs8CqZ+izQYjcGFqy2KDczw49jRuHVhBXVjbf2JiFZXx2luIiL+rR0faMgWZavzU6CLcOJh2ZIFmRDVMQmnrBWQQmz6vRLH5F9nb/YxWuqMklis3+UgLHp5UiHl9q+BrgU2I+zabxQFbtufAm3oXZs2czP07ZPZt//79SEl2Y+6Cu/Hs+kmorbXjz+uCuP+ubxTfM/e63+RlZDJcp0MRUAR6MgJKyHry7unaFQFgFEG4lo+MWeOm42h5RLdlYapQ/ldWVobhw4djBs1WN23ahOrqatpPsOKP6cV+if7zWklKVZ9onr4w7rTMcA5bIRwJs0jEXgOyvkPP/etpFTuOlqi3ADm/ihAz5/BzpIzz2B0hPDyxEG67+Im1vk0SmWrZOqm1I2ONwLt6szvSlknqJfKSvPgsieZ5KUrBxj0zgk0msUmYH8XmNiD3DzzpaYLRuxkpI/asynx4QqHR2J0HDSFPpD/vqar+mDJ5HMpKS7FlyxZI9Wd5eTk2b96Mfn1zkdF7Mg6ecuFMfSpmjZm4nbjIeyCSl9ahCCgCPRYBJWQ9dut04YqAQUBkB+bD+PCZE8iINvmJuYKJ87xEV1566SXU19cjOTmZWrIwBeAWFDY6zktXSjRrXr9qjMimRumscJwpSvsAkos/k2iMaB1yISS5f2KUSCoso2k4nj+jVy2tIOppQ3ahxireNKHYYcRaLXXlfnckVSrXDTE6JkULgxhVPEvIJH3rJBfKe5xfh7W+vMTrIthJFLEZNtflV2NUJosIWmBT6WPkjWRa1hdLz0p0U1LO8rOQW/OazULy3IDT5aU3cWIa0MUm70qUdC5FQBG4kggoIbuSaOu1FIGuR+Akpwy+sWkj1m34K24cxbSeGJEGaxkdqzS6sfnz52PEiBG4iX0aExISUVtxGkfYAGhvNSstm4nuJao2kyTKyqq9s0NIR9pnScoGXnzlrsmkhfc1i5JZ6MwfxPTetREz2WajI2nCS7G3aGvBkiKNV7cmcxjbEGIjBFOwjQx5UjzA/o3Y9Ls4Nglz2UDq7vOwSWYkcjKtMiRNGRvkWNhem4DElEJs27wFmZlZkNZSa9asMSRs6tQpOH7iDOrLNmJ4fhPeNy6AHzz+fRw6fXoG54j0e9KhCCgCPRYBFfX32K3ThSsCwJqdm2780d9/kmlp3I7v3lyPvpkisA9j4fgTeGLtG6xenI/MjDQkJqUzQubBvt17cerMaryV4ka1lw70UUImNENSaMMz2I7yrNac31jTmUe7MT6oE5nCrPlNhKxIypNzF6QxoiSpuSiPETIWb8PwrrC3aLnwGBmLR7cWO1eW7mTqdWAqWexZriqEjBHBhAXxYZPEFGbtX84dS2wGyXzNuKqQ4+N1Lmym99i0mpexdpUNs2bPMs3Q7ewDevJUEda99QwemLedxDqI60a5cbJ6LT737ffclJkz7uDKbeveP2/ijDXxLUiPUgQUge6GgBKy7rYjuh5FoAMIbDywZ9aE5NfwrftJnKz8dZZSQI6xI+vwcPJyrNqzG+VnkiB2DVX8/K+wNmF5kgPb6y60vJBqy3SX9BmPjjAJmT2PqciM+FbkGEiCQUIouqroSGSULFLFaTEeY/GSMUnPXa6Kynh0ay1vWMhSol2wiTIogw0xt0hv8TiGrc+5c6OHt2Z7IW2WnjqZBk/fGuScXoy61+sxbswolJVXovDwCjy0YBMGDm6I2pCE8dG5Dtw7uQjfeflAn22H5kzn1ErI4tgOPUQR6I4IKCHrjruia1IE4kTAbbeWP3EwG3ufzCThOV89b9okWeoQTAugye1AediO/bVMWVKnZG/FH0zObhR/q9iwiMcW03RhRrniGSHaZAhRaTaECMoI83kxfk1wSgTv4kOImETHunrE6zXW2nVDrEYVQ9dz0T/eV5gMl/WscY0wdXktRmuETNCSfXimMB0pLLzIKFyHjKMb0cT9yujbiB1H8hA4eH4KmIW2OFZVjE/ZrFppGddm6EGKQPdEQAlZ99wXXZUiEBcC/FCv21boxC5qj1otZ+Sne9hhRTCXan9GxiRF2RoZk494MSs9UkubhrOf9yQgQdpfeLZQA0Vhf3ujaWWEpBhfssgoZApOnOUt8pemWbmleIqJYP8CksI2RmJvIVGsjqQV21uapEpjxq9yXdPsvI2T5LrNTWIj2FhRQv+wC7DxbmNKd2F7lyfTJTYtdPfFLKo42xOp2QxyPdmnJpLARtYCnEYkahlo4B7XRas2ml9RmqCX1ogJbzPvkfaXpEcoAopA90JACVn32g9djSLQUQTCYJsktwjx2/KXCPMDvayOZvrsGZlM19g2jhPx/ZYS8RRrvgT+ILqwRBbzWVshA7FDg2XUSLHaMEayyCpCdLHfXMr5WrRQEsJTUlJihPXNSVmsolIIWU5OTquEraPgyPHN7S3kGvJzUVFRq4RP1iY2E5mZkZ6cMuSWguxEINh8eFRx7NlIarbmUerI5vGgi3ikBQqB+id4TNS7jGTLS/3e9jJ2OrpIJwMhZs1fdsoP3OsLBvmYL4KxFml15g2i5ygC3QQBJWTdZCN0GYrAZUNAPtlpdWEvbaARLL9NaZ2UWfmhvoKpstI6N3LZHsjYOwjR8FCWVPkNepD9X8TotOUIMVNW/u9kBXv4Ouc2LIa9NCuTsJ5Nx0UXFRuSity9ezd+99vfXkDIYsdIyvKjH/sY5s2b125fy/Ywk0hbc92aROYW0QLk1VdfbZXwyfFCxv7ti19E//79z04vvUHfOJGJWnYgSGXvzkhzdWLT9Cax+RY9yPhojZQFS0iGP88Q2/Fz2BCPvcRmC8mqXXqE6lAEFAFFQP9Fpe8BReBdgoARJwkpq4et5vzqvrNEiEThGFOfTx6gI3/zqJYQDYmSFdG6oYEGqJLGDFETFShi5IeO9EW38yvNYWNkTCbk+b/b1QeVHjYCb5YblAhVBU1OxRNNDF/l55aPJva23LVz5yVvTMxrrGXqc+/evSZK1tq1ZU3i+yWGuvJ9bAipPFCViH8ezKGYvzmJYtSr+udAyb1MSy6NYkPdXeAMMfknsXkPn198PjbMe/56Z180sBOChrQueZt1AkXgHYOARsjeMVupN/IuRcAmJq6NfhGZX4iApNsi4n6xnqB2iofYylmlx4ODadLW5/xzhHj8aGs+Fg6owmj6ZJ1tKm6iQcsZLXubE/TlpCQmQjqCTOEZo65mKTsSltUnM/D4vl6MjpG8tAgCCRESsiSPGClqvgqj8WpGhlrelbzelgZNjhUCFrPXaE2H1ta5cmysArOlvs0EGfn4/ub+uMEYxNIexLQ+kkgZtWANJF2NyyKeZFZWpQo2IaZxDTbRqKEsjpWarx7OxVMHc00z9osNKYiQYoLW9vW88wSrSPGEhtvepX8E9LbfGQgoIXtn7KPexbsUgWDY4rxlFH2rCqgRk3xksyEpSD+1T/tOJqKsxg5Xsg+FDI4dq2QVY7kQCpKyDArFmw2xdyhqcOEzy4fhudt2I5ftgiLEQ7iHkC5eI0hNVIB+tFKFKY0CmqvjScaOVSbiMyuGoYY6qZYpOYlMDRg4EEOGDDGRKHGgFy1ZvG78MQ3YPka5TBuoFoUBgkB2djby8/PjastkWAyJoazL5XIZ/Vg+U5UDBgw4T9hvuFQ0gvjp5cPxj5v3IDuRGrKW2AROEaITUb1YS2yC2Fmcii+8NRQe6utkvtaGtLASGf/ozCbMzatHXkLA8DrpvhDk9aSNU/PhYNHGRnstt9NyEZHfu/QXRG9bEehBCCgh60GbpUtVBFoi4PUHE+YPqMZXbpBXpCoy+iFPzZOv0Ya/LBmCpLyZyBqdi8KT+5GfuRnbmhrw+NYk2CpJyqSiMPP8z3EndU2rz6Th/a+Oxm+vO4iROdFWSqYRuTykvU+z5trm0rwuH+tPp+OhFQXYU5EEmacl5RDiI9qsR77+dVRHG56fOHECixcvRmNjY7tC/pgG7NlnmSKV1bQkZJKWjWrQpH9ne75nQsaysrJw/fXXo1fv3qaYQH6WCF1rfmVyT0sZ/btv8Uj8+rpDGMz2RyaKGAc2K09k4dMkusdqEgw2bZExF/fu4RHlmBoMoL4uGY5Gt4luuh1NmDmyAjm5QpKjLFis5/xB/LiwBt5AqBWBn/7OKAKKQE9BQCUMPWWndJ2KQCsIjBtasGHp6VnVH/qTFXtPietBJMVVX2fDLxcVIJB+D2669Q7MmHUtFt76QZQ03oAbs5y4Z2yj6Wdpo1usrSJCzJoPIQxvkVzd+OI4/HZbP1RTCwYhEaKfkq9CwJr9XFzvwnfXD8Idi8ZgO8XqLQkHlWJRMhdJKUo0qj+jUFOmTsX7770XeXl5F0SkWt6ukC9JRR45csR8bS2tKc+JBu3ggQMXTXvG5haCOGHiRNxy660YO3YscnNzzXmxVKdJqbZYiNzbYgr8byY2v9+WbyKBBpc2sDlBK5FHVg3BnS+PwaHqtsmY7ICkKL88sgxDSpOwt+x9CPf6PEK9v4hwn3/DGfuD+Olrs3DwOM1oDZwWvLrNhzv/mIJVFTceGTdk6Cr9JVEEFIGei4BGyHru3unKFQFcP/na5z0+/+qX1qxc9aV/fmnYkx+uQXqiRMaGwtXrbky7ZgL27NljbCZGjx6N+dffhBXLwpiSsgRLE0Oo8Vhhq/bAwjxZIDv6QR/FVYjHaRKtz60swKM7+uLGAZWYkleHwWz5k+wImtZLhxjt2VScgsUnM01BgKQ8W4v++PxicUF/LVZZxghZS8uL5tsppKhlGlOOl3Oba8Ba8zKLaczk/OZ+YjK/RM9anuOgzUZsNCd5cqzX44WfprZClpoTMyejWEKuJBr4m519cBOxmZhbjwEpHqQQmwoS2KMkYuuZonz9eCZOsXJVUpSONtKUcv0AOd3oTA9m2HzYFpyHBQsX0FuMFmOlpQaL4QX9kZ6egde2lGJY/z1Yd9iHn6wfjx8+/PM/TBhS8LDDbovTwVd/cRQBRaA7IqCErDvuiq5JEegAAi6HPfv9864/s2nvfcOW7PsxpvfJRnlgOu6cMYUWE7tw6NAh9O3bF1JdOHv2bEybMQ9rlx/E4LRj2NJkZUSIAa9aL8TKLJDN9KWURUYDZkIi5Nv9rDDcyzSk3XieBc0hIjpvYrpOGmSLXs3ZikjdiOF58P76cixatAjjGYWy2+yRKFT0HuV7X0MjHEy5Rmy2rGyAXoUdm7dGCJWpED37BQ3VteZYUqvoOs+P7oX5WjVbDe3ath1+n0QNz70uZM5bf/61qopLsZvHnk/epPAgiJWrV+Ek200ZZtQi/yrkSp7aRVx20lNM9HLiByekVEx2RScm2Nh4U22lKJtvczhsxUySOi8NYHP7DDaXlGif7F9hYSGmTbsGA/oPxNHduWhq3Isnt1jx8IcfwZRhw+k7ImI+HYqAItCTEdBf4p68e7r2dz0CjBgJXZnIx4jRg0egbC8dKqgdS8/MJRGwGvuGfv36YdKkSTh9+rTRRSUlJbDhTzqSnKx0jCHIWax1HhYBhhDIo2FpM1ImFzAC9CgBEaIRo0dSldmWOP3c1CRkqX58d9uryNrGSsQowTqfjJDcZAi9ibjSHyzahRf+sJt2ZpSyN/oRSjoXxTLpxAxWaDZ5EUpsvcXSocLteO63W8z5IbaNap6SlfPPuxZbE/3j2KYL3ktyXCmjVeLf2lZgS27FRL3OYiPPRFosxYNNy4smM+1pCbK1FZuJS9HDli1bcNNNN2EnbUCOHz/BgoihJsIXoFawpCEVI/oPYr4Z0lDzIs607/pfEwVAEegRCCgh6xHbpItUBNpEQNT14mCatmX/dsxOtWAARd/lm/ahumYCxowZgxUrVkCE8yJWl+rDQ4ePINl+AqWNjI41n1bsJhp9xqsskHs+KWvG26Jm/K1XCLa2ShMl438KU8M4afo/XjhiDcjPvSI2HeRujJDZKPYPpNDxPzrkWAuJo83XhEAaI3qm2rPFkGOqmwwhC6bwmGYaubau1docdEpr1Ry/rfuMzB0/NufPE0Yh2ykFGGGT6JxUfAopW7lyJcrp3SaVqaalFE+yMarYN6UGOw4fSBzWrx/9SXCuo7v+sigCikCPREAJWY/cNl20InAWgXCDx5v418WLEk4cfBL/82EXMlN8mDV0A5YuSWd05RbccsstqKysRJ8+fXDw0HEc3v4C8gaX4tgB93mmrWZGIWUNPthOV8NPTVnYHkvVtZS2n9sBKruiGisK4B2t96iUo20M5rWozWzOvy5kVLIcSWOScJ0nrReiZuaStbW1LjlTzpMEZotjLuBLbczREV7VWqfwlm9Sma+t9lZ8iT3CsYZi/nnZ1QhUnkHSuBFYsGCBSVf2ZgXo4MGDUVRSwXRtFclaCPdPDeNL//gfZKSk3Tp73IQf6e+EIqAI9GwE2v4r27PvS1evCLwrEHh59bKP/uCv33hsTFYhHlkYRn4W/40leUjquV5ek4MNpxfi2tnXIyM9mZGxYzi49QVMGr0X/3skE7tP2eBimrI5XxHOkOoJYZw7C+kZmZwqwkqcFKqLTqzl8NNtPsjwl4mCMWq1v74Uh/KdCDNd2hXDRMLomWbSqM2Geb6CEbIciZC18mdMiCU7EpgIWXobjde7ZIGcxM80b10je3cGzlf+t5jf4XbDknxxZ4oACebM9AZMr8nB2FE3oXd+f+M/JqOe2rfNG9/GzaOWYPaEStlkrDrgw6Or3SjzDSj99/u+/rHbZ13PVgo6FAFFoCcioBGynrhrumZFIIrAoTOnht4+eC/+85Y0yq9IjmKJKxKS26aXIWn761j31kF4g6n0qSpGak4x/meti70USbB6u0m4QtSO8aRmnCbFQx+sz30Wg4cONvYSEtTJ71ULlzvawzGGPlNrxWWpqG9wRiooWZX4mz/+HscqtsOXnWzI0Dt+MHUYPF2G/nsrMXRogUk1thxCV71eL7adOgDfbeMv1k8cdmK6riYRJbYaHN35HEYecSHbHZmTpQ+4bVwhrhlRi4A/QnhnD3Nh2tAAfvL61tzDp0+N4FNKyN7xbzq9wXcqAkrI3qk7q/f1rkAgwW6t+cH23niiNBdhsXhvNowYn5V/DZ5SNPnKYaVgvHx/mnHvd1l8CJcx8pSbRD2WCOeFlEVZGb8kp6bARQ2TLUrI3IleON0xA9ToRUge3AluBohcpjWT2+VGYjL15WXvAiLWDOcgrTFumnsdvv61R9DEzgMth1R2lhWV4ANf+jROUhNnt7aZuDWnyqtHgnYUsuhik6UOCeKHYfYS+NORXAQO9opkPqPFEVbmOiuOnsa3Rlqq3xVver1JReAdioASsnfoxuptvTsQoEaqsQSJrAbM4Ad06+7vFmbsTFMdKQZk5k94V5DpPBvF+3aawgayEk11pcV3LroT6zVpROQ8LyRkTx7NuZYRn8d6Uka+b6135Dt+J6SAQBqlRx8t79c8Lync1lKrbYAjf5gDISvONDH9Gw1fGuhb47piIcJigJja7x2Pt96gIvAORUAJ2Tt0Y/W23jUI8POahqN8XDQXFvsgN8JyErJUNrxm5EVc+sUYVton2UvYIokmqGISK9YKYoxqOACPl3QkHCR8zUX0vKYcEzFbFcNWEoOWjRbfJdsQwyuGWfPblgjZxZqhtwWRBMDEfeQ8Ftaa6pfaPp/sf8RvQ4cioAj0UASUkPXQjdNlKwJRBDqXHxRSxsbiFh9bENUzfZnKSAwrBcM0ba3PdOAfT/0DfXr1omA/EnVLZiPtlo3CJSTTwMiMj8J+C88N+QNYu38HQn2kYXnnltUTd1XIWHlZufEK87JResshxrdV5RVGR9ZaZ4EuvGct0upCMHUqReBKI6CE7EojrtdTBLoWgc5/CAsBc/NPQL2I9UWSxLRjkgvljJY9UX0E4ROHzor9I/6zFw6JptmrWGHIeUIpJHV9nAjy+0jA5t0xrIwQrlq1CseOHmVW98IbFxLmp86ssqaSlaoFl5OrssxThyKgCPRUBJSQ9dSd03UrAhEEHOK66guSMIn7asvR8qlmfEEsxiKtis4f8pRPrCLipHqBdPqZlTcg5CQpS6CWqUVxwbtho6TtklSktkXI5LV4RpDE97ysr+jTDLslXW5dIhhJI0f2Ps4di2cleowioAhcaQSUkF1pxPV6ikAXIsCeia4HR1Xi+knsn+g/n105WFUprRybfPI5LeYLYSQnRPRhPlZa/vxADnZUtG7Waiwr4o1y0Qw2RBNZW1kDLNSlhdIuo+9XvNhx/VYPLTuSWm+tFO808R4nmJpHKyfEXmtvLul/eUPvenxsaCV1e/RRI1v2c//KamxIdIWRmUrSF6ROr8W+uJwWLN1SJf0zz7UzaO9i+roioAh0OwSUkHW7LdEFKQLxI+APhRyZwXLc0cdPmwr+OptAjMk/Yu32TGw8MohhsFRT4Ce2GAFbMW6fegJ9ejfh2cJ0bAt3AWGR3pAkZdJuyV4mhQEM2FxOM9b24OHN2iobTeAoaHpgCh6XKXhk+ji1t6D4XhcSNizVgw8UVJnemCdOJOLFbcPYSikf1YF6DMrfh4XTS6J2F9GLcsvLq3xY66tjjca7MDQZH7R6lCLQIxBQQtYjtkkXqQi0jsD8CVNf/Nn+B+6940+rxn55ThkWjmX1JAnSiq3ZWHrwFsy6di5SU6T3dKRa8uSpM/jtspfw2ZvWR1NhcSJ7QUasRQRNJqcfViAnSsr4fSg5spYrOsShv47ieW+ABJEBI+rkLH6a4LKS9LIY1VKwj2pv9BajxmCXcMOSspSx92AyHl81HZNn3Ikhg/ujrq7B6NTOLH4Z991wmrcl8U7g0Te8eP1YQcOA/tNfnjVm4qJLuLSeqggoAlcZASVkV3kD9PKKwKUgMHHYmD30/hq/ds+eL339l5/8SUHuKQzMsmHT0QGYOXM2crNTsXv3blRXV2PgwIEYM2owqqtmYfPh/ayajJMsSSqOpMbCFKB8DZNshd0OhJ10Km1OuKKkLMSolIXthNoc7cmdOkviJFjl8cNW64GfxJC292YdYudhaWTurysiWS0hkz6bUqXKNRtPtlaEXpKylNfiGbInx04l4m8kY7Pm3YPcnHQcPLCXjeEzcePC67B0mRX/XPESPrzwNF7Z6sWykpsqHvufn47snZVZ9vv//GE8l9BjFAFFoJsioISsm26MLksRiBcBfuCTD4RfXDDroz9ZuvebePBaO32vXEhMSsC+fftwlNV/Q4YMwdq1a5GRkYHU1Aw01TCVF08ppAj/SXCkvVKA1ZMBkjArSZlDRPyJDgTTLt6b8bx7kLQpyUnQS2sIEhvxLYulEg2hiarZbW4SOuOXFidhjF0kQC+0Sva3pJ0HXPzTxnXaS+pgaSIZi6f5dxyABzMTEJa5Y0NaJ/ka4SpyIS0trU1C5nMSQ08VLmys1PyiTCmzOGPJtgEYP/V29Ouba/asuLgYPtppXHvttWw2Pg+vvFSGwjMv4aU9wH/c9/DHhIzFsXQ9RBFQBLo5AkrIuvkG6fIUgfYQIJmR3+Osfrm9UVUaOzpCZurr69G3b1+MHz8eFRUV5oOdiq/4gkWixapn+o8RoCa2WEp2WZHNoFgNWUWVj62SSMpsFprKxiPiFzIWIEFafxS5IVZicu7KykoEg5HqQ4fDgfS0dBNpKrf6EZo+BBZHB/48cX4r05QStQtLhI7+anZ2IjBkrAv1Y2ITItYgZ8kiSWWAy5wzdy4+/7nPGa+xlkN8yCrpU/b57/w3iqQpuqQ5Wxu8hyavBTWeXhhJMuanol+I9MyZM7Fjxw4T6byl/wDk9h6Mk6UuupXYkJueeaa994e+rggoAj0DgQ78xesZN6SrVATepQgkrNi8Eu/Pj3zYG3k3H/n5+UZ7JMTsmmuuQWJiIk6fqYi82N5gmk0iYx76ko1JsuB/sz0Y7AijiBWa36hwYnM4CQkU8UuKMizRrosN8eKqrMO0xF74ybe/Z1oJPfLIIygsLDRnDSsYhq9+9atwO134xMOfw/bqejhz09tb4YWvR9OSRkcmacoWkTG5ayZdz91+m+nT84+h9W2ExMYid7HonalGDTM6looB/fu32csygfdlZzNKIcNtDr7ksDPKhypUVtUgn6TsyJEj2LNnD8rLyzFhwgQS2CAqyorQa0gAA9OqsWTTms9wvk91HCg9QxFQBLobAkrIutuO6HoUgQ4g0OT1OA+fLlz4u5f++aK16lksuInRG+qQku0VOHq8EJMnjsAdd9xhoi1CxiQrWHjyCK4vqEOoPLPtK4key0vqQkITpL/Y59I9mJUQQiPPz3OH8R8ZfnzE40KI1ZXSAzOc2EJP1trMJHipaRnoP2igqYCURuRONieXkcRm5v365yMlKTnSoDxMMnUpI2Lddd6QpzL5ZD4DijFaJHyqpbSs5alCbo9Zgmhoi0xxEol6CZlsTStmY/cDp4NRu3bjkhbOEcaCscfw9OolSLnpTowePdpExiZPmoRBg4dg9drNyHGsxYDeHjw0246P//M7n/zdoudO3Th1xi8H9e5TfSmQ6bmKgCJwdRFQQnZ18derKwKXhMCzK1//yG///u//d8/4Jtu33+/kB3pkurtnnsAfl7yAlVXXIiUljc8wNkNiUVJ8EvmulZg2vA7B0qyLX1uYiQS+yFjyxBOLP4s0Xb72YiQngc97JAIVR7BNLmRzu3Bw1xF8//vfN5Gr/fv3o7qmxqxBIj8/+vGPKf1y4OTp07AN6HdJuLR2sqw9MxjGp667Ff2HjYTf5+V6VqChroJZzXMRvnAoiOxegzFw2DRGtRzYtGYFfrN9NepJPlsbNpcLS99agdKHJQV7oUpM2kp5GptQXltNp/7+F72vEL3IJoyqZupyOV5dAsy//g7MYzrUR0O59es3wVLxHB689Qj1d2EMyLXjrx+owaNvf/4/P/Jsyl1/f+OFr33kxrsWdzlwOqEioAhcEQSUkF0RmPUiisDlQaCitib9trENvT40Nw0VlC+FIvyG5CeM2+ftxvYjJ+BrkubfhpNhVD8PpgyrQ2GTA40BVgg2X1ZzIb18z2pKaUAu+c8ljXZMT/AZEiZzLWuwoobkIYHC+aAxX22HlXEOW1oSjo1Iwy8OrTSTWEeIP1qqWUE52eKeI6tM+s82NtscG8m7du0QJ/28/AEoGD+ZuDSyB+UOWB2NJErnyFaIuracfr0wdOxEOEi2Dh3cE418tULIRBPWNwv7Sdb2Nxxou5JTmrXPGGzsKtoqVpC9qPVbcarGhQFDGzGmcQ2eXtSIfr0GoKq2DonW7bj/+lMo9VPHRq2ZDDs7I3zpNiSlraieUF5b06dr0dLZFAFF4EoioITsSqKt11IEuhgBtw11X9nWB98tzyeBOd9awUpzUbFRiDhWRUaoOA2BA70NJwgwKuS0NZ63IgsjSIaliTTKQUJGrZer3oO/2hNQx+mnukPY7rXimXoHHBT8yzBVh3FyJ9uAHE6Ze3EUzOLis4noDJymzRFTuIEAiwfEqiImuIthxJ+l4lNetzAV2a5lBQsJnP1z2l+K3NdFSKbDFsIzJ9LxwkmJaAr0XIf1DFynToMG/Qgk2/CrN4YaF//zBvfIc/IUHi1AdfuL0CMUAUWguyKghKy77oyuSxGIDwFPgJEqb2u9LOW5i0ixLAz4tJ6EO3fhIC0kpCWSkJYnfG48RT1UgN8LSXM0ehFgy6QYgWt3uWJmytRbwEPbCyEcNurPohWQUl0ZS/fZxfaCDbs7bHvR7gIu0wGmUqBrCKTw4WCsJ6l8JQxNjggBo4ytdeJLgibvgTZevUw3rdMqAopAVyOghKyrEdX5FIGrgIDhNV1hfNp87dEoWZCWF+J0n8iKShH5m2ZEUVd+E0WLJzomZMzL9k6rD6MgIZ2RJwsKqRXz04ZDhsvlRu/evY2b/rEm9mW8tgAWVxe0dboKe3Epl2yt6PM8u7jW9vjcc+2Uul7KyvRcRUARuNwIKCG73Ajr/IpAT0ZASBlTYsHsRIZu5AdJaZIB2KIsIB4yZsI7DNZV12EOxfK/+uFPTZXll7/8ZZw6ddKgM2LECHzjG99EEitBP/Spj2FTrdheZPRk5K7G2tsLeF6NNek1FQFFIE4ElJDFCZQepgh0UwTMh3B7vCgqC+t8EM1UXDYLw7V3wdbAIpmz0wA2OSXZOPbL91ZJTXLYnU4+n4LkpCR+z8hY+OKe9t10L7p8WR2EuatjpF1+PzqhIqAItI2AEjJ9dygCPRsB9glqO1sp9ggS1RJdkni3elhZ6WAOrC3zeku0qrLLIeEybGzltHvHIXztm/9tbCZ27d1tDGtl0E8N3/yf/0djVAeOnT4F2+CBXb6E2IRSUWkjEZSHVZqPS6/OZoDI9+KuHztGhP1XesS0ZA7un3EWiY+ZRU1PrvRq9XqKgCLQFQgoIesKFHUOReAqIeAPWdxfGF2Bm6aE6FV1vg+8jV5hR08n4O3duahpTEBOZg38fTxYUp6CJj8JWos1S9TK0uiDnS2RAllRsX5X3ZfYWaQkonhqHzxZs89QSOs0asai/l9VrHY83EjbCMb6bNPyzbGXw/ZCbCeqi8/gFBt2B+hDVldeCw97dVqkwiE6xIesuqQchQfZgJ0EsbGq8jyfsrMHdjYe1Q654p4iN8GPDwyswYycBrhYbRkLUAqpln6XsSlkCS6XBa9vou4uZEnvqu3SeRQBReDKI6CE7MpjrldUBLoMAdFiNVZWBUc6fLZB+XTpj2X67CEcOpKEbYcn456pC5GTk4WD+w/AW/E6Fo4pwtf35qHa54iQsqgdQyjVZZpzW2s8sDNSFshNjmjF4ovOtH9PQsqyUmDLjniPtTnasYdo/0KtHyHkpZKM5k8rXgFWvmoOEvLV2u1ZDpXAsmqdSfEGSBYb2a2guX2I6Oks9GDr1GBBhBRFtDakWnJomg8/GcOG4oXJqOQ+xYaVZZbThpVizLAaLjzKBknWth/3orK0sSI8yvj26lAEFIEeioASsh66cbpsRUAQuGXa3Cera7894aFFi++/c+h2fGautCKiyeqhFPzt7emYNf996Ncnh02vfZg+exY2b0mB5+DTeGhgFb5/KOdsm3FbRaOxsAhm0uZCSBkbijtQD39nSBm5gkl9tjZaeH5dyV0UClRBbVpJkN5rURbWPFV5/loinQ1kSDbTzkje2YAYv7F6/Gxe3hDJFXekeTknDaW4EMhhBLCFn5gg5mJU81sjS3BkxwA4et+JISMHMGUZIW+1dfX4+8a3cbtnCWaNq6ZXmgWPvODFnvq55ddMvvavN0yZ+cyVxFOvpQgoAl2LgBKyrsVTZ1MErigCQ/sNLKWH10fP3H7fX+77f/evnJK/FSPzEvDPNeMxc977kJOVhtdfX4zKykpTyTh58mRsCgSQWvIUerv9KGJjcBvTlNKI206/sUDOOVJmISmzs4NjgLYXcUfKhHAkOkno6tmY3EvyQVlTV0XYOolsiAsINHgQ3kttGiNbxi0/jnH2KK7fJ8GnUTTf7ZV8jpiJPK++Cf5T5RJqE2bW7qwWOvrbRvYj6RW7kPOBCZJgzRnUgDzyxcLkOZg3YwLKyspw8uRJJCcnY8iQIXA4rsPaTYcwa+w2PLelCYf8dxY/9Z1fDE1JcDd8s92r6wGKgCLQnRFQQtadd0fXpgjEh4ClT1ZmyQdv/iQW73gQzmAikrOnYGD/3li1ahWcrGC85ZZbsHTpUvTq1Qtjx43G4lcGIT/xGAodSfD3SmG0hwRKCBi9xiRVKTYXEjWz0o1fWnEH8pi+bKdvpdALCfqE7RaEeL4QPPk+zPY+HRnMwnXZCDLd2CcrB7NGDcUbO/+B7Mx2+ne2euUwSsvLcdvM67HJUYN9NWdMi0/BI1DbgKSiGmRxXjG3vdgIcy1FxZVAX7aG8pLAtTyeur6x7DHa4ElDTl5fNDQ0YNmyZWbPDh8+DI/HgxEjx2APMtDYQN3YARf+/YHPfULIWJcBphMpAorAVUNACdlVg14vrAh0GQLyezwsOy0dxwPCEyKu90IQ7FJNSEd8+Rr72TjihwMMekkrH55JnZgQLrtFolokZUzFBbMSmMIkqSoXUiaRsghRaytSJkTMFggjqYm9HSVSJAUCDjfn8iGQyeVdJHjUnMiIoqs+ke2KpPqxC+CR3pVpiUkYM2AIVrAvpcPFLgBxRshil5f1OWjRMab/YBytO4Jw9ZnzVuamd1paZka7LZaEkJU1EUe2WgqlUe/XgpCF2ccynNBkIopS/dnY2IjMzExcd9112LFjB0pKSjBqdCR9KV2yLBYHkhISlYx1wftEp1AEugMCSsi6wy7oGhSBS0QgGArn/3Ppv/CxAisK8hvh37gRBw8Pw/jx41FYWEgNmRdTpkxBTm4u3n5rLbLSjuE4Ky+FvMVK+IRw2a0kYKw6tJGIBbMSGSlL4vcN50hZK5EyiQslsq3l9cFcXD9pmvESExIjz1cw5Ra8SFshITqZWZmRuycDq2UT7dd3rMNb7mp4GVi7VFLmIBk9WHQKPzj6BEKeRuRYsli82bEQnKzBy76W33vhCdQOTIU9iWQKZL7RYe41+rjYNhriaVK6DoR7p1xQRRqmoH8rsZoqPTbZ4DwtPR3Tpk3DypUrceLECfO93x/gFCHag1gwOrcOf1/ywrd5zTmX+PbR0xUBRaAbIKCErBtsgi5BEegsAhU1VenLNq/7zN+XPP+9LN8iXDfKzQ/rEO6buxN/XPY0LDPvRUFBgYmYZWdnY9XqjUhpWoTivh6c2ZUa8XqVEfVVEA2ZFFbaWGkpKUshZYEcErXmpEwiZWdPlCblYQxpcOIrH/04ps+59uytNFBHdvTwURM5OkesYha1kUtK5G5owVC4EqQYITKGvzoYB5/9NY4yu3ipDmB+3vfEAcPw4DUL8a29/00/Nq6lgxEyIXBuuxP/d9/n8XTFXiw+ug1CyTo95MaluKFFo3E7r7OxLBGT0uvQr/EYrGOHG+3Y0KFDjf4vl2T64OFTSLCVw+kK4ZOz3Pj4k4/O/vdHv//GzdPnfJ+i/hWdXpOeqAgoAlcdASVkV30LdAGKQOcReO6txQ88+8IXHn5wFnD3zazcEx8LftYPHtCEL9y4CX9+M4y6yuupccrAgQP7kRJYDkefYvxqRx+TfjzPyiEaOJKomDFHrW6KRMoyScoo7JdUpklfWqJC/2aNwdNciejXn6L36KiuqsaxI0dN5Cg1NRWp6WlITEo0gvoQo0ANTMfVVFejjhGx/fv2Y/DQIUhJZdSIYxC/J9+45OiYzGWjqeuJsmI8RpuLJvqOZbFi8Xy3tvaxFyx8jFj9hXYZhzOYkmWD9Uin764dAqeHacsna5Iwo2YbQsvdGGqE/HaE2JR9z87dOLz3bdw/+yjTwcSVUbKnHgjhiQ0/XvjdX/546O8X/eP/ffqOD/29a1elsykCisCVQkAJ2ZVCWq+jCFwGBEgyHOOHuPJ6DcrE8uJzVg1yKbsthGET92PNnhJU7E1EYnoDymx+rHwjjSm4RjjzLAjSgqE1G3jRj9kYBRMLDFslNWVCyhg9E9G/pclPWwtey3nOo0xIjkTCZFRVVuH40WOmmCB/QD5S09IuuPNkkq/cPBrWkpSdOnEKRw4dxuCCIYa8yTwdSyq2DWwsMud2uqLRts7NLGQpyZVAfza5f1aleruekBkCyeuU++1YnODDjsNvYcTx1ch0c58IbaKjHteOqcRJNnQ/djLi5SaByuGj0zClpmqw1+dnOawORUAR6KkIKCHrqTun61YEiIDLipof7cjDjyr6R5TeLQdLFm3i9C4tlOqSmSWzwJXphaOcLYtYWRnmJ30onenCljyFPwczTFcm2KoaScroU5aXgpCb/Se95/RT8rqQHiFRJ44ehy8QRG1NDRIodB9CgiWkrK0hkaf0jAy43Qk4TEJ25OBhkrdUnDx+wrQuilQcXNoQU9d+Wbm4c/IcHHh5hdGPdTRlaUT9jIrdOXU2LAc2o/jAcbZVosDNmLteqsqtlS3jUwFOK5zrOIsvIpvAK4Xd+MuOvnTYaHFNwarwJH43KkzHWB2KgCLQUxFQQtZTd07XrQhEEPCAhMvJaBgsbRAYQ7aiH+LUe4VTnfDbUuAgIRNtWJDeXGIIaw5pQcwkMibPS+qyTbPX6E40NDSijmRMdGGDhgy6KBlrvnlu6sfk+EP7D5oUplQXdtUQUf/+0yfwvZOPo9HbhCxr+/YULa8taVav34f/e/5vqLEH4RQy1vU87LzLGr9ZqbZsfiH+bCpjhVw3H+RjvohXyPlMuatA1HkUAUXgiiBwqZrZK7JIvYgioAi0iUDHc3BS7JfkQEAq/cSolNEvsbcwIvNWiEbYFd+/24ykjP/J7ZXHqNc5kX48e5fEyszsnBxzaEcjWBebX0T9w/v0x//e+ymkuBPbtaZobS6JqrkcFPV/6EFcO3oCvNKfqllRQzz3d4WO6fh74QotTC+jCCgC7SOghKx9jPQIRaA7I9C5D2Ep8nPb4ScpE+NWa1VTpBUQo2UXtALqwBWMjQULCDozxP5CPNO60trfznReYWUpfrvkBTR4GUzsYIVljCD6aEXx6OvPYXtDETAg07SZipDXDoDTGVD0HEVAEXjXIKCE7F2z1Xqj71AEbMIJgtSGtfdo4bJguESYTbMDdOoPJbPdUS21ZcV1gDTN7gRxEa2VRMacNGDtzHC7XXDx3A7ahF30UhLdSklIxPgBQxkMNFB1fEhTdBK7cZwjNZlYUVTfVnPwjk9+8TNkz9rbV3m9czfW1avV+RQBReBSEIgvF3EpV9BzFQFF4HIi4EpgQ+oUFw1DW4j6Jasmgn6L6I44PEErKr1MUfL7s/8SE0NTitODxvCVthY0hXUU1ZGkJZOsyZEdG50lY3IVKwlTV0fIpPozgRWWIuwXUtWZIehJGnVAdh72ebwI1xZ3ZpoOneOncF+um+0O0AONhRdCuPncBaRa1sb7quN7gKNzTLhDK9ODFQFF4HIhoITsciGr8yoCVwABb8iS+PUJJfjAtR72OjznYGGj8LuqzoZth5MpZrcayVM9Pa62WNxYF3Shyh8hZmYIKZP2SeLUT3Jm0pdn6gxJM67ycnInImaduv0uFsvbrTbjQ/bbU8/Dx5RlrvigdTAEJ2lOHxuy/2rxcxGn/gT5s+nv1O3Fc5KPxGt4qhdfHl2GdE8YJ4rcSE0KYtLQerZKCrEI4xxIwjEZWMRTq2vA98KF/iLxXFCPUQQUgW6BQOf+ydgtlq6LUAQUAabhGtfubzp17HglRmc2YUwWH9mNyGa0bPmqUWz2/RHk5X4aOTkPYlDvT2Cm61q8h8Ssr9tv5GJnhwkDsUxP2iXxYaF9hZ2RMjGCNWSsi4nSldo5Pw1dR/YdiO9/+LOmp6XcplhqdOQh959AUf+P7vsc5gwfDz/1ZC2HRNDiebR33xIZm8r9e23BMfQrt2PP/vnU5H0CdY33YPnbBcjm/YzJacQY2evsJhQkNmLdzgqs3uc96rTbatubX19XBBSB7ouARsi6797oyhSBdhG4c/YNj2ek/D30i8VP/eDtw8uzvnU7DVAZAXp+7QDkDbsTUyaOQkNDPXw+H9LYfHz46DFwLLMg2bocf/CnIkDDq5bBL7HAkKiY3VRf0pWfBK2nErJYhOzPy19GVXUNQqKP6+ggnrV1dfjjm4twLJN6MnHqjzlMiMaLLvqexqYLUsYtLyM9KEMkum0NSUemOEJ49Joz2L0jA1srbsfCW6+nLo82G9yAPfsG4Jev/QsP3bQDfXL9qKoP4+NP0Gdt2GfXf+L+6T+6Z/7Nz3f01vR4RUAR6D4IKCHrPnuhK1EEOoxAn+w8hrDw55qGhhfv/e+Pn1l98G3nnKFO1PqyMGlgPk6fLsSqVauQlZWFGTNmICEhAVl9CpBRtRyDUrzYX0n3+ajG7OzFpQKTprBBEbNXSx60w8vqNidI1Kq2sR4bq6tgGZwNjxCiztxPbg42nDzI8Fo2rNLdQAYZlDXRjepEK6rrytq/ZzGlJa42u+386GT0zACjY3N716GuMAHbKm7FjQuvR319LRvD25mO9mB4QX9ml+/BY8v8+I97duHPaxowbPxX1/zwoS9f+2j7V9cjFAFFoJsjoISsm2+QLk8RiAeB1MTEqvfMu3v31oMrJs0ZKmk5EXtbcPLkSQwePBjTpk3D8uXLMXbsWFgY4ZFIjOiU9lZE3PgvGKYCs+Oi/njWeqWPkY6d0jHAMrCXqZAM0nutI0OytRJ1lP5FARsrLE3ek6J74mPtlQYnH81HWEKO0gOp5RBHEZI46XbQaikpT+nt8GPH8cGYMetaErEmrFixAvPnz8fevXtNW6kpU6bi1MkZOHj8ELYX2/HV9935Hz/ElztyO3qsIqAIdFMElJB1043RZSkCHUTA7g8E8s/5lQoNsZgP8QMHDhjN1JkzZzBp0iQzrVglNAToA38xbVhnIkkdXPQVO1z4FEmqMysJOR4/G5xHrD0ijcJb2EbIj9TghajXMoPeauXJNNKNgStFECRj/t6RfpJdmc5tYgrZF0pgJNPNnqBlFPAHTVRTjHMrKiq4jxY2aU9Bg4dkED55vWMOvFcMcL2QIqAIdBQBJWQdRUyPVwS6IQJFFZVTX1z+VM73FjD6Q6uLYMDDdBdTWsOGwe/3o7a2FjNnzjQ6ssY9bFHkD2NPtZuBnq5lXX62GOrsCDECFTQaq66vIBBNnD83CQPr/PjkwInIyR/Aa/lReGw7mhprycnO1TcJGUvL7I28fiPYoN2O/Xt34M8Nx1CS4jy/a1EXL1NWsKcuARMdRTiw/xAmThyNfv364cUXXzQRvgULFqCyqg6lhbsweLwXMyvq8NsX//57njass5jreYqAItB9EFBC1n32QleiCHQYgaOnT+S/tHrZN+//1v2fvH3wVlwzmPomkqzJA0/izfVrMGfOPAwfMdrMK8atBw4eRcmpNdiXaUdRo4P6sQ5fss0TRK/lafIg4A/A7uj4nxav12uKD7qidVKI5Mla74XFH+nvGcxhYQLLSq3VjRg5fgrGzpwDXxMrFJdXorr8FCNP59KYEhnLHzIc46ffaUxuG5saEN5+iLO03Si9K1C0k0jvrnGhZmgFAkdfwF6XE7NmzkJBQYGJdPp5L28sfhkLRm5ETpYP901LwOZn/ljw4f/53MHpo6/5xy0z5v58SN+B1V2xFp1DEVAErjwCHf+reeXXqFdUBBSBNhB4df1b92566+FP/uKWRIwaSDIWNYddMLUcSY5XsHHNThq/ZpqsnD8Qogl/CU5Zq/BqUQbF5ZKb6+oImR/V1dXsS5nd4T2rYWPyAP2+LnlEOxAE2d7Izs4DwXS3STFKz85Qqstcw2fIH7tSMiUYpK5L/hcbIf4cYKROXjdkTtKbV2iI+eujJzLw7wOLcGjXM6zgvB0jRgxDTXUdNq1biltHvIlZ11SwyNPKNCbwp/vteGvfvwp+++YTX4LlUfZ1gkTMdCgCikAPREAJWQ/cNF2yInAWgXDYF07PxpuN2Vi8XZhI9BVyLbszhMbBp2lqesa49Vc1WLFmbxh7KQYPuRthpfFrmCL3TlUdtrIFwu0kCldSVIy09DRKr8SuIb7hpQN+aUmpOVjmuOTBOcTUVhqohynEt1U0wEf7jnC9EL4umP+SF9j6BFILUM2qyu8cycFgewNS17+M7E3J1PsFkNu3BMls9L5hW6+ztyBE2+mywJpRnkrg1FfyMu2LTqsIXAkElJBdCZT1GorAZULAYQ3XPXUwA0819j0bHTvvUi1SkvagBy5rPWxNflhL66mrYsukLiJlonOSXpSNjY04deIkBg4aaNohtTckYnXy+AkTtUpJTTFzdMngvYfoqm8vaUAohVEyqW6s64IIXJcsru1JbCTPAbrx7wsw7Zrmgy1USYNfwFefiH+u5361HFJSWxjE3ClhdofXoQgoAj0VASVkPXXndN2KQAQBvyjNnex3GEtXXhSYNJepNrSXNcDS6IejhKSMfSvBlkmdDRzF3O8HDhmE/oMHory0DIWnClmlSNPSAfmm4Xhbo4mGqidPnEB9XT0GkMBlZmUizBRhqEVfzk5tNhdmL6dhK9OVoinr6vRsp9YU50nCoyP6PrZ6EgsTfmcUbLLPFxAykjW+BzhaeTHOC+phioAicNURUEJ21bdAF6AIXEEEJJVHY1OJE9lLScoYKbMX15u+lWHx5+pkulAIg4NCfrvdjl59epuqxVP0QJNoWSZNaVPTUuFi00Wx3xCy5WlqQk1NLSorKlntGDBkLKY7s9vjT3W2iZx0e/LwLqVyM5uEM9oa6goi3WWX6kDdRffNxXYZGjqRIvDORUAJ2Tt3b/XOFIHWETCkzIkAiZG9nFoykjILI2WBTpIyIQxNtLuooZg/P3rFvN55tGpwkJSdQkVZOT21KknWbKaCUkTzQsKCvL6NKc3Bw4cZwhYbFeXlaNY/u/O7KPRERFnGZ+xdwVU0Qtb5d4ueqQhcdQSUkF31LdAFKAKXhIBdBEbSlBryaGVYaadgXiEnOWscK+2R0tymhY+totFEymzUlAWpKTORsg4MG6Nhh51N+PXfH8PdJbcgMTnJmNJKJExSl0K+opc/O6usRyiS6MXq6tgT2zjUhlFTVY1/Ln0FxSmXw40sMqco32mJG33Efj7/hlse04EoVQeQu/ihgo8Y+LbPJYVwmhUqIesy9HUiReDKI6CE7MpjrldUBLoMAX5ou3ol+pGX4Wm1ubXdFkJ5tR11jVYkpIRQGnBQ28XG4SRpwoiC6ZHWSULKrI0kToyUBakp6wgpk6mqEy34h+cIXnv6F5S0RUwkTK8Apigv3gyAx0ZtJ+Q4ccOvSrbCy8rBLvasNevwsErx+aUv4pXVS0h0QmhqqKGthd+s9twIw3H0bSxeu40E1oJq9pMMJLoug11t228DH8m1i3qxoew3msyvgqcQswAFZS0JmmBcUumXY7qoGqLL3p46kSKgCHQAASVkHQBLD1UEuhsC3qAl4WvjS/Cp+Y1sQH0uMycBJ/kYf2ltL2wtHwN3WgZ1WyeR1u8E3vAmYktZApyGlDF9GCNl5Q2wUndloaYsIEL/DgyZqokkqsHdsehaa3EwmauryZjcisx7OtmOpwIsRgzVm0tbUiUW1sqaw15CQ0CF5qTaEGC6Vc6/EkOinfN71+ODOTXI5fVFzC+XTk4IYFi/JrhpZxKKRkPp6EHbC+APy+vA98K5vO+VWKheQxFQBLoUASVkXQqnTqYIXFkE0pOSSv6w2XYyxVnX/346t58zew3j6RV9cKbuJnzgrvlISUlGYWERNq9+Ad8YsQn/hyySssRopIykjOlLEcDbqpoi6Utqy0JJHRPXm57azW//ChGYdhGPVivKcbIkf2tdBC7IC55P0s6L8l3G/KVExm7Pr8W9dh9OHJmO+ozhsNHPTS5ZV1iKjbs345ML9yMzjVE9Al5aFcQvlnp9i/c5jzw4PEGMYXUoAopAD0XgMv5p6aGI6LIVgR6GwOb9eyexp+G/3NWPD/np++wQCdgzb/XBvupbcOPC6+mcX4VKiuoHDBiA2joPNq54Bgn9d+LbJ7PgZTPr5g3Gxc1eSFmYqb1gqht2/hwQx/sypjIzEg1Zs3oD8PdNo51EM6sMiWqR0ImISRKWkq4UvZqYsl7KkDmFHErBQfNhnq9oQkBaIskN8P/WBhYnsHF4kA3EZRWWpgDbJ/mMO7+0UWp1SJDQTaPcpDjbIpG4WUR4dxmGTJubGMBvRpVi58EFmH3DXUhJcjHy6TEmu3a7E+s37YSz+nF88tYjKCwP48NPuPw3LfivX9w87dqfTCwYUXwZlqVTKgKKwBVCQCNkVwhovYwicLkQmDJi1Fa2/xl17zcrvG8feBGjc9Kx9fQ0vOeuG1BcfAZr165FYmIiSkpK2NtyDsZNvx07NhUjP6EJB+tc50W1gpmJrLqklqx9Jfm52xE+RIJkp/4sjf0Wnfzew+rJWpc1kvpszvguFwgXmddW3QRrLdOPba2DHmx+EtB2uxbwfCF9NqZ2L8cIkhxfP74elnoXcvNHI5Vmtn6fH6tWrTLN4efNm4fRowqwdmkf+JuO4bdve3Drwm///qsf/Oh/PHI5FqRzKgKKwBVF4NL++XpFl6oXUwQUgbYQYDTKfsvMm8v3l4RQVOlEXp+hSExw4fDhwxg2bBjuvPNODB8+nA2qWQCQm0lxeG/0cvgZ0WolSH62FDN+vCUy5vAFcFtKL/zvnPdgcphpNvaD7BbDVBhE7S9a+yqLjJeASoSMPUEvxyNMMtubBRqw2Gmmm4hqVpxu27YN8+fPR35+Pnbv3o1EmuyGqd33+MI4Up2BO2bO/0O3wFgXoQgoApeMgBKyS4ZQJ1AEugUCSaVVFdmSrsxL96Gi9BS8jK4MHDgQBw8exNKlS80Huhi3llVUw2EpRU3Q3uWVg0lJCcgfMcAYwF7tyFiX7Yp0MYg9JAUbe8hzQl6F03bRo95Hu5BIAazB8NChQzh9+jStQepMx4NYG3Sp/nRZm1BVV5vXZfepEykCisBVRUBTllcVfr24InDpCLAZt2X38eN3L171BH57hxN9enkwOHUtVrzVG9fNm2n0R8XFxYyQDUNFZQ02vPUKho8sxPGj2fTi6jo9lLjz19WUYvv6l2glwbRnRwsuLx2Krp1Boml+Gtgu20VLEF/E1JbRMb8vaPhXMBSEYxTJZyp1bPFG2JqvsFmxgTwttQZrTrkxM9UPT0M10tKGYfLkydixYwdSU1Mxbtw41NTWs9qzAQmswbhtZBN+/I9Hf19V3zAmIzmpqWtvXmdTBBSBK42AErIrjbheTxHoQgR2Hdk/9As//do/9x18c/LnrynEiL70QGCm8MMLTuHPi1/AihVhzJ49EwMGDsKZM6V4ix5c141ajyfr3Kj02uHsKn+JqPOsy52Mvv1Hw7K7RChLF95pJ6eSdYlbf8QYrcMjzLSrs6gWA1KyYJFG6VJ4yoeQs+LSUjR4vGwALoSsg1Pz/EA2z2OfzdgQTreHa1zqqUf/M5tQ2DcfBQUjMHzEKEP46huasHHTJozMOwGrI4T3TkrAobJFgz/89ZNHvvCzby69/6b3fmvqyAnHOrgSPVwRUAS6CQJKyLrJRugyFIHOILBs6/obXeWPTn7xo6lITiVTYARHIlMuRxifve0Ynl35LFYtPkKvqlQ01B/HmIKDeK4whH/tstFRlmaiifwT0FEyccFCKXZnIYCQF7c7Bb37TWRW7y1yCF9nbqnrziHpER1bMJ3VoWykbqFGqzOkzMo8sDuZcwghiw4hZHa2hur0EI7ospkKz+b4M9iJp8vTMNdxAtUr/ob+Wb3hZIQzzK4H3qYqjM7ejztn0d1CLEZIyh55jwOnS7b1/t5rq+5fvXvwOq7nd51ek56oCCgCVxUBJWRXFX69uCJwaQg4rZaGtQ198blteQj6z2dWRt5EYlaIPaiptCM9I4CDhZkoOuKFO+hDmFYWpn9lC1LQoRXJNWg1YS9rYP9JK1acPILtv/4+ihl5s7g7EZLq0MUvcrDosEzlpN1YXgRykuEoqaMhbOfYJ9PCnUtLXux+jP1+9BE9TlLIAXqRLfO5cSi5Cr19pQg3RaxJMlMC2EPd2nNr+p+XIXU4LTjoK6kbZbVIywEdioAi0EMRUELWQzdOl60ICAI2S7h2XVES1lkz+eHeRitDIUe0mQ+XuyN69N4kKqUkUg0+Q6QMKZPUWUe5ikSg6EsmdhfGg4yT78lg1IhM0GRC5WJX1fKChreZCeYerV5/xE+N/Tq7+zD1AcTveKMTR5p3Q2rkC8WtkFwSYRTVp9xvYXsBHYqAItBjEVBC1mO3TheuCBgE6NTK9jrsd8h+OheHJNb7h1GWQC7JSTHtG6KEyt+b3bylajBeUiZci22W7GyzZPFTK0adVpBRqHAKCZk0xDYriZYLXs2NIn8RrZa9tAFh3l8wK9EYzXYmdXnJtyFFASwEkN6dFgsJcDv2IiJ9Y1Lz3GWjOr0L1sG98EX2tqeXUVwyxDqBItCTEVBC1pN3T9euCMRPoc5hJTyJvRkDuSkmYhQhZUw5SlNxYQHtjLCJjAUgrv7Ga4zEIsjoUyiZZMxwwjZYXXtTx0sG21tg89eNf0REQO/gvUr3gRDbRFlrWJR4JaN3vFawvAau4lpT9eqjH5yf6WRL/+yuTIUqIevIe0OPVQS6GQLqQ9bNNkSXowh0EIHO/Q5TEyVpypiGTGwdbEztRQjVRYZoxhiJs1c0REXyJBp09xeic9HompxHUb2I/1t7WHydE9zHhZWQMiGgJI3WGo/p0RlOZqukzlhVxHXBCw9i0BChokr8vwf/Da/++Uk8ct+DCJ4ou7KksJNr19MUAUXgyiCgEbIrg7NeRRG4XAg4QRG4Lyif+G2EoKJPRxwgwucyZULKWEEYyE1m6rEO1jovZV9S/tdOqCrmXEoGFnI7WcUoZOwi50hEjXo1iVBFHE9brNOcSjF7jkTZaNvR3vU7g6QhoOxZmZEAa7UHAX61i+O+tInqRGeC9pYgvDYU7ekZC1tZrTYMHDwII0aPwrEjR6NkrG3cpLdlUJhcbLR1qGF7beUz21upvq4IKALdBQElZN1lJ3QdikAnEAiFLSnjc5pQMLAGoRZNr202aYxEYTs/rOXjuqjJjv3sXVnpcdCpP/rpLkSF1YgSKRNxvq2WunBjyRDnn4ZWyEyMN8g1hStYpXiAhM+Qv6wERtgizcfP8gymScWWQq4f4GshE227DPlLzhlKZGSMONmYspQm5JJ2FaIm+rK49XPt7JOsXCx3s8jKGnibZywS/RP9WAiLFi3CfnZO2LdzdxQBg9J5M8pPfu5ZbkIA4zObkMTzbdSIietGIHhhQNRG/A56m1hAaqGxmQ5FQBHoqQjE+Ve3p96erlsReGcj4A2Gkz42uBhfXEBNFE0PqBk3hMrKD/DDpxOwdl8uPH63kUv5yY5KEj1Y7vZjfQ0jRWcZEUmZ23GWlBmR/iUMQzGE6EWbcdtpNxEjYzamDK3eSBFAhPlF7CREgxa0MmpFwT0bpSNInddlEd4LKUtxGe2bRAT9vVO7/DohXmO0IwH3XXc7lm96G/+qKESQFaeCyZtvLsfGzZtRW1kFDEi6AGUhYxKA/ERBJR4aWMm2V5korMxGgqMJc0afxrgh9dzjc2SWQTdTkvlzXy34XuDN6FAEFIGeioASsp66c7puRYAI9MvJOfqz1/ofLaorH/zl66zISeMnNCMqe4+m4InVszBs9Dz0ysqItP1hhCZ8/CiuK1oGa0YtVley0rJ5pCzBYaoQhUAZMtTRIBVJB+1h8dkpN6LR78GxyhLckDMcv1zyHP7rfQ/gybcWo3duGqaOG4/vr3yO0Z6AWZfouqS4QDReQaYSbRWMWnEuIU6XZQgBlJQlyZ9EyIQMdnVETgKHCUlMD7eQ2Yug3+VyGWF/a0MiYw+NqMC3h5fiz0tGIqH37Zg0dzgq2Wj8nxuWo6JmJeZPJpkLSH9NYMcJP37xtt1zqGrIkS9OyTl0WfDSSRUBReCKINA5QfAVWZpeRBFQBNpD4J75t7720s/fnpo+7NtPfvYZO+o8JF0MQL2xfQAmXHMLJkwYwXRXgC79lUglwZkxewYys6/FLW4P0l2B831SJaolqTsJpxkvsTgZmRGnkUAdp7nZukMofZMRoOU70fTmTpxcsxWeo6dxfPlGNG05hPp9x3F6xWZg1X6E1x+BjeRPiJcUBYhfmBQaSDTN4qW263IO3lqAxQjin2arkorLLryYVFQG/Ti0ZxWaGmoI57k/s0JAY4+WV5SM84BkHx4aUIk/LRmFrKH3YtbMSXTq5/P5ebjhprvwxv4FeGtbBlsuhbG30I9/W9Sr8fb3PP7Z1X/ePIbvhWe78C50KkVAEbjCCGiE7AoDrpdTBLoagZz0tEqmwx74zJkjty3d/ae09050s4tkKnJyMnH40CFs3LgRWVlZ2LVrF2655Rak5/aDo8qKkekerC1OJveKk3i1tnDRg0lLIgcZzZ7TyDvThNVH3jARJ6vViuPrtyPN7sRT+5+kV5odVaFj2Btajxw+V1pbhXB2KrVR9AcjOUKtxxCkLiVHFwObPEmiY6JdCyVQR9ZWxwIxvWWKszlMQqrCstY2htVqR5/+Y3CwdDvCDVLMEMHjA/fciwmTJmHzug340ZoXzztbtH5z8xqwY3cuUvq9BxPHj8DWrVuxf/9+tqRyY8GCBbj+htvxxuJajB20Er9f48PH7v5/j7539rzHuvo9pfMpAorAlUdACdmVx1yvqAhcDgTsM8ZOO3N85x/TZHJLlD2UsgH2sGHDMG3aNLz44ouoq2M6ksNBjVnfBPayvAQuJpE0ccC3FtZETGVpFJuSlY6U9DSjl7roIJep9DaI7E18baMtjboyTBUHxCJfE20Xo3JSaNDaii183UO3/wMNEYsKC8NYMY0du2S2nnoU8sWoWEbGIL5+wJAxwUPubuqUqbj+xoUIE7ewIWTNrsoDnEwrF9UO5HHD4KdXmRDpO+64A3v27MFmas8WLlyIrN7jcPjUOpSzOGPmmAnPxHGneogioAj0AASUkPWATdIlKgJxIOA4dOro4MHROrtYHWN2dja2bNli9GNCytLS0lBSWgMfozEnmxyX7o0qfELIl+TbzP8pmhetWnuE7FKIYBxgdMkhcg/shWlbON409zaErJ5+bdH2Szb5mVGvlv0xJXp2yN+EXzz/N1RQJxeSitUE2oM4rHjhhRdZZXkAe3ftjrSWaiHWq/Sz4pV9RgMkY1ZWhJaXl8Pn85mvGRkZhr55vR7QbYQp53qcKC6azqeYA9ahCCgCPR0BJWQ9fQd1/YoAEXhl/Zpvrdv4V9dnP8RPahstEsJ1KK+oRsHQAiQkJJgP9czMTKYHqTOrLEIVQ1P7a9jb8lLSle8W5Gkqa5GuRELAHLQSIUk7O1ohnkKzTjF6djzQaCpZLUw3BnozNTy2P/66+y1g+5sMhTngHD/ovGICKTzdxurXG7JPY9OGtZh//fVIT0/Hzp07TaRsypQp2LvvMII16zGsfxPeR53adx7/3o/2nzy5ZUT//uveLduh96kIvFMRUEL2Tt1Zva93BQJvbV8/8WdP/uyff/n7x4Z97+YG9MkUB/oQFow9gX+sWwyvZz5SUpLhcLpQeLoM5cWnceToaqwlEatlWs0uxX49IVp1NXezOemK2nS0txwhYlYpjhCbDdHZsT1VOCcFrr5jz2rkDOzicREdQo6P1zuxPjOMG1yv4u3lwLwFN2Dw4MEk0jbs238Eezf/C5+5aRc1ZUHMH+FmenOD+8s/uHPZ+//743s+d/eDn587cfrG9tamrysCikD3REAJWffcF12VIhAXAlsO7rt2QvJrw77+wXR2BxLTUznNinEFdXA5VmDVnv1oCNOHjEKtBr8Vh2jSupGRmz2FIbhT2NuRLv0RU1RlZXEB3tGDRGfX5IP1NEOSDIFJE3epIm2VBHMbnA1+PLOGRQ5jPOjlW46XF3kwasQIVFXXovTkcnz2pu3o08sXsb3g+NAMF24bX5r4w9efmbrl0OyZfEoJWUf3SI9XBLoJAkrIuslG6DIUgc4gkGC3VP785AC8vLgPKwHPVf0ZJwpJXRqXeNo6kHD5pOrR6kK1I82QMXHQt9BB3/SzFJIQb6jM2GI0c8xRMnfxrYvp7C7m7SaQskuCWH+EqDd7sigbWSzAcIfXIaVoB5pIqO05fry2aQA1ZucXP9hIqEsLz+Br4y3VnXkP6TmKgCLQPRBQQtY99kFXoQh0CgF+NNedrHPiZHkC01/tdQZnMSTTYnScIAlLMR/+hgTQCyyQQ1Imtg/tDTGYrWmAt6TKiPetFKa7++fBkkRnfR2tIhCMFjlI2vGCESVptipPxKQ21YVwkhNJZfWodzlQnce0pClDJV32OhDycPNaDiHHfA9wKva90qEIKAI9FYE4/gL31FvTdSsC7woEaHcfhtN8aMeZdpTDmD4TEiZ/AKSFkPSaDDCd1m7ZJT/1QyfL8G+33IORo0ZizarVeHLnarhH9X9XgN3Rm/QFAvjMwjsxbeho/Pczf8SpEKsnpUBAhpAxcmhbRQN7a3pNl4QwKzGNL1oKe8az16ZpFRrbVtNtqpU95t77Is/H+Qbo6F3o8YqAInAlEFBCdiVQ1msoApcPgfbDYq1d25AyRsqoIWtOykwboYs4s0p2UgxOF9ywAHPnzzcVnH/fvFKpQEuMo1lFsf8Y0qsvJg4aRucLRr/EeU1YluwaU8x2RsKsFPwHcok7n5MWUsGMRATToxHHjlGsjh19+d6TOrMioAh0AgElZJ0ATU9RBN4RCMjHN7NdZ0kZNWUtPbVa5XIkGXv37oWDPRkPHDjQblDtSmJlaaaju5LXbXmtMBu0m5glHf4bGhpQXVeLgM9PH7Mm0xYqzHSkg700xWQ2kJvC5/yMknnYsYD9PIWMdU6X1zlyfjWB0msrAorAWQSUkOmbQRHo2Qi4QJNXX/BCg1IT6WIqS8T9MuQzPtRMEG5nqstI86WFUJrbRGraG2J6GiDJ+O1vf4fk1BTUVFbBmir9L9s78zK/LvfG9kdSqCApwCDTfZ0kNZe2UEa//IfOwFJEXKgZcxD0Px3/GZ52J6K0rBhOGr5KhMzvJGBjBiEkZIx42qqbWPGaAl8y2151tI1nWPbebMDV3oVLw07PVgTe5QgoIXuXvwH09ns2AsGwJfWWAbWYMraYROn8jJUQsbpGO7YeSkZplQvD8+sxdmCD0YmJsf4LJ9JwqM7VKXNYO/tSOp1OyNdI/u0qDPHwkluO0RASnUB2IuyMPEkqMGDSr1d6ENuGJgxIykBSarIhhQGK+sWYNz8jx0QTw1z38eIzJF7Go8REycJOO7wU80/KaMRNfSPtrWwkzHJ88yHtM6XnZfPhsFuwyVYb5nsh2qfhSt+zXk8RUAS6AgElZF2Bos6hCFwlBLzBUMLMtBJ8fSIL7Gj0ilh0xR5i9MqBP74xGgP6zkfO+BwcObwXw6vfwr3XFRoSs7faTbd+ErJmDhbx3ob0WRSSEaBo3YTYrvCI9KCkPL6ClYk5UeJlUrDnSJmNVaRnX7uS6xPvMbr720hWRUN2QV2kGMW2ArpEL6dnN+HbU88A9IzbdTgZJ8voIScNqcIWJNIMdgr95VIyGWULSPSTN8W/4EFvEN89UWPhe0H/nl/JfdZrKQJdjID+AncxoDqdInAlERg3qGDtD1fN3bvjj/tHfWNhE8b2p/U+P/BLy1z4zWskY6Pfj4njR5lIS8HI4Vi6LAN/feMlfOi6050syWOak6L+ubPnYvDQIdizcxde2LPh8ov6W/HwCmYmGkJmK5cUJYNDJvxE9CWtygpSU70opIxRsystdJPUruDUek/PtrX37AJKgmXDX5YMxmnvPAwaNDRq+WbBsdpaLH1pNT42fzMK8hvlRvHSZi/+sD6j1pY0bf0XBxVwI3QoAopAT0VACVlP3TldtyJABK6fei27VGP086tWfuXhv/3bj/72oUrkJtnx2LIRhoyNHV2AtWvXoKSkBOPHj8fC6+dhydIQXt34gkmJdXSYKktGd+6++72YPXcuFrFZ9nO713d0mriPD0tFolyTTb1Dya4LdGFCxCKkrFmkzMxOYhN9TVKYgVgULe4rX8KBBKmSzcArqyrJA63smCD9qRjUCgbhC/jhZD9Rf5OHr10o+bIzzbzrSBLOeOfg1ltvpuYvgFoSMRcLKFJTh2NXWiZe3VSKhwfsw8bDfvx8w7jyH33pFzdOHT5i68s/ee4SFq2nKgKKwNVGQAnZ1d4Bvb4i0AUI3HXt3F/vOvLQ11/d9c30uf1T4XVNZ2RsJLZs2YLi4mKMHDkSGzZsQHJyMmbNnIGVS3ahIe10p2TgYWqijh05goyMTBzczypLIU2XS04ueresBGNiK6GiUCLJTYsKxHOkTKJh5+vGzpIynn9FSBnXZs/Pgb2fA5+76W4cLDqFf6x6w+zwuAFD8Ynrbsdf17yB4tLjSGaD8VCLe7Gys8LpyhT06z+EWrMglixZAo/HY1LD06dPx5DB+Sg80AvehgP4+6YQHnr/V74vZKwL3kI6hSKgCFxlBJSQXeUN0MsrAl2EgH3G6ImnlixC+tRcGxISWb1HMlPH9jt5eXmmQfXOnTvR2NiIlOQ0ivrpdRXRlHdomKxgbhq+8ssf8LwIEXMO7XOWJMk1W4v8dOgiLQ4WwbshVnSyB3XrUk3ZMt96MeIVO1dI3WUnZSRYlowkpOf0xnvfdzdW7duBp09uM3c0cNJY3Pehj+BtXzE27+O9lHtahSUQojks2ylUV1dDtHp33XUX9uzZg8OHD6Nf/kDeug1+FnDUBVIwauDQyxeevJRN03MVAUWgwwgoIeswZHqCItAtEbAt2bRq7OheFgzp24hnN+9ASelYjBs3DkcYzaqoqMCAAQOQn5+Pbdv3ISfxKJISOp6yFH2aLS8Dtl4ZJlB1lnzxeYmcNTbUw+v3Ge2UaKiCLAt0OlhBSGLhYKpOIkLScslpdyAovlzxRNbkHDcjYzRMFVIWZvox7LywQfd5kTKxvWg2t+jN7Ext2qk3C7R4rct3k1hIBWVTUxN8XhZbSGkkR4C4NHmYPhXri+hzrV3byOWIUUpKCq655hrs27cPhw4dop6MNhnShkkoGdPGOe5arNu97T4evqbL70EnVAQUgSuOwJUvj7rit6gXVATe2QhU1tZm//7l55/ds+OPuG2caI0CuGX8Zixf+iIJkBWTJk1CdnY2pk2bhn37jzHltQj3XHvy/LY8HYWIZMtUCsZ6+4jOq1c6StJsGHPNZIyZORUZQ/tj1vy5KE+y4vqFN5hUXr9RBbiWzxWxYtDXLwNWpu3i8gsTUpZAEpeWYET8Fr80Tb9w0TFxvxzTMooWEOG/EEoxwI2LCXYUlMjxQkQr6mrw30/9Hn9763XY6UdmJxndcfwwPvOHH2Hrsf0kpK3/W1ic4dITG0mgS+Fyu010M8hQ5rBhwzB27FiUlVfBFq6B2xnCR6fb8bcXf/jpl9a8/ZmahoZWmlx2bv16liKgCFwdBDRCdnVw16sqAl2CwMtrls28/Us3PTku++TA378fyE4VH4QwZo2vIl9ZgVfeCGPqjBuRkZ6MAwf3oeToK3joph3Iy/bH04v8wjVKc/EGDxqLy02Ux0rH+YS+ubCQV9n7ZAOMnN1wz51ocNLN/+BBvHfqXKxFBT786U/i9Bv/xJCUXCwYMxlveGm9wYhRxM4+TiiElCWTd4hOS9KPbDcUtpMUtjj/nJifx4imLEbcuPawS9Kd8V4wznW1OIxJW3gDPizfvYV8lenHaFPx8rpqvLplDewsTrCmtW4ZFqT1xdRRtXh70Wps25ZlNGNDhw7jjBaUl1dj/Zq3cOOIY8Q7jFHUqf3yjlP4+XP3//YXfx/8CN8Ln7p91vURwZoORUAR6HEIKCHrcVumC1YEziFw6PSpcbcV7B/4bwvTSJAsqG2KvGbx2zBhJJtU29/G29uOoN6Xgj70K/vIDUVISQ+iupE6JHpbdXhIG8ZjJbhv2jwMpC5t+7ZtWHxyD1yiI5PoE4nDD158Ar4cEo7iWqzetRVV9XX41O++hwpGxTaVHMOiXevgZSrP2pkolZAyNt4214r6jIknWctxlpQxTWkiY5241Q5j0+wEIVCSlm0+hJy5HE6E+bUt+Z4nwMIFVwj3zN2NlzdWYcnBPPqZ2ZjC5C2EajG9oBATRlSjrol/uonByN4u/PqDITy6dGv+4dOnxvJ6SsguZeP0XEXgKiKghOwqgq+XVgQuFYEEu7Xqhwf64il/H4Rb0SWJjULA7mNL60q4g3b8aX0+I2NiNQqcbmQ/xQ5aXxjbCxKpD33wg6a5+HPPPIvXvhsRrRsiyNdqGlnt2ERKwlRlY00tU2xhlJSXmVZCAVZJNqS64MhIgKW6dVF7u5hIm6Q0FwkKI2WlDRE9mWjY3BT/p9AaIzqElNlLIs27Q3TB7+5D9mJRYQo2vFJgLEmEL3ucpSYCGOYtUuePV4vTESiihq/SA2sd9WkcVpsFp0ts+OYIa013v0ddnyKgCLSNgBIyfXcoAj0YAVKr+uIGO0qq2JCagu/WhgSijNt7A//bLFsnvSw7GqSKtf7Zum27ifJIk3ELNVPNhxA2S2WTiWSF8lLA/J0hDxZfyOi3rGwAHqJAHxYSss52XeJ9SBNuY4PBe7N4mT71UCzfjJBJVCwi/r8wRSndh8yz/Np89Wefj7yE1vhqyyWfPd/o6aKhOLlmB1Ojgm0lTWHLPJE/y7F9i2HLu4yQM36xVYRgr2aXBEnD8uGtZWwywrN1KAKKQA9FQAlZD904XbYiEEUgJJ/TkUhXe5/HUhZ5qbjRF4wi87/97W9IXfQSKsvKYU2IEZFz17cwWmeraiIRo6ErSZL4g1lrmKZsYFTHLLW9tca3zrCLhMvcE+khiV88QwhNRlMAjkauhSQqTKJYlRQBJovP2zzUtnFSHys7axl1az7kqAxq9GymZRRlcDR9rYsyMl9pNXz10isUcGekw57W8QbnwumsbAjf+ojunxAy7rfJ1Eah90aWr3/P43kD6DGKQDdFQH+Bu+nG6LIUgTgR6GyMKc7pWz9MSJk8xIahzSGRMiFmtKoIpScAQp7qL+my5uRYZMvwFokYtTaliVY1G9FQoESTXL4gbg+nY8b4+eaAzTs24alwLUJs8v0eXyobtU8mXwxhy/4d+Ie/Bl6HKOMi13Hxfu7OG4Qxo8cZa48N2zfhhdpi1FfXI78igIXzbjYmrotWLEVdgR02txQhXPo9xzmD/j2PEyg9TBHojgjoL3B33BVdkyIQPwKGecTzmX/JwbFmaxLDUhHmR5qLk2hdbBg2E821xX9fbR4phMrK+TxSMcnhJJGyUyd2Nj7GS/kramFhBabNEllbgITJNPq22GGhR1ivXrm49f33G81bUWkRTVp3mdxl79zeuOV9HzFeX+V/qoS1tJIXiHieyXMWktD8wQNxyz33GTJ64vQJoPoM/MRiNLshfP9732PxqA9b79yFXR720nSLpi2e3WkbmNbObiMeKqE9HYqAItBDEVBC1kM3TpetCEQRcMnnfUjycC0+uU02y1iFRV7wi5ifxznaTInFh6n4bM2ZNdtUWe7bvQcv7dsU34kdPSoWloqeJ/quTKYUPxBmayLe2L8aS1DrsOCDvnTkpqRiUcVR7CIJs+wtxPhSFhT4vTjWh4SIkblBR+uRQFX8/jSmNvOzjQN+TWWx0WD5xX4jOuT7anmew9fs+eZL93k9PKbEmLf62ZtShujoGhoacOzoUUNSzbnuzlNg2TE/q2YlNCdav5aRQNnC2DbGzcg7ir8erwgoAlcUASVkVxRuvZgi0LUIBMKWtE+NrMKCSeIE30zDJZ/l/MQuqbKjkoJveeV4gwv7/U7sqGf6sJNyMuPAT/HSvfe+n83F5+Gl51/AC3s3cvZLiwKdRUVSi5xfigCkMjJMM9jmejM7dWITxo01zbZf3PSqiZSNHliA0cPHYMWLJyKrqGvCvTd/EKcY+frN7hXstuTCnInXoHdOLnaveJbrz0NtdTHWLv2zITzVFadgk2gbSVV15Rmsf/Mxs5yqskIa157/J9Jmc6Ci5Kg5RrCoqSrmaTY4aPS6e9dufOlLXzLPnzp5CvYJ/Tu12ZSokXACd/SvxZy8emTZ/XTmFxsNaVAeIXkW4mBhpNC0riIpXbKzgYQb3FgdioAi0FMRUELWU3dO160ImChK2JHiLcNdffxwSo9HyduRiIV8Vjy9sj88tWORnZxpCFOONYi+9afRy1GEN4NORnKk72THYQzTYuJM4Rk2GD+KwpMnu871XvpAkogFMtxscdQIR1EdzV+TaQYrpCyyTguJz8mjW0hQqOsigRLLhzOF+4CGU/TDZX2D6Nb4/BNP/h1NIbZrGsSenhTev7liOdz0BbPlRewvJLrl9VDQxvsPhc4VA0hDb/M8R/Pnm6Mkz8sxQrxkHrMuXtfHVGVVVZX5OZLK7fgIMoKZ5QrgdzNOY2qiB29szEdp0wCq9Wsxa/ghTBvHFGrkihFBP7OpReU+rNxOrILcGB2KgCLQYxFQQtZjt04XrggAc8dPXvargx9/6z1/XjX34WtLceNYIRxhPL+2F04E34s5N06DO8GFEMXoQiAqK6rgXvkCHMn7sKgmuT311wUQS2FfiM2zv/6LH8L5Wyca2a/R2Y+ErzNUIHaOEBuK8CUiZry1+Lw0ARdSZi8h0QglIUTvsrPDCKjOXdAQoxYLMD0fo/zEvBrtoRmbI/JzJMIkqVCJjsk4+/z5lzgPh9gx5rot1iFErPlzHXmPRu4ojB9NLcLcpEb87LUpGDzuPbhmQD/i7MGi1W/jTPVi3HUt06WSoub/f/aGF68fG1ExfPA1b84aM+HVjlxPj1UEFIHuhYASsu61H7oaRaBDCEwaPpaqcszbuH//3f/50489OyzvJAZm2nGsoh8mzhzHSkgflryxwvRXnDNnDnLzstBvyFRk1+zCVr5WWOek8D3+SwrZsPXLRj3F7UJ4rDaalEproI7YWAg55EXFQ8wqfSXJi+ysxAxK028SM2uNh0E+GtrS2NVW3UTz13p2aWLDbprJhoMBDBgy2aQsw0xZhpnf6ztwFMaMGINnTv4lQoZIxh647/5zKUvm/66/7jqmLPPwXaYs5RiXO4nnjTPRvSOFm/hctSE5roQU9B3ACkr+73jxdt5jJOJ1jsgxL5iUzmPGmkbpB45toBMcKzR5zZycHFzH68j3z732CqovVoHaCuSSqpyS04RZjIz9/PXJGH3NPRheMNDo3ZKTXLjl5puweDGxWrcYt88uxUubvVhZdtOxv3/nZzN6ZWaU/PorP4h/I/VIRUAR6HYIKCHrdluiC1IEOo7A1OHDly6Y9UDd0r3fTHnwWntE10TR0YED+006bfLkyTh8+DDy8/PhcCcilZ6so20enKh1MUrWwfCWkDIhYfLXo0W0qs2Vk1CFEm0mxWgJ8Hy2NBJvMhnWBr/RRAnxksiYkDUbjWUNEWO/SiFp0ibJLqQswYm3dmwgiaQYn3YUQeqnNhzchf1HD6GGES8T50pJxG+ffxI+/uwanIEwj3t1/dv0aiMmfZJJ4oJITsvBlDkfMtjs2HsaofIK09IoNb0XJs/+gCFk+w6XIVzKnp3N4ogSVcvM6W+OEeK1edtRhMtOU9wfwIiRI/Ct//kfavn8WLdjKyqCjPB1YCulg8LE9Ca8uaUfBo+9E0PZx3LNmjUYNGgQTpw4gYEDB+LGm27Ga4uqMaVgMZ7dacF/ffzfHxIy1oHL6KGKgCLQTRHoyN+LbnoLuixFQBEQ1tA7Oy9c0+KjWbzCnE6nIR67d+9GXl6eAUsE/65o9V6n0YuXx/HaEgmTxt6BnGRYy0m02KBcWioF+bOP2i8nSZk4+FuKa+CX3pPUjlnL2IvzTDVCvdJYaUgiV1aHavqZPZshUrkQfBT/2xn5eyHVi2B9DckYPc+CNKEdkouTeTzf6YDLE+ZxYZTNHWyqEqVbQNDnR5ikqbGmyujOArSsEHyCJFg+TxOaaiVaxuc9kdZEzYf0qAxSKybHSIQsFKuy5EFNDY0oLipCgPP75NxmWda4MGakkqeixtsbM4YMQBHnOn36NK655hrz/c6dO3ETCVle35E4UbwcnpAD2ekZkZJQHYqAItDjEVBC1uO3UG9AETAIOFZuXpH6wUERbVFIokkkOAUFBVi9ejWWLVuGvn37IjMzEydPFqPWb8GBeldMOnVFIBSDWF+6C8PGjcL7Bk/Gb15/Dg1VHvz73Q/gtQ2rsG3/Ptw0YRqG9+2Pn214DX0L8vHZ8dfjsdWLcTShDp+7+wM4euQYXj6yFQumz8KEPoPw6KbFjJLZ8fmZt2HLoX14q/wQbhoxBaNy8/na63Se8OORee/FP45twv7SU/jo6DkU33uxbsN61P7xxxiR0xfHvbVodNtw89BJyKwGfvCHH5DcWXCqic77KY5m9hIU7jPatubgbhz9xXcMZkeryhEkKUxIT8GmQ/vxnvs/aBqBl3hq4OzLhusdSOUKST7W6EJBqAF1dQ1IT08319ixYwdOnTqFwbQZkXRrbU0FMgeFMDSjEks3r32Qh3zuimygXkQRUAQuKwJKyC4rvDq5InD5Edh++OCML/3qe4vstS/g+pHsacmIUL/0M9i5ax9mXzsVN998i9EhuRMSUFNTj+Lj21GWBhyRdOUlepLFfXdik8a0ZHAbTVhr2ATc0g/+Y8VMX1IEv+skAmcqEDhBC4msSgS9LELYeBi2QUxj5jBadaQYobIi9q48zQgaU4jbj5NI9kZ4EFOW/N7GVKPNeRrhE2cQPnkMDl9vWLLIirYdp/u+hVG5k3AcPoXwmSMkq4NJVP14+/hRbHcW4cGEbBwiJv6TR2HleUeT0/D47i2RbkwshrAO62OiZzGbED+/X+Gj6WwJmRtHmGRMXre6HAiO6odTXmri+LPd1S9SwRpvFJGHipZve00CFmSXYuu6ZZh7w+1Gk7Z161ZDxsaOHYtNW3Yjwb8WQ/p48BlWn378qf/97K9f/Ff9DZOn/WxY/gCNlsX9htQDFYHuh0AH5Lzdb/G6IkXg3Y7A39944fZHn/j3Rz84qbH/Q7NdcLioomIUxdtkw1+XDkG5fzwSEiNaLRHKe+uLUB3ehycDCSgKuCP6MQmqSW/HYlY0SnVjaQMrHh3UXpHosP9kgFovO9OHQTYEt7CBtxHiN/PLaI9zmD8yTDkGSGLsO04iIzUVPorznbSwMD0jSZDs1HfZSG4C1GhJKtBps5uvfh7n4PfSsNxH8mblPHbq1wKmbZMcF1HAyXFyvjjzn5sj8ppcS/RjVhI3f9TiwmHl/HxVjjWEjg9zHp+TY2VUUKzvu2cKrBnJ4rxr7lmqQEXbFrvnC/6Axp5oCxQ+H2Y0LphKa48SpmTZIN3sjScAf980EF1MTq/HvRZGEwPzMPf6W5GcQusPplO3bduN8iP/wkO37kNKqlSIsstAeQA/XxH0bTyVfuITH/juf913413Pv9t/J/T+FYGeioBGyHrqzum6FQEiUF5b0+e2UfX975ySjuNV1DRFiYC4OMy75ihOlIjg3ErBehgVASdWNNqx7KAFtK6CIy9iNdHmaIdpmZfFOyzmxWWsI84xkphHl0SR6JFFguFDcmIC8vr0Nn0wu/OQu6hjFWojHfdtzEFGulmeG23+S7Y9dipWGewm0OrgpA6Sxx17gqglhx6QuBUn/1WPcUMLUFpVjeKyTfjYgsNMh9J7rYHebBx2EsvPXQ9nyqqyggq+F7ozpro2RUARuDgCSsj0HaII9GAE3HZL9X+tTMevd+ZEojgtWIONwn02TDIvVVld8KYmwuHwwtFE0XmxRL0SzKOjQ67k4H9mOlPQJzXDRLM8TWL/ECFaUuXpTkw1NKawqgL9ps3AAEcafvvjnxky1lmvro6us7PHi8A/2enGN278GJ4p2oUNpw4aN/5LGhIdY+eBUFqCabhuBgsTWE3Ab1gu4GVPTkbfhOAec5Jg13uxvWobXj+5yxQxhNx+vPIMsTbGac0Go4ZVlRb8fJSl5pLWpycrAorAVUXgEv/CXNW168UVAUUAqPdQJ1XDqEnreqVzH96MU8HtIwmj31eQ/R2FFIj9BPN9NF51G3PWi45mLwshs5NYTR04DB984DMUynuwbe0z7A9JjRhHakZvTKE1hKQJn/7b77CDpMzhYKVlB0TuV3tzpQLzZE056n1NknG9tGHIGKtMMxON55qlkVgwOhkiQRNLDyFhjuJacw3pTuAgGbPWetFIQl0PXyQ+520rsmaBvAfk1EtbpJ6tCCgCVxMBJWRXE329tiJw6QiwqaGRaMU1LGx4aC+tQ5DEQD747SRktnrmLyV1GRWvtzWReIWFUih0b4w01BZSZmPUKCk9g0L6Jvqb0WTWGSENTvqFJbFKUAiZ05WAN7atRFNZNbJJ4kQE392JmWjWpDn5L9a9BGtOhtG4mTuWdKOALS6ucWJuGoO7W5CxRLauoibPXkEy5iOPoiltmCQ5SA2f6NSEjEW6I9GDLbYhbV1Pno+8Fslj6lAEFIEeiYASsh65bbpoReAsApFmivGOaOWfjW2JQmmuSMSGEZp2qwGNoJ1RHZrNivBfojrimXHqTCHeeO4fTEMGUMQKR6+nzqykrDiA+rqnDaE4WngCE4eMoFWDE5sKF3d7MibrF8IovS/njZqJrZ5SFNVWGiuMQCIrROlxZlKLQsqiXOhimjJDxqTrQDQyFmKz82BmQoSMUcwvbEqE/lI8YWOXAqsQ5HjJ3vn7fpa7xft20OMUAUWg+yCghKz77IWuRBHoHALkBUY+dhFBeawo8uznvETV+MEfcjOo0t6Hf5TEyXFCKoQ4hEgovHTTf6XqDJYteU4CPAwckQ+c1fSXI8TOADLqmfr7yLS7MT65F7a9tLRHEDLRxLntTnxk7BzUHlmNwuoyU+2ZXceuAtR8OWz0J6OhrBjIehglrGPRxAUwSmSMUa9ANskYI5FWpilDjIxdSMaihK2KqVGJPrZIDceV5Y3sfSR0qUMRUAR6JAJKyHrktumiFYGzCCQ67WGkOM9vdB171W5jAI0f1qIx8vGrjxWXsaxbu0RMJjFMj+70yUxH1rLfEr+XyI6kO4N0za8hiaimPYYcJZoraTkU8+0yKU0yQarV8NcVr8LJ6E+YFhfSV1NsHLrzEAuNOm8TPv3a71GfRNsNms9mkIw9mDyE7af64fjhLbQTSUVer2F4ef1bWOqlnr6ZFYhJUzJ9G6Bez1bNqBc7EYhmTFLFkiaORMZ4DPt5BlhUIUTX2iRkLMLGJPjmC1hICrm3LsFU9ldSvReiJqcEeByHpiy785tK16YItIOAEjJ9iygCPRgBXxCpX5tbj7uvIeHyCh2KDPlYt9Igdu/xJLy9tx+qmxLZw7sazswqLD1uRz0F4vb2ElzySU9CZiMBE22T0C2jbWKVn72MkTL2mbSkudkMvAlJ1IqNstFbi+dIpaWFhEb0YyeDXhTyyo0U/VfT1T67PVuIbrQXUmlZU1oGey4bqPNeLE207eA9Z2VmoZyRxcSkBH6fbQhmhLZGR4yMSWpXUpB1JKI83pAzSVvSy02GWI6ESGrt5UxdUp8XI2P+oAW5KQF8ZHwjJuT50Ts5RCzpucayVmaMaSEidbPRfeZFXS4Lnt1A6T/fC90IPl2KIqAIdBABJWQdBEwPVwS6GwKHi2oqkyzIHDuQwvyYvZc9hA3bM7D/+LW4YfZ1yMxIw+EjR1Bb+DKuv+4YvrEyGVW+tgMqFn66S+WlVAFaSUREZybaMclNCsEQqwZ5zi+kjN8nVjXi/dfegAGD+2HfjmXI6TUEubkj8fNnH8MxXx1unjQT/Sa48dwfH+8xKcskpwsPTr8Ty4/txh46+TdQ2P/XHevg2L4uSp5OA5t3otJYi5AZmbQxSbGzmR5MdHckY9JI3UaMYgURUhwRIpk1FZbNyRjJ7ohcP747rwG1ZdkoOp6D0xIZ49ROWyOmFxRiyuhqsjlhgHLNMDYcbcKOEw2n548ISwhThyKgCPRQBJSQ9dCN02UrAoLArdPnLmry/mT8p1984eF7hu+yPThHOlqHsH5HOl7cPg833HQnkhnJaWxsxKTJk7Dd7kbNiX/hwYmF+MFGewvZGT/2WUEo9heSUhPdk4jRLVX8me78Njr4i6BdhiFl7JVpZ3GAj0Qt4A/j6IkjqKgtRzkF7xUNJ1BYVI+GqC9ZosuFLPqQmXRmDxmy1szsLJImWoLQssJHE9ZDFwj1SFBFP2fc3oSvMkLIYgkbI4lSLRmWlkokY9Zq6sOkw4HsTgqJbgpTwMRTiG8sMibpyAQS6f+aWY99B0Yguf+dGDdhEO1C+Gea81ZUVOP5dSsYbVyCORMqQAkbvvycHyW2W6vn3TD70RuvufbZHgKtLlMRUARaQaDn/HXU7VMEFIE2EThdXnHNA/9z/4Yf37AVA9OT8IOXrsWc6z+MBFb4LV++nM2q6zBkyBBMmzYdW7buQnXhk/jL6QYcs6fCJSlJIQ38GqJWTMxLbUxJWuhPJt8HScoMoWARQNhFAbrYZTDaIyRNhkSAQjwmiURMhOtWaWfEVKcI3v0UvPuZbvPL9yVVyDxWjf79+nV7DZlEno4XnUb1LBKijFSTio1r8DjxGLPSR8yQMbGxOEvGqMVjqyTRjZnIGC1Imuv4fExFLhjahIdHh7G7+gHMmz+bRNePPXv2wEZMR44cgZKyWuxZ9zv8591b8NjaJqyu+9jW3//Hd6c77TYV9Me1QXqQItB9EdAIWffdG12ZIhA3An2yMg/dOueD3nVHN7osfdzI7DURvXtlGzKWnZ2NG264AUVFRQhQVD961DAsOTYQfZN24kgsyWUqKSnApwBd9PZBpiINaaDQ3EaNkxA243fGFJz0tTQWDRJQI/kQTZSF4v5akg8LG4M3DyKZaUluBmblIT3Lh2Mn1vSIlKWsWXpaXpszBMebqlFZV2v6aLY7ouIuk6YUMiaVk4a4koxlkIzxeZtYZsTIWDNNnXSTGpPrg8eXhkzi5WMIrKJCDHUdOHDggOlwMHL0OAQsaYx4WrD0UBL+/aGPflnJWLu7ogcoAj0CASVkPWKbdJGKQLsI2BLdbptUUjqY9vJSRC+kIjExEeXl5YaMyYd7//792duS+jCK7UMR59FIJSXL+kKpTKNVUYTOhuIyTCRMBOckXGdJmWjI6j3meSFlMkxUjHYNDmrJRD/VMqsnjb/vGDMdYx2Z+NqS9T2CkIntRSJbJ33l9g/jd/tWYsmBbdFm6O3uQ+QAkjfrWU8xkjHahIiHmyFjAWItRrysTm0+Qn42P3fLvkmG0ora2lps3LgRd9xxhyFjpaWlpoG66NVkfbC4keROqI9zRXqYIqAIdHMElJB18w3S5SkC8SDQ6PXlvfL2i/b/nGrD4HxGudavxbYd/TBhwgTzob5z506mvEaaSM2m9evRJ+sYCvexEjKRFhQkB5KuDIqVRZZYMDCqQzIhwn0hXcamgcJ+iZhJ1IeCKVNt2ZKUSS9GI1BvMUTV9tjiF4GKOkaGeo7tRa2nAZ/+/ffhpWlrAkmlEe7HO4QwCdHlKZLyDdsZfWRk0ULdnYj5JTUcE/jHpmRWEjtLHZjRK0QC5kNGBjsdkIC9+OKL1It5mW6exhZVkpkMwEXvkjG5lXhiyYvf5xPXx7ssPU4RUAS6LwJKyLrv3ujKFIG4EHj+raX3PfCdLzw2LvlNzBxKGwpbEA9ctw+/evl58oH34tprZxsnfUlFLl++AgOdi3AgXIvT1SlwkHSEoulHewlTkTlCyqJGptSMUf4V+bmS3IJRMInwmMiYOPeTtAkpM+lMscQwLZVaJy1NPi8CTY1IieuOusdBkk2sdpBkJruIQ+f+VJqIIYedAn4haIaMkQAbQT81es3hot0Yth2wYLM1gF6NRwjxCNx0080oLStlYUYSCVoG9u4/hgRbGZzuED47141PP/XzBV/8xXfWL7xmzv+7dcacN7oHcroKRUAR6AwCHfgnX2em13MUAUXgciLwh0VP3fXCi//2gy9eZym4cXxC1HpBGEAYJWfc+NPSUcjoO5+apCwcP3oQfd3L6bJfga8uSUetN9InUUjDOfG5nwSLER2m3IRsSSrzfGE/xeoOOT7ZaKOs1JyZptn02LJKxWArzqV+Vlo+MOU6jAyn4iff+wF65eV1+7SlGNdWVlfhkZ9+D0/uXoONB3czwyjVjm1yzta3WXR2oiETMpZKq4sYGWOkrDXuKoawOQkhXJOQhSlDZ2HQgHweF0lt1tXXo/DIOnx03gYM6C/trpi69Ibw+EYvnt9i2X/7e372nU/f8aEnL+f7TedWBBSBy4dA5/7Zd/nWozMrAopABxDw+Hwpw/vYC+xJ6Xhtt1Q2njvZTlI2dPghrN1bivpDLrgSGrGVbvNvrEuniSgJV1TCJNYLJh0ZjXyZ7xkVC+SlRHo2RoX9YoFhImO0vJD0m6Q4ZZhIGX+mUVarK7eT3Bxjz8smjy2ifeoBQ3hXIBCgzdh2VJ8pgb2W0cJkasFoWWEKLuO9DUlZslJVTjKdCyQy1gYZE1hsPL68yYqlnirs2bIEY47bkE6CJtlPmyWIKQXV2FcXwu6d3AvBnns4sHcyhvauHuH1+dUYtge8t3SJikBbCCgh0/eGItCDESAHqv752hT8aXemaVt03pDoDD+wpX2SBY1oomg8EEqAk0amMTJmjhdtv5AyEeobjRgjZ9SNBdnSJ0DfMVNtSV8yMYKVyJiwBomMSfpSfg7brKzObGQnxdbbITk4/1u7tiB4phxZFKeLv5cUHHTnIWts8vvwlw2L4cjJhL13KoK8b5sUPBjvsI6v3jQjj+rKLna2FHOKEu8YCy9OlofhknLW6Eb9szCJ0r4IEY4NWWt9TRC/m4zajq9Kz1AEFIHugoASsu6yE7oORaBzCDSYvolybiscR3RjvlAkFCbxKxvJWKtkIkrKHKV1Rkdmojm0bAiJsJ8/x9r72GOvS49K+mtJBE3SlYG8VOqsWidZ0uNyQt8xyBzsx86nX+/2ZMxAyXtxOZy4Zfp87KstRlEJo2RNpEnGIb8VrE2vqnNVk8ZEP3ZoDJaYbUZrOLWATqazy4Xo3M+s5EVHs1MjxnA6FAFFoEcioISsR26bLloROItAGDQbDfamXD6OqJMR5ksFZWtDWAAd94Vk+SUdyZ/Fl0yYhfStNKSMpCTmQyaNsqU3o/wcPi/kdv7kIRYUzBw/CKP7ZmHPs0t6DCFz2x348NjZeGzDMpypOU6bCkk9Ru+tZYTMF4C3uMIQWItEGKVkMsrIRI9mnidLc2anwZrCdGPzvZKIIRuRd3SY1GccEbeOzqvHKwKKwNVBQAnZ1cFdr6oIdA0CYSq7XdRmJdFcQsJh7Y1EOvHzw99e3tT6h7kRT9EUVUiZpCc5hJRZ+MFvmmNHjU5NZIyaM0lx2qLGp21d2kay9vjGZbCW1cFBY1qxchCS0p2HrLHO04h/e+xn8BEvMWdtdUh0MskB78kS3JU/DuMnTcDhw0fw+uuvw84uBeIfNmnSJEyfPh3F9IJ7fNkrCI8fcH4jcu6fXwh1Rwb3SSo3pSNArPUST+/eeeCO3J8eqwi8CxFQQvYu3HS95XcUAiy1Ey4W1Sdd5NYkjWZ8YFOpDWMEx2jDaBLb7AM9cvZZUkZNGSNjQZITEwkzvmSM7ojpKfs0GssLsXEgyWtvNJEr+IMeZMuBPYQ2SNqyuqGOnl8pplflBQsnoKKzC9NTLMRK0jvuvBPvufsurFixApu2boGL/Tt9Ph/mzJ+HT3/609i/dx/+9dZSNHKvzuvpadKdrYvSIrS1ldckmxnDUvCMYHqhCVx7G6OvKwKKQLdBQAlZt9kKXYgi0CkEEl2spkx2klgJKWs2LDQRs0c1Y/KR3sTKylqfzUS7wKhOmETDVFHS0PWCz3w5gQTMeJMJKTNeZJKejFRjhkXgTp8yaaLd3hCn/k/Ovw3DJmXgR7u/y2V27+iY3I9E8FISEvHjB7+KJ/euxepDu9gB4fw/l8Ztn6TNXkyMWPRw+NAh7N29ByeOHYOnkfo7kl0/jXCLzxRhH58/yPZHPhYKGDJm7DNiQrMLCVdALC0IU5oriERHpMoyyP0jlYvALREyV4hWI1J+SUuNRrP34sGrQxFQBHooAkrIeujG6bIVAUHAG7JkfHNSKT40qwmeZtIwK4lYk9eKw6fd8AXoyM8P8KaABW9XJeKNuiQUNTngYKos0CvFRMqMqWtLXmDCaaIpi0bKzmrG+DO/D4idQxzRLiFguxpLUdVQbmwvekqVpbSYWnNwFwobKmFJYKq3RRTL6PGiKUNnvxz89Jm/4Q8v/8tExep9YvwakYr99dXn8fSK1+Gh275PrESkr6V4kjG6GO2TdN6bWSxJRqR78R9jS5HPoFdFlRNuErOCvh6SQpIvCv3NoIbMJsUHbgueXFsH8up0/a1QBBSBnouAErKeu3e6ckWAVZMW/6pdNaem9QnmLxjFD/ho9KShzoY/rR6Bets0JCfL53SkFHNw3Ql8yLYLzyWFcbKBja5p8hroJVWUjWyHREZnTLaajeakjHqxoOjIaIkhkTPD8lrPtJ03hfyRWV+6AYGiCmT3JNsL9gN9bNkiuNPT4GLatlXuGc1kWpMS0NQ3DXUkYzZbIhz9iLkUtPL1evqZVUvLqLQkJGTSKkwihIwwRvp+RmeNfvGTbM3MbcCz80/gyIEUvLl/BpKzRqKJpPDMsQ346IIjSMxgZpKkTebweoJ4bpsXS3Z7jt0zzFKtvxKKgCLQcxGI489pz705Xbki8E5HoLiy1Lph9467//LaP/44LnFx2rduc7F1Ugh/eX0QGpLvx6zpE2hw6jcmp263m+asPqxaugjVyW/jl6UZCPCDPWZ0KoJ9eZz1a2gOnhAGEjDjU8Zcmqm+jHMEefys4WPR2+/AsiefRe9evbt9pWWYay6pKMetn/0o1tScxNGKIvKfNioh6cPm31+IcfUJGDxkEErYBFx6h9qsYoQboqv+AAwdOhTVVVVYe/IAbKPy2Ww80ejPmldbSloymY3hl990FNVHE7DsyI24fuEtyMxI4f4FsXHLLlQdewYP3bYfGalBVNeF8fGnrMgf9sl1t0yf97Wbpl37VpxboocpAopAN0RAI2TdcFN0SYpAvAj0yswVQdYzDR7v1g984xOH3z64DPMKXKhozMOkyUNRxj6Iq1evNpqozMxMzJkzB3kDRqNX9WoMSvFif1UCU2iR8IyQBDF5lWbiF9gpnI2U0Qw2MyHi6t9Cs9bWmqV10pDBgzDCl4TlJDXd3RRW7kPW6GDhw7QBw3F0TwWO1LDhuq3Fn8vYP2elarSsFp9/+GHc+b67sXLFSvz3N/6baUYXvIyY3fu+9+FTDz6IAxT1v+dTD6CptQpTzhWgX9y8vrXwFLnw5tGFuPGmW5mGbsDSpeuRm5uLaVPGYgPX9tiSf+KL7z2A369uwsgJX3/tu5/64q2/jPcNo8cpAopAt0VACVm33RpdmCIQHwIkD/J73Hj7nDsbth9YkjSvQDxKGfliSuvYoWPIY+/IcePG4bXXXkMVozRWmwMJ1CINT/Nib6VUTUbSmRKtCaW5EHCQlFHsLxql81KYUQJiq2AUrQOxdVncX19+AT76dGUzUtdTbC9q2Qz9wcd/AldGKrtCXfin0hRDsPCBoTBWq4bR2NCI+ro6NDU20ncsaCwv5KvH4zXPN7AXZasFDYIluxxYGgPoE/Jgw6FBmDFrARITXdi1azuS2Fj8EAsGhCQKKXul+BQOHT+OXSUOfPX9t3/7u/hifG8UPUoRUAS6NQJKyLr19ujiFIG4EJCPdFuDx5PUzCuenIkWZYzSlDKF1tDQgKlTp/JDXkxJq0kM2EypgqJ0tjyyJjC1lhgV6It7Br/3s1WQqcBk9WCr5Ku5oCrap7G12klTTEgi0TsjC25rMipP7I7rhq72QXJ7dpKwEcOHocziRQOrJpvL68Liyi+VjtKAnTduz0rBT/7wazzx0rOoqanBqYpSZngZOWPK8m//egqLV76JRhI1j4sWImKXEdOOyTTUgYkmL9wYRGOWD15nGlJTqdcjmSsoKDCRzR07duDMmTMYP34C0tKzacdB/Z+1iXyQvbB0KAKKwDsCASVk74ht1Jt4lyMQPFVWPn7Riifwoxv4K02iEKRuTKr6RowYgdraWuzfvx+zZs0yBqc+bwNqaJNw8CT7gdO131Ydimia6Pgfs9sKRyswrcb0te0hPTAt9CRz8cTejBJZmY6zkMiIBkvE69UsGigJBXDvzAUYl5yHr276arc3hZW7lRRvssuNH978UfxuzWtYdnQTnHTulxHrGSpVkqatFDsVOPIyUJTqRWGwDtZserz1GkrSxWPtFhSmOnFScLEmwZmYDcbVEHLLPtHPTSo1hfj6ScoY0dzWkIQh9jKcPFGIkSOHmH0TIiZD0s1CDE+fOoD8kX7MGlCLR5977GlWg/Zx2G3qQfYu/yOgt9/zEehA4qHn36zegSLwTkPg6JkTqf9c9tqv3tzwwv3vLdiJz84TUhXCy2t7YWvpXZg751qK+V0m3RUmQaosr8Km1S9gh20vXi9PgpXpSSv9xKy1jLaQYIjfmKmejEXAWlZdNgdQCEWDF9aiOuQyvfnFyfPQp38vHN67Bpm5A5CdNQR/eO1ZrA40ICstDU4WAtRt3I/8vn27PykjXqeKzyBr3iRUhn0shmC3AokESnGjeI8RHy9/DtG+Ikw/MhtJmWkefl4YjWCRZJnoY+wvbQxX85UWIGxFZVog8ftgKvHPScQXBlQh43Q+Rky5F/n9++DUqVNIT09ndDMZry9ejEl5r+POa0vgoa3Gl58NoMiy0D97wrU/vn3W/J8U5A+ueKe9x/V+FIF3CwIaIXu37LTe5zsSgVfWrnzvoc3/ef/v72BkpS+NSkXTxHH79GLY1r6Ijcv2w5WQYT7w5f9nqouxL1iClUU22ANekghqnUTM76DxK8X8FmqZTCUliVpktGM0Fn05RCJS11BvNGqNTHM66hqYUquAX0gH03uV9bVgWSAS4+i32V02SjzTChuqTGcDWwp9wxjFcvHe5rrTkOein1tNCUpoFSJcK8jenzb6tRly1fyfueIVVt128CpsTGIjjv+yD4yj4a9Fafh475NYv+ZZmsvegf4D+lOX1oQVS17DjF6v4+Y5JabpOHk2fv0BG9YcftXxl7ef+5rd/qvTXMqvuwt+ug5FQBHoGAJKyDqGlx6tCHQrBEwXo6RcvFiZRdH8OfIkn/PWtCDq7PtQ5GEUjMSogi79W5MSsb+ehCs3Ynch0THxIAswXRkgqRAnfseZWhIMuvHb6ZN1sSETkAAKdatmJOixg1th2y8EzIYwezsivB017GMZIOm7f+6NGJuUhx98+/+6f3SM92Oc+t2J+P7Hvoi/MeK34fBeIDURvVnQMHf4eIyfPg3BJ/6AJSSaZSRlgkFQ+npKpIyp2xgpC6UlIMT0b5tDtkyiaOL6zyH7VOO14ZenM9HPXomty57H4JQcVLHAwJNyBpYhwI5tvc66ZQj3c7ksqEmukMBmOxvWrd66uhhFQBFogYASMn1LKAI9GAG7JVz/7OE0POvpHTEcbTEiXXoiRE2E/JKN5DmRo0TAzz6MfrG6oI5Jvg/kMdJDobq9kBGti6Urz7sOqzP5c4lkOg0lONeKSTRlbNaEk94aBOmB1lOc+uXepeXTLmq46k6VwkEiZqHovohE9fVjuxDwlWP0MHbmPAgsbaxDGbV4EVJG/ISUEZAA048hRtbiKkltFjmUPRI3/uM0JDmZ1oBVIc7HTHIIDry6lft8wSbzyoUB3DA13H4fqx78XtelKwLvdASUkL3Td1jv752OAJlAmLYMwq7aSS/GiFhzRCSTmWBHwFRV1iHMFJtEyqxeSbN1VGJ64fVlSWFGyZYc3QXsO2VsL3pC6yQrCVmjz4tHlz4HV2Y6HGydJNHAENO6qzIS4T98BLcUDMGH7nsQtqeewNOoYhsrFjWwCMKQMh4XZkGDwbATaVpTNiv7JKSYETQZ4k7ilP+0HHzOF3m+oxv2Tv/d0PtTBHoUAkrIetR26WIVgQsQuPRO3UKanHSbZ19LexnbIjGFGT6rIWsFcfnsb/7RLz8zrBN2tfLnRKI9/gAmpvVB/oT+2HB0cY8xhnU7XZh7w43YUlXICFgVLA57pEMBm6xvyE2A8+QZONatR5EjAE86bSoIiqOEVZZU24smLNYDNOwWS5F2yHLXvLEjZaA6FAFFoEci0EYvkB55L7poReDdiMClEzJBzRhvUe+VR2JBMiGVg20+mNqU10TAbio0SUBMJWE0kmPIWrOHeG7NGTcZ75+xgNYO1JddGXJySe8FSa26aXPxifHXYawjG5YzNZG0Lo1zxXBXSNnqtDAe3bsWb3mpuRPXN2ktxegifMTFF0CIujwhuBaJNl6Z2FXXvBcuCTk9WRFQBDqLgEbIOoucnqcIdBcESKakKbVU3rUcRrjfLFUZ40mtLt1EvigwN7qniwzJorHnpXiQCQkTLy7x0Yr0wYxUczYf4lz6+Gsv4PGKOtilyba0GmqtfVB3wZPrsHGN4tR//1M/RYAE1JKXxsoF9vpk0YOkJKURe5ik7DgbszupuXPQ2FXIrLj2y1fT6YAjSAInhRIBKZIwzcTjv0mBUohe+/z1rE0JXWp1KAKKQE9FQAlZT905XbciQARY05iQlxRAXgYJQtTyIgZMxFEhjLJqO60omE6jMLyW0nNfwEpXi4swg4sxACF4TNuJRsoQjqwkWmdQuE9yIkOqBU3q8rzpuUoa0obp5UWf1A6Rkqu7ybyJevqsiTzPSWsKkipbCe08KNo3OjGSMhdxCLCvpzj2R1KUjJCRzMUMYyU0FqRXmVhimMpVp2DTPivzkVwnstH4wEQfv4qHXAQJ86XF6RaSwJKqgLwXtMry6r5h9OqKwCUhoITskuDTkxWBq4sA2ylmPDK2GA8taACN+Rl5iqxHOvtIqvD5VX2wo2YiErMzUF99FMn5x/Gm342NpYmtC8QvdjtiBEsSIhozIQXBbPqX8XjTjFxIi3h1MSJkraO7f7MCA6lW/Oy8OzDGnomvb/9a6/0cry6MF1ydLYmQkpCIn33iP/GnDUvx5vaNsGUlI8gqVIl+RUgZCVqt19z/OVJWR1KWEomU5VCTF42UiYHsWU1ZO6RMyNgNfevwlRFlGJvCqJwJgLFggPgnulnRymrZGEHjZeBgQPO3b9aB7wWG6HQoAopAT0VACVlP3TldtyJABFITE2r+vMV+KBxuLPjkTCdSE/gJbT6tw/jn8j443Xgz3n/nfCQkuFFUXIrNq17E14ZtxA/4+sZSRnYuFilrjrCQMUaLTO9Gzm/MZKN2GUK+QkkO4/Qv6Tnpfxmmpiws7YF4rNVix5L9W7Gpni2aQkGTsuzuOjJJWXr8Pvx6/Ws44KsG+qabqKDwTFP8IKTMRL0i6cvzSJlJXzJSJulcIXAU+kvNpETK2iNlknq+a0AN/qNPNVavK8AGSx/TKF6Gz9uIMb0P0KW/CA5Gz6SQorQ6iD8sDeL1XfaDHy9wiTGsDkVAEeihCFwZqWkPBUeXrQj0BAT2nTg29g8vP/1S2eHfDvr9h8JIYF7w6bf64GDtbVi4cAFKS4pRXl6OYcMK2AvRh3XLn0Vyvx3438JMeJi+bPePgGmRRANZIRZsD2TIGPVQQr6MFQTJVzCTVYXi1dVEb35qroLpCUbwb8ghLxDgV9/pcmRsP4PeObnwMWrmYM9LubZ8b2cjbisF/2IiKy2eHBTUSz/M2HFCStiz0bhASNNvIXaiQ5M5ZBIf7TRsnMMWnUOaejulpybnlwidnQTLSsNa+V6uGSkuiLx27jwSST7HvpAm4neqtBiNE/PhSmPEK5nRP96XkDAhmxLxspF4mUihkLIa3juxCbD1lJBWsbyIpC95NWIk/S7DrNKU6lUbcTGaMhZRNE8/SuelnIQAnp16Cm+uuwajp92N3nlZ0kDckDI/q1VXr9mA0WnP4a55Z1BcEcbHn0oIzZ79n3+6Z+7CRwry+2vbpJ7wC6trVATaQECrLPWtoQj0cARGDhi066ef++p4W849WLrHg9OlbuwoutaQscJTJ7FmzRrToHrp0mVISU7ApJnvQUNRb/R1055B6Em0fU9bX4VkSYpOyJhUDkrkS8xjhWjI9yESNLuI/En2REMWIBmT160UwUv0yErTVCfTmIk0Nq1101XeGkC//vk4zerEE03V6JvfD/XJdhysK4WdbvjZvXvx+zKU0U5i6JAhqHAEcbixEpl5ObBmpJBolpIEOpHTrw+O+GpwnO2NevXtAz9TpvKaMy0JeX1742igFqd8teZatYlWM2dqdiYSMtJwsLGCjcAbkJ/fHwE5r7EcjtRkc40jdRU4Ul8BDwmY201iSaJk7kOIFEX8FlaVWnm/QsQEPmkOLo78QrAkihakpsw0C5d0peSQTfqS50kjdj4fJLmT4gDTZkkIW6x9EvV9C/rUo477l9F3KgYP6oPCwhNYuWIZtm5hc3OSuWnXTMH+4gEIei34w2ovZs/+6j8f+cgnP61krIf/EuvyFQEioIRM3waKQA9HgOk/EXOn3nPdnVXrj4cp8HYir/dAJLidOHr0KIYOHYpbb73VRJROnz6N3NxMVmXmok+IJKqB5IJEqs1HHdOUJBZCJCQqJITLpCVJJkS8L9opIV4WRtAkciSWGbYKvk5BU3OyIRBb2RPSOmkwxt+5EP/3g+8jY/Z4JEwbge/84HuY+PG7EJg0ELd/8j585ZuPIDB5IPq9bz5+/NOfYtA9CxCaXoAv//fXcOvDH0dgYn/c+MAH8NXv/y/sc0fDPXU4Hvn2/8O8z3wIAXqd3cY5/utb34T9hnFInTsO3/3hDzD6/tvN/A/+x8O4/4sPITCjAEnXT8D/fu//MPuT70dg2iDc89DH8W9f/ypsk4fAPmUoXJOHwiJ6LxlR/ZxUkkqvTyFXct8mChYjZWwOLuRLSFmMgNlZBGDynELKGBUTHOURaUhO0ioO/0L2pCdmtRd90MhonxspaZmoqa7Ghg0bMHz4cNTX12P79u1IY7QuTNv+Jha0HqtJw20z5z3aw9++unxFQBGIIqAaMn0rKALvDAQcx4pOZjA4hV6ZPpTvOkmR/xQMHjwYx44dMxEy0W716dMHJaUVcIRL0FDipV0D02nt/bOMebxQihtBPiT1xjxfJCVHUb9UGlpJ2oSMBVhxaatqpC+Z+G61ngh12u3YdvwgvvzEr1DTSK0VU5T/8cSvcczawGbZbjy7fjmW7txkvj9Wdgaf+t33cDBQxdSkDd9f9HdUkv9I1OrVrWuxpvgw2wmFTdrxG8/8GcVOPxJ43j/XLsPi7evN3HVs1/Tlv/0Kh1hf6na58OjiZ83zbqeTthYN+NLjv8CZcCMbsCfiH2uWIpHni5+Y/O+CEU3dyvNCyiQ1aSOhEqIl2jCJlMU0ZYKDtE4SQiaE1hA30ZRJv1CmOoVDh0jgjHVI9FKSoq330xKElm7ylBDoIYwQyqO2ttY8pMtBhB+yahZNKK2qLOCP694Zb2G9C0Xg3Y1Au/KRdzc8eveKQPdHgBEy68HC0x/++P9+5G+/ueMgxvZ34K+v90ep5b2YP3cmiRnd5TlEX1VT24h1K57DsILN+PKudNR4bCaQddEhVX4kABL5MSanZHB+6XnJNKTx42IUSUiJRI+sjf52TVDFdFU0YEb/xSGECvT5snOukGjQ+LotyUURPC00aMhqyUuFjSQvWMfX81LgqCEBbGL6UHRcvLatkpEq2nuEuCYndWwhieaJGKwXzxPC1OiFpXea+T7I86S3pyWDBElITwUJJtON4PUsxbWmmlH0ZRcdQlCZMjVu/IxyiS4sKCawJGVGU8Z1SPRMhhQ6OPh8iKldwShS/iqaMkYRm5ExQ/KYwRyR7cPDQ0nW0h/E+PFjzN69/fbbqKmpYXpyNpJTMrHqjd/gP+5YgxWHm/CLrdd5/vLfjw7snZnJbu46FAFFoCcj0N6f4p58b7p2ReAdj8DWg7sG/f6FJ545euztyZ+ecgJ3T6UHAj/Y6b+KPy0egBrne3DtrGkmOlTMyNjGt57HLRNW49f7nHh6LwlMnM5V4jUmGjJhbxLlER2VEDAR90u0yMYomUTK4m9IHt0aUd1HqxFFd2ahy72wmhAJkojo7cV1xl7CSqJmIdkzESjRq5EYhkh2wjxXCJnpMhCNWpl1CsGRdZGESfo0RpJMKlXmFxImnmpiZhuNXEl1qE2IVDxN1YWUMe0oxQtnSRnndEgEkZc3/UBJME1FqjwvOrMWpEw6HLT0FKOjBRYywjnJMhULb3oPnC4nGhsb4aCPm9vtxoZNu2GteBwP3npYjDDw2xUePLN/ZOPYgpnPPnDb+/97yojxp97xb3q9QUXgHYqApizfoRurt/XuQGDl9s03pdf8ZvLT96UigxElljOaG3e4wnjoluN4fvUzeHvxAf6cBn/DCYwafgR/rErDPyrS4OjFqsB4/kkm0TGawYrthdFBkQwJcZHIkGilbIxcGTJmGml3EHepwGRlopChGBkTkifFA1YhWpdlMCEpETemXKVgQb6X9KNfiCaJp5XeYnGUnrLyNEKoDBFkxMvGSkuZQ1z7TZrSRMpooivP83vpcxmzvRASKKSz5RD4Xvc4caTmIKpffA4jBw6FXaoz+XxlRTlsjevwyYUnzPosJHufvd6FOybsT/z56xvvf3vn0NU87I+XBTKdVBFQBC47AkrILjvEegFF4PIh4LJZm1bW90PJjlxGxc5nQxLosdGvqsh1AF6fEAALjhzLxpl6h3Htl/Rcu0N0UyI8p2hfBPwWf9SVPxqRkucNgeHP4kvW0SE6KlmGabskQ+YV53uxkWCxgZQdSfVi1D2jo9O3fryQGSGVItCXa0kRAomZkCqJxokAn1UPbV9LzidxEyJnUrQcRkdGw1whqsZ7jIRMtGLSRknIrDwvZM08bxz9JX3JE1u67keveigtiDOeg0jZeejsMWlJfgzPb8KOXb0RCp5j0k52EdjrKcX9Npav6lAEFIEei4ASsh67dbpwRUCybeHGDUWJ2GDLOGfT3wIYC30bhJyFG0iu+JrTRhYQBxczlYUkY4ZAkLgIK5IKSiEsQi4kjWhSfFGBv7lsPPM2W5+FFYgxp3+TDpWIG+0lLOJhxuuL55lUKZr0Hl+XFGXsGuGYZURn3ghCqhjhkj+AUowgETKTsiSpklQpXBfP5Ybc1Jw1SqSQRQwkZRKtCjLSJzo7Q8qIj4j8pdWSablE0hopAGhJyi6MKsaoVj0tQurIV2M/n6GMf3ch19YSY9GlFdXjY5YwQdOhCCgCPRUBJWQ9ded03YpABAHTbNGQrGZNxFsFp73Xm5/UzJlfTF+FyRnROp+XFJ01GmEyZIyEw0TKSDg6SsjOXtJo0yLpUKO9EjJGgiOkyxjQSmpTInRNktqMdgIQ6wjxQ+Oxkd4EkUeMwLT8+QJMeE9CyoR6iXeY0aaJnYVE/C4yhHyhmtWdUjkpNh/Gg43kLBQhrnb29RRSJno3MY81jv5SBGHSlyRlxr0/1vtSImWtp3pba6Jga+1JPueLPH+RsJ7+uigCikB3R0AJWXffIV2fInBxBLo+TWXsHeg/RjIhlYRicWFMToWMic6K5YCmmbjRkDUjY3xdvMpEW9ahIQE76sbOzsuTA4YEChmT60auI/5dct0wKxzldRPVokhfhPDCR20kakZEz/OFZLnE84vRtYsCxKWKFsxEuFgk0LwHZ5v3wAihEFAR6gsexnvNFBrQDJZriqRBo6RMiJhJU0aOlepLIWYSNROCey592Qn93YULjEcR2KGt0YMVAUXgyiGghOzKYa1XUgQuBwLCP7puSCpP9FQS1ZFm4TR/FTG6IToSoaJ2yqQtTXqRPzNdJ8J1CUtJxWGYqb6IwL9jw7jfM8oUi8DJ2SYyFnO5l4gcSY4YqgbEbsKQsajfGcnYeIsDU5P642B9EVYGazGYyci5bvby9FSymXo1HbsuMqK2HpKybG8IwZMoXSCL98rzYkTrHCljgQDxMWlQkkchYCZSFtWUGbsQ0eQ18y+LkDJps8SrdzDl22K97d9AezeorysCisBVQ6CD/5S9auvUCysCikBbCLAhtY8i744+xED+vCE2ECQbDlpNiKWDceU37X8iZEzSh0KKzllfMGJF8X2EjNGCguTNuM9L9aGMdloynfc6dVCi3ZJ0npA+c92YxQZJn2i7LiBj4igmmjI+cpwJeOC+BzEsrw8XE0Qio2rvve0ejB4wmPMxiibraY3sGE8xmtqyYbhUXbb3EOIUyqDnmKyHkboQ2yAJoQolSH9LRtjktk3VJo1hqX8TAhcjZULgpAIzmCbVlRF9nqnENASY3RCMs0jH91H2HXwPcESB118VRUAR6IkIaISsJ+6arlkRiCLAWr+UcTlNGDqghpV35xiHqbCkrshm5ae8aJ4MUxBOQhNTfoAH+QG+qSIBJU32iDGsqTxkyo2EIZTA5t0pJGPUOUka8TwtFw81aUseK270QnLOtlQqJqmQBtuiBTP0gNfuSBJNjmWqNEwNV5ApzDAF/mGJtlE4H0hhCrN5ZEwmlpSpiOSlWtLrxaZV/6TxbZlpIi7msru2vo6K8mLeX+TfnWE306JixhobkioliZT0YfzRKZLTWGWoVGWSxJmlEDeJfskwbZC8JFlCyqSbgRjmSqRMChZKz1lf2GhwG7ESiQj9g8R70GAHxmbxngU6av7szMXKVxmBUGTvWg4bm8kf8tIQFxbeiA5FQBHoqQgoIeupO6frVgSIgDcQTvv4oCJ8cSHJkdTYxWTd/CA/UZiAVXty0RRINYL/MKM1fTMqsGBKBdyJQbxn2UAsOpUKp50f+iQqYsIaYspRtFT2UrrySyNsRnnEiT+iIYuSMR5rbCqEjDGqFaRuTKJEQsaMtxe/SuWhPG8E8HGm4aQNUkp6GpJ7J6LK2wBvRS0yAnYk9uuLClcQ/qKqSJpSImNcp0SXRHuGKuGcFLZ7GbViB4AYCfT7SFKkC4CQU5JHY2khkSkpGpA5otYdYTvniJHWeN5VMb2ZzEvSJfccZoTvrB7sPFIW1ZRJBEyKERhJk6IBkxIW41qeL22QBOfAmUbckliNX1xXGSGQjHet3p2BA6czkZ7kwZwxxexDyk0WUhbDlGSMgONnnlp5L6TEs3w9RhFQBLonAkrIuue+6KoUgbgQ6JOVderXrw7cc6KmfPR/XW9BbrrI2cPYfTgFT6yZjZFj5yA3I8PMFQgEcODEcex5ZQk+c8se0cqbtKIQL3sRdWLUa8Wc54U8GEE/3eUlaiZpS/HUEuJmBP0kNJLqO3c8yVs0WmSlZYWYvdpJgsTs1Yj823G/F080F9N1//eej2D6sDFYsm09/u/pv+B7H/sCJhaMwMubVuO7zz5mBP5hRvAkqiTFBrKucDgEh92NSTPuJnn5B8LVlbCQqIyasBAVTasQLi8jJCxMkHShRN0k9UpCKdWj4QTaSLBnZIeHkDIpYJC5aGAbZBpTIoUm0pVLXkTCZKVhrsXDqk2Jyom3mXQ7kCEcKtpkXNKtgpdEIU0EM2rs6yfv+ssbg1AWvhFDhg5DZV0dfv7qm/jo/E0YNpDEkz0vLfzrvfWoDz9/2117smro4c9OzdrX4fvQExQBRaDbIKCErNtshS5EEeg4AvcuuP2Nqrr6rX945Zk3PvOv/5341/uCSKV/1ZLtAzBx2k0YPjTfNBb3MqU3oH9/DBzQG2++6cXGA4VMh0UIgojMjQ6MURqpDjRtiUguhHBJKs5oyETAz6+RyBijS0z/CYmQtJwcbyJpjDQZuwfx4xIyRqIhuioR/7dl7RC7Y4mOJdYE2MuxL/qnZmF4bj+40pNR0H8g+qdloyC3r2n4bdoVMcVoTGijUS3ps1lNBrP4tVdQWFFhSJKXr7391gqcqCg10SuTFmRkzM4CBfE6E02cjelCiVgZwhhnFO+8HZIIIVO7QjZFOxciwZP7lcpQY4khrv+sxmx3NMtCSnoy4Lfgz2x7Ved6D26af60J+Ekf0pzsLPxlOfDx60jKBjVh94kAvvRKv5ovPfDDT981e97Tbz12e7uX0gMUAUWg+yKghKz77o2uTBGIC4GMlOQypuxufuj00eI3dv8e90wiMbClIjc7E8eOHcO6deswaNAgZGZmIjExETkUvlfWJpIjRVkIyYtJpUnjbQrMhYxJhaXxHZM0JAmVabpN8iUkyOiuhNAwMmT6SzI6ZAT9lUzDsbpQUnIi7A+LSF8MZWNmrhfRk1lJahp9Xvxr/QrsP3MSa4oOocoVwjNr3sSo3v2xcs82I+APSXGBIWNRaOTbFDe2+Bux/fBW3jeLA5hilU6PvyvcQ627FV7RfEmKU0gZqzNNZSTnkQbhxk0/h2SS6+8UKSOnDSU5uJhI+ySJDEplqujaRPCPeAhZbJelqIJ7smhtb9Q47sT8OTNx+NAhZDDCWV5ejv4k1NfMeT8eX+HHVzM34XerffjEPd/8sZCxuN4oepAioAh0awSUkHXr7dHFKQLtI0AyJuV9GdPHTA2f2vl7Q3uMVSq/KyoqwvDhwzFt2jQsWrQIU6ZMoeid6a6W5EgIjhQFUFdlyJhEvijoN9YWfClCxvh/EdKLUD3aTsk0+CaxESuMYAb1Y2x3JLYXQvD8kroTjVMHok9/efNlhFmFGCSZcdBO4w9LXzQaKwmG2ZysZJQ0JUlXrO2TcErRsTUxchZ5TuJoTM/ycfaYZjcrRMzG84WYScrS6N8oppf7lDV3SEsW25qYlo5pXhHpG081Vqt2dC5Zd6PHikOegZi2YAoqKyuwbds23HLLLahg5K+kpAQLFiwgSZuGg6d2osrnwrSR415u/x2iRygCikBPQEAJWU/YJV2jInBxBExHpAOnjloKKEWSERaPBY7s7Gxs374d1dXVqKMOKSlJWiDVRLhCaxErpvusJGYRQX9CJF0mbvhyPCNUhtAwFWlIlwj6Sd4c5YwykZgZ41aSKIk2ieBeyF2HSIlwSBKxUGoCnFK1eLQYQS+jdmJUSxIZ5NqCxWXMmApBk9AUU6h56bAOzDH3GqFi50bLn2OvGO2YIWUU5KeT/Emq1hA0RrdI7Dq05makTObsSFFpa1sa467NCbPPx9QvdW5SuGDuU4oJGPlLc1biaNHpCXxqh/6CKAKKQM9HQH3Iev4e6h28yxHwBYLORWtX/2LDxsdw8ximycTuAnVMc1WhoKAA11xzDbKysnDDDTeQkCWjtLQIGUlNrEi8yK+/BLYY6TEViUIEokawNhGpMzom0SQj6BciQxJliJu46EdbKRnBfUcqF6N7KPPaSfh8xZWYltwbP33wy3jk7gcwiNGgvEo/eh+uwTVNyfjRrR/Htxd8EJn7yxEUh/52igbOe4tIRIsEUooUrGI9wVRtTPdmTG0vlVV18v0ocCW5QxiacwLr1m82ezZy5EgsW7YM9fX1Jsp59Hghqoo3o6BfEz44KYQf/e3//rrzyJHxnbyknqYIKALdCAElZN1oM3QpikBHEVi5bd2E93/13p1PPv2xeT+9vRy9MkiE+Ft9/bjj2Lbhdezbfwx2B3VjOX3RQCf8Vas3IVS1EjNHVtPX6uLMw0jMTFAm0lfSQl8xq5AuVl6KVkpMYkX4L+RL7BtMlaZYUbg7mfprFm0K+P0YO2YsHvjoA7j7fe9Dn759kMVoXyYfBUzBfvj++3DvBz6A1JRUEsvOVUmKxivQO8X0sxTiKREyScVKlO+KkzJGHwXXsN2OW6cXcR2v4q2312PMmDG48847cdNNNzGFWYO3lz2H98/YgeQUP2YPd+OhiVvw1Z/cvf1Dj9z/+rLNb4/p6PtHj1cEFIHug4CmLLvPXuhKFIEOI7D14L5rJ6Yvy//KLelwW1zweE1uEcMHNuBerML6gwdRGXJGNGVMY6Yn1OGeG0qpx2Jz7Dh5jCEKkuIrqzVRMxH0S1sg8fEyEa1mHmXiWN+ZyFjLG5eqwsKTp7Bl8xYUFxejtroGjfUNCNN1v7y4FNs3b0UDU7CNDfQ/s+R2GDdzQrSYIdAnxXiwSXNxaYlkZ7GCqSyl7ceVGKYdEzcjTD2b104TWXsIH7/5GH776itYzorYcWNGoaKyGps3LcPd07dg9JA6eDxibwLcPdGNBaMr8aNXX7hp59H5z/Kp3VdizXoNRUAR6HoElJB1PaY6oyJwxRBwO2xNPz+Zj8VLe9PF/Zx63gjxaWshuqNQ+Jz1gt3nxG/X9TdO/cfqnTS7j0NxL75ZAbYfkgiYNBMXnVi0kbjYPRiPMj5vqg07kaZsCZas2ZWVhqVHd+Gtz3/S6MW81FHJCDIid6LkAFb/z5fMvXn7UtNGsX+nryukjCQz0CfVVFyK7YdEyiQtK9o5IZ+XcwiOYqQr10rgVry+2YJdh3KpmQuTXJOEHngDOdvXoIERwwZnDbaupW5vtWjmzkU3bYyunSy24z8nWcUgTocioAj0UASUkPXQjdNlKwKCAGNUnpO1Tpwqo5q/g6k7G3OS8sEf7xCPLbHFMIJ/4zLP6BQjO0HaRohVRkeqKS96TZIki4MtnUb0YxQvEsazi0ZMInL90oz9RVOU+FkZSTtruBrvjVzAALl0ce1nP0tpAi4kUwimFC8Y933eX4c0avGuo3nGWGR6rGAtsblwpjYygWkFmhTAEVRzffKMA4eqWXTQcvBAf2O9yPziMD2Ld3F6nCKgCFxpBJSQXWnE9XqKQNciQIYUjka64idXnVqCEISmoCFfpl8jm2iHKOyXVkvtkbGQVEr+//bOA7Dq8mrjz13ZewBhhRU2spcsQZbi3nVba6vW2lpbbbXz67BTa2u1auusdW8QBATZsvcmJEBIGNn77u85701CCIGEcBOS9rzfdwtJ/uP9/95L7uM5532O6WZ+hjmaNktVLwox2V1Zo1nkXOnvKAKNOwzlZ3LNajFm6sjk+LMp7q8NQW4ru0jbM31JoekwQoyWH7TxCHiVMVJmdo02iVy9J1mcPmMka5V2ULQY8TFS55NuCLWOrkus3qo/7kCFVwSxX2uCg7c8eiUl0OIEVJC1OHK9oRIIKoFa3bKDet36L1alCCTNJsMfYvovnVlo8cfd2SA8rdRN4Xh6zWDaLLkZHRPxJZGveob/GOu7eD0nXfB30a8si2IwusCF3nnsZQ4vdnd0wBVOH7CmCKcqKxATHWM9mTjuy+YFsPWRQ7zKpENAE3ePnvIoIlBltyqfRe4nprJmNICyBVZYb6EElMB5IqCC7DyB19sqgSARaGRpfpDuVvcyDQgfERyxTHNeVOpD926pTMtRLJ1Zvp0QJvVMWYSW3NJb6UbywSx8EGFHCN3w75x8NbKOHmEvy1VA+LnXfZlWUIyY2fKkTyU7H0RyU4NEykSUsRNAk2vWaj+T+IlJqylGGatFoEQdz2GXKtuR61ACSqCtElBB1lZXTuetBAIE2CuIxUNefrrXZ2MhH/qsE5NMnthcSMmYvXbdGL+WhuFiXyH1YMEevDPCWXMWFRWBkOgIFNHnq4JeZo0SZaeZTCRFWDT7XCbkRyG6ko3M+XApKVZUeIkiK0gmYrIZIpa7LKsNZKWdVFXzcA/bQzXZ1b/uM0kfTIoyuZcIP7ESMWJQOh0w9tmoPRKiegNrr4Is2G9gvZ4SaEECKshaELbeSgkEm4DXbwm/JLUYwwceha/WLkuj1KpKrPYdDkOZk3YVoX4cZHX4zsIwU3NmdmKyVkpql4yXmOyelJOCPKqszFDOvpclNHXt339wVa3XWeYVKV48bg92sK9liIOiTmraqubqcLhht3MnaDDnLqKM3QjcIspY7C9/N2a4VW2ifFHc3XkuGlauL83Spf8nI35WU5PHmjLabrjigFFd3RiVVI6kUH6/qvOC/Mls7UnDxvZU62zF5R6/JTaYj6/XUgJKoGUJqCBrWd56NyUQVAKspYoaF3MEj4+gw7zUdFeLMhs/7MtteGl+D8T6RyA6MQEFufvRs8smrOlUgme2JXA3oXiJ0aGM0RipmRL7Bykub65RyeL1Th07Y/y4cXC7m7Yh0E7j1KLCPJQU7K7Z+CiirLg0ksa37BjQpOKxMzyxpEjDaYRLA1n7kVL6oIk/GQ1kyUvCV6bV0rkMCmCpw/OGUIgx9eqnaHXEh+CXA7IxMo4CtIzXp0+tj/cKC/FgWK8iRCUwEOapUqNiKEuu/5dRGOHy+ljZr0MJKIG2SkAFWVtdOZ23EiCBQd17rvv7yot3XPfctv7/d2kl+ncSTy6gtNiKv89JQ0TKdZgyeggcDodxel+yIBqX916E0nZH8NLxODgoNmyMyEjDcGkmbkxRm2tQQ4h3mMfjMa+mDLPzsu5OSoqSRYtWo7iiDPYoiqemXPhM54goo1h1i4Es68jE+kM816QXpptdCaTW7JyGCetR6PGakqJ8ZOAxdCxPxNLjF6FTai9mTQMbIQppjjvvoxX4xsVr0aOjbG6w4IM1Try4tsOhmOhxW+7p3nPFOc1DT1YCSuC8ElBBdl7x682VwLkRmDZy4jpGTy74cNmXcx98/TvT3ri1EEkUJS8v6IHIjtdhLMXYHrr1Hz582LThuWj6FRRlwMgOy/BJIlB0tNIUlPspBiwS9WljQ6w0ipPC8VbxASCKflxsdh7sIJlBIqJJvMraRQW6FFjr3wV6LvjErHdAZy/Gxviw8ugEzLjkErPZVBrDS2Qw7oI+2MLI5uy1x/DgNTuxZIcbz6wbmvnUw3+9eEivXvvf+cM753J7PVcJKIHzTEB9a87zAujtlcC5EpDk1TUTLvre8GF3YuEuJw7lhCHXdyHF2FDs2rULW7duRXR0NLZv346oyDCMnjATWVld0QOM8EiBOovkz6kWqp4HMHXmko47x+BRY9h4mXatTAhHJeuvGmjP2ZjLnf4YY4shtJvnoXyc/IXJZSgrjkBK1zQjxsrYGmrz5s2YM2cOMjIy0KtnV5S4O6Cy1IrX6er/8O2PPyRi7NweTM9WAkqgNRBQQdYaVkHnoATOjYDUDkX2794buaVAfokDsXHJjKpYkZ2dje7du2PkyJHo27cv2yt5Ecvdjl5rIsKSw+BlyjLYYkweJYyeYxHcMBDGhubNPmSnqPSDNMazbXtEcWOCbFVw2ENQUFCAtWvXYurUqSa6mZ6eblLPFhrjulnLVuKJQc+OXfa07SfW2SsBJVBNQAWZvheUQNsnIEokfPWO9egUa0HX9pU4cmgHiorLMGDAAOzduxfvvfee+VM+0LMOH0WkIwtHvQ5jgxHMYSJi7Hs5/JgdP+g0Dj2yZLNBkG8SzAm3qmtxFyyL+GVfBbcLICwsDEePHsWKFSuwb98+xMfHQzoSBLKnVnSOKsLGPTunt6pH0MkoASXQZAIqyJqMTk9UAq2DQE5+Xv+n3n1jdtaef2PmwDAkJbgwpd8azJs7B9ExcZgxY4aJkI0dOxYHDtE8df37COl8HJnlIZB+lsEefvoytEuKx823zUJIaAhFxIl7SEG+lWLiXF5Nbo8U7AcN8vXEL27psSgc5AbUssKj9G6LxqRJk8wmhrS0NAwaNAi5eawn8xcjNNSHO8dY8Nzb//fUR8uXXBfkqejllIASOA8EtKj/PEDXWyqBYBH4aNnnl9zyw0te65ecFf2vr9kRFcbCI0akZo4+zujXfMyf68dFk2egY0onHDyQRTH2IQYO2oafZLRDpZv+WsEOkcmDifms3YOk2AJjQ1Etx6ysKSspLUVhEZtlU6Sd+EnjaIgw8VLsFRQWIEQajVe1Omrc2ef/KGnK7oumvQWtLWrsSWpNSzZrHi934G1HBEbkfYWE+ER07toVMf3jzFF5eUVYuexLzOyXDmuID4O6OvDUpRn40zu3v3LpfRf99Bs3PfrgNZMuWXL+n1RnoASUQFMIqCBrCjU9Rwm0EgL7c7IHzui9P+k7M+Ig1l61XStGDS1EiX8R5szLhs8Wi0rnYST0OIpH97fH3sJQhDSHGKvi4vNZUV5Jp/taAbjoyFBkHz2Id9/9t7FyONvYnMmGMh1qs5QjoV04ilrJGjRqGpy8tZQ+Y3YbG5hzpybr64wVf51hp4BdWxyGTGsJdiz/EL0iYxETElCeNn8JRqdlon+fEuSLPxlH707hePEOf+RT87ZccODokd78lgqyRi2IHqQEWh8BFWStb010Rkqg0QTC7ZaSP+7uiDfdHU190Skf8DSIrYjMoUfXMVSEWVF0MIGRJUuzijHZhFhZ5sWOnZXweRgHY2TM6/JQSAGdU7gT0st+jUZinN2o3uRotVLoMVLmrHSiMkbsJ85W2p3dfYN3tLRJqjRRPrcRZdyBIUa+dWDIE+US1tJoJ7Y4stEhzMOuC9L+yoIFx+Lwi8/jT5qSheL22P5s/KyfhRfUoQSUQFsloIKsra6czlsJBERNZU6ZA0cKwrhbsn6X/YBTgx9W/ti4ZzVD3Vj1YsilLWy+vdWVi5/86y84FuZFAdN0246UwL83M1BTdo76yQg+irGtfjdKw0ODvjGhWd9YnLut2Gl2hHrpaSa9K+3Hy0zT8toNPgPFvRYUumjo6ySzM01Koo18D/DS3EGhQwkogbZKQAVZW105nbcSCBBwi8CS3pRBiRSdo1iSCfmpmA52DscBKi+LNfArZlWHaOyUtkBe9gE6x61EIvqcUVYUhEcbx46zjbSd9zcOe2Na6fYvosyTyDZMNJqVaJkY9JoGpLXWQL6U6NgZB9fe1dAx5/2hdQJKQAk0REAFWUOE9OdKoHUTOLUQqYnzldZJvrCqXwnnKMxEJJndkFXX8fDvx6NCg5ZclOtbRfA18VnP22mcs/QOlVZVEhkz0bGkSEbNKtgrs4T1ZdEMoZ0sys5irm0Ox1k8mx6qBP7rCagg+69fYn3A/3ICRvI0Rj+d9tNarCiKKmFxU5DFMgXIlJrUfTXqoo2EawTaueYqG3mvVn+YoGVa182ooUTG5OVlylKK/h0iytpFw+84wb8xa1v1zNy+qUMJKIG2SuAckwdt9bF13krgv4YA+xOxfMy8LHVeAU1lXvwfl9cKF9vznPQBL2KsxGlSaD72gRQx5o1nPRptJYKqyP5rcAfpQWRBGAmTHZf+CDYqZ9NyX0QIfKF2/p31di6fWSuX94SMrn+NZc1rlipo0dIgPaVeRgkogbMgoBGys4ClhyqB1kbA7beEf7N/PqYNYz1SVXwksGnPTy8w1ha5xbtLpJUF2eV2LKTx6DK+pP5ffMGsZS76YrkCYozCzBsXDj9FQTCjY62NWauZT9W2Uakds3EtbMcpythb1MXWSGH8+9WjfBjfoQIRPlp9cDdGZLiPaykrazkpVeugA8aC9QVw+61xrebZdCJKQAmcNQEVZGeNTE9QAq2HgNvjC4+qOI7L2nsQFsl/zrSZMIOBlQ3b47B2X0e24gkxuyxj+KOrreUY3LkAL+TEwVVMOwWmyXys7TJiLL5ajJ1Fkqz1oGjTM/GypkwiZn7WlCV1DMHzl+dicIQXc9emotDTkeHPMvTqtQ/jh+XKrokTVhkMZB7Lc+OL4kK/yyNNl3QoASXQVgmoIGurK6fzVgIkMHnoyM9fOfjAspkvLJjwo4uOYuYgMQz1YcXmBHy0ZRomTroYMdEsFGdqUnzKDh7MQtKuj3BLYiZeOsIm41Fsn3RSZEzF2Hl5YxG7h4LYYrXhqTEHMSrWi2fmjkDa4KsxqGdXlJVV4POli3G0eC6unXDMiDJZqT/Pc2L+oUEZo/qNnzPxguELz8vc9aZKQAkEhYAKsqBg1IsogfNDYGjvgel+v3/SxvR77v3e7+94tmfyAaS1t+GrvakYP34yOrSLx65du1BQUIDu3buzH2JvFBeOx3B3Bua38yM7m5GxBImMBVou6Th/BDysGRvdg43Zk4C/zx2OgaOuR/fUjjh06JBpLH7JzJmY9zlTmyvm4qpJR/HhWidWFl6W98av/jShXXzc4d/gZ+dv8npnJaAEzpmAFvWfM0K9gBI4vwRoL+Ef2rPXZ9Mn3IHFu1lIJoX7tnDExERj9+7d2LNnD0JCQrB06VIUFxUhOi4JMQ4HBoaWwhVbLcbO7zP819+9EVrXz4TjoJgKzF/bFb0YGevdKxVr1qzBunXrMH/+fBQW5mPG9Bn4KvNCHMoKxZwdofj+zd/5Y3JcbPZ/PT99QCXwP0BABdn/wCLrI/53E2CETAz47R0S24E1+mZIQkv+r7i4GF26dMHYsWORkpIClytwgJiN2hPoC6YF/M3/5mDkMeDv1oAqY2kYu0qhzNMB3bt1NmvVs2dPXHPNNUhLS8PmzZsRFRWOjl36ICvXgQpfJJJj49PNcutQAkqgzRNQQdbml1AfQAkEDOsXr1uEPu0Dn83Sr1I+/7t27WoiZAsWLMDIkSNN6svPT/0ilw27y8LO1TRf0TeCgLWowpjB+mJoJ1KtyeqRUPKt9LJQbsIoZSSzhDsrbcjMzMTatWvNnyKovdwyW1hwHEkxPvSIzcVnXy19tBFT0EOUgBJoAwS0hqwNLJJOUQmcicCGPbtmvvTZu5+EFn+Iqf34oc9WOiGWfBzMysHggWm4/PLL4Xa7ERERQbsLPwqOZGJDhQ3pFaG0W2hELq0F8MssvLR38NXqx2mh/YMRlz6GjRgEstntFJC0fJAOAI0YPolMMQ8ozczlfCsFjnyPFzRfy7CxiN7GXpDNNjhXi9tPS4syY/4qdXpWtpCyVLLBepjjpLo9G6OWm4rDMaPdEWxavQgTp12OHj16YOfOnejduzf69++Pteu3Idq7Ej06VeBb0SG4+60nRvh83rd3Hzrw3T5dUjV12WwLqRdWAs1PoHG/2Zp/HnoHJaAEmkDg1bnv3fLaWz/8/VVDyjrdNz4MNnF4p8g6nB2OFxaMQEr38UhMSgx88FPwZGbux5cH12NVtBMlPvZUPM09HYeK4ItjBK2QvSdpx+CL5O5NijkjJGhkakQF86NeemiJd1lTNwS4KZZEjNkovnold0T3xA6Y0GMAKpiu6xyfZETa6gO7UeF2Yfn+bSiurGBatpK+tZx7lWCr+wheEWEUdtGhEWgXHYcxqX2MiJvQcxCKKstQUF7K6fqxImMHDhYcw4H8o+ZrK69pp0A74/Ay1cvek34a50qTcHfnWNbrme7tNNWtNL5u/hAbjXY9xttNhFh103C/nZ5wbCguFiMWGvF6UmKqUsYnRDF95TA0oQJfc5TDWToBE6deimjWAsrzbNy4FXn738N9s3YiOpoik/fMyfXgb0t8WHcget+tN/72gTsuue7zJryN9BQloARaAQGNkLWCRdApKIGmEigoLe0wrm9Fp1ljErC7JODYbyI/YX5MHr8JX+3MRNZxelxx5JRbsYs+ZRspqFwUYw1Ij6ZOqVHnuZl6kxq3C7v3w9UXjEMPCrHxPQYiKTL6FKF1//jLA/Mvzkd+eQn+tOh9fLhlpRFXIbYTv8Lkeh5eNzEiBt+4cCbuvXAWosPCkRBB2496hojBIyUFWElhlp6bg1fWLMDe49m8v6VhYdaop6x1kIPSV0QcHfm9dOeXwKTpXdmRosxxYoerg1GyjfnhyIu0oVvxZmS+X4oLuvfCsYJCHC/ZiFunZCDLa4c3V+xNeA2ees8MisnFhb34Xuh2ttPS45WAEmg9BFSQtZ610JkogbMmEGZD2Z+2dcA/SjoZn7HaQ9KR1SlJ0WlFjChVWJiiE8F2ujuZFFugA4/fRhFhrDCCG0j3cp53j5mOawePx/ieAxEVEsZI1XHEhkVgafo2FFWUGZGUQHGWV1ZiRFtkaDhGdE5D//Zd8fLN38cjF1+HX33+Jt7a8CUcFGUS4ZL/+8GU6/CdiVegS1wyypyVKOS15h/cgBJnObYfOWA87p1saTC8Sxo6xibggo7dcWG3/rhx6CTOSXYw7sLfl3+KL/ZsCp4okywpuXoYHZOImbRJkr9Lu1B7DkVZivSuPFmUZZWF4BA7LWx0ZWIORbVbFox1Yx9/lcqo4cmLZ2Fkr/TAYTzZD0Vn/QbSE5SAEmg1BFSQtZql0IkogSYRcJWzPZLTyX/KdQRZ3auZnZVnuoVk3ijG7FLvJCalTKtZXIxkmb6WwRkinBys5Xps+k3ontABaw/uwaHC4/jZZ6+Z1KWHUas9jFKFsx9QhctparyeWx5i0okioqJDw/CLS27FwJTuePWWHxhx9cGmZSZ990OKtD9ccTfKeZ4Iqx/PfhmVTHWKEJPasQq309TQRfIa5Ux79m7X2aQyQ20OPM759ExKwZWDxpqff7l3ixF4JzcpOjcGktr0dIhiZCzQUFz6WFrhDIgyNhqXVGd16lfqyWRUhFpQHlp1X48Nfq71KYNsvIHvS7GcDiWgBNooARVkbXThdNpKoPpjWgJY5gO86kO8SWREjDGdKULBy9oniyvQVslEboI8pIheRJNEyn7/xTt4f8MSWO2OqihXIB4nKc0Q+R7/XmmadPqxeO9mUwe36fB+pCV3wktfewhPXf1NrMrcgc6xyfj5jFsp5g7jm289jUzWhR3IO2Kc76VPpNkUwL+LthQRJ2P30ayaDQI3/POXuGnkVLxx+6PIZ1Qu2GJM7ifLY0QZhZhEyUykzKQvKcqYvnQzUka1elI9nlnW2vzrW2N+r6oHubZOCvJ7VS+nBFqSgAqylqSt91ICwSdw7h/C8onPYnVbbpkp3rcwJ2ZhW0QPC9YtTg9sRSzsD9KQgvvU+PboypSi1IB1jOGGA0apRKSFO0IxKKUb04sV2HX0EFwUTpKOlJoukSUhkkLl11mFuTjIKNojn/wLb93xY9w7bpYRaBEhofjRpy9hye4NsDLCFiJdt2sNiZJJ3ZgIvYGdeiCSqdKtOZkmcuZmTV0KU5jFnNPQzj0p3FinRfEX5GxtwPaiSpQ5qkSZm6JMNgg4cooDhf51RFmQ0OtllIASaOUEVJC18gXS6SmBBgiY3JYp5m/AwcIEiuqOKjHmYJrSZ2wYKMaYpvRw9yRVElOYwa0fk9RjFlOUEsnqwRThURbVh1CISURKombpudmYnDYENw+/CGsO7MH8XetRWlkOO0VUQJhJbTztKyimPtn2ldkpef+4yxATFon5FGKzt62Ggz+rbY0h1hcejwdxrEmb3mc4LujUHZuz0rGMuzblnnJZmYNsGpDztmRnGOEmc22WUSXKRIhJlEyEmRFlJdxMUE9NWfVGjdPO5cS6V9kCN8us9aJKQAk0M4Fm+o3TzLPWyysBJVBNwGpn8X6k3YcIFoHXfUWH+BAX5mHtlcektVxsq1TzAS/6hvE1SVP6pJel1EzRrsGTRDEm6q0ZeltKTVYp67dkV2N8eBRuGDqRkSoKMrGdoBjKLSvGm+sX4x8r5phI1Qd3/xTfGj/L7KZ0sR6sWnvIsRW0wPiIuy2TomIZ9bJjzvY19Ftz1YgxEXlyTgQF2r0TLjPRtP4duuKFlXPxLuvO5F5yHbl3FOvGbhk+mRsLIk1K1EtBFlwpWucNWytS5mO3BBFmXvqKSU9REWU+pxcur9WsVzjXNbKeta1ea1l7eQ9w6O9z/b2gBNowAY2QteHF06krAdpXhP9k6HFcP9bJwv6TQ2QOmx8Hj4biy63JTAOySD+iDKUJHnySE40SbtuzM3Jkz6WnFgWBnwJMvMVk95+k1IzyaQZFIpeU3aAfbV2Ja2h3IUIoMTIGJRRXcj/xFgthoZfsuvzp7Fcwqls//N+lt+Gu0TPwm/lvYvb21abQ3s6NARLa2s86seoh5zCsZb6UGjQRW9cMmYBHL74ex0oL8ficV7CeUTdxwJe0ZfUQ3dkuKs4ItyJG4xbu2dh80bHab9laokxEsUTKpKbM43WhfUkRbp/oxvSOJUikmJYonjy3jz5l0oTcDKkvk00J9AJ+Z2WxWJlw8XQoASXQVgmoIGurK6fzVgIk4PV5LOmZBV7rAJ9taBcxbw18UMPhw649UVi5eggGDLwYSYnx2Ld3H8KK52DG8Gw8tKEDirKcrFeSRuQ0WS13MU3Jz3Opem+GyFjtxbIy5SgF+nnlxZjRd4QxbN3HmrEQCqLqYQxa+VpzYBeufPEX+PaEy/HiTd/DAqYwH6OwOsSifdlVOqhjt5pz5O8fb1wCF+ffNbE9nrjsLlzcewj+b95/8OKquawT40aBOnVlcrKXUbSJnMOUtMG8327zstXyN2vWN1q1KKMQliiZP6cMfXvb8ezoPJQejcaONT3NxgTZ7xlmK8LEAUfQqzvNZiXcaXSZH+szndi6pyRnfDcPf6BDCSiBtkpABVlbXTmdtxIggasnTHvL7n+m672z33vk+t4b7N+eHGidtG1PNF5bdiEm0QqiQ/tEVFZWYkLniVi2gvVVu9/HDzofwc9yEliLZYetlDsepWasBcSYLJoU8B8tKcQbTE0+dNHVuH3kxfQd2469x7IDka9aQyJZUoz/5BfvGo+yV255GMu/+yTueesvJk35nYlX1hz93UlXYmPWPkaQfPgXd2DmMSU58x8/waaDe+GQIv96RJZE0gYyNXrHqKkmqiapUhN5asl3V5Uoc1GUReaX4rcXsHXSll60HpmFHkO7s34u8Gu6gOawLyxdihsrFmN4P24A4GbR77/vwSHfzJ2zLpvx1LTREz55qCXnrfdSAkogqARUkAUVp15MCbQsgW4pXcQM9PHc4uI3b3z89q0jun7FnYoRTGENxjiKnfg4FrvPn88P8wKkpaVh3IUjsXK5H6FF76Jrkg8Hj0j7oyh6jTVPzdjpaEhq8i9ffohbR1zM6NRARskGYvexw6aeq26vSvlaomfr6Fl2yT9+Sv+xh/HRN35u0nhh9hM7KZMiY/HuXY+btOf8XRvwzbefxhEW6oewRq2+ETCT9XETwWCaz/bHukN7jVu/7Oxs8UFR5uW8x1wARHvCUBE+CVPHj0JhYQGys7MRGRmJfn26mX6kizYcwPA+m/Dm2krkhd6U+/bjfx4R6rCXt/ic9YZKQAkElYAWgQYVp15MCZwfAonR0Zm3z7q7ZP4uL9IPhyMyeSRSu6Rg/foNCA0NxbRp07Bv3z4cycnBsOFDkFuUis5WJ1yJkVVirGXnLVEysa94nOatstPxz1d+E7+77OsmNCWRqvqGRMsOcRfmEwveNsaxtcVY9fFinSGC6lfz38AR7uasXStW+5rmHrzXE7znE5ffxX6Wx/CDj14MqhHs2RL1sz6sX1wlikvDkci+nk52GliwYAGOHDmC1atXY9euXYx2JsHtj0NFuQWL08Pw7eu+8VSI3RY8X5KznbQerwSUQNAIqCALGkq9kBI4rwSskeERHul6JJGj6kiTRJfk5XAw9cdUXk30idEYZzSbgps05fmZtwinfzJFKC2QYtg26YahE3AfLSw6xSaa3ZEe8QGrGvI84ksWER6J+1lPdqYhxfw/nHI9InlNOUfOrR5yTRd9x7rEJeE7E640OyvFj+zBD57DEmmXVCdlGlQyjciDBjpVcdMC05TFxcVsIh5txPSAAQNw+PBhfj/Q+Iq2cVw2G8JDwyQypr/Hg7pQejElcH4I6D/k88Nd76oEgkrA7fXb35z/VvyEnjb06lyBsuOrsXN3BoYOHYrOnTvTDsKNkSNHIjm5HdauXY+Y6AwcctHbqyE11ggRcS4P4mBE69kVnxqT12TaVzx9zb2mNdKEXoPQJT4ZLlpkyEt2GA7t0otO+j/CVWxv1NC4nrsrX731EQymAayxv6i6To/EFEzuPRS/nnUH/nzVPewC4MKd//kzPt+5nv5l9ac2G7pXgz+X+nuPF5YS2oSdgaeFjvsbCiJQRu83H4VkXFwcRo0aZaJjW7ZsMesofmp+2R3LnbAjOpXitXnvP8n7nydJ3eCT6wFKQAmcBYFm/nV7FjPRQ5WAEjhrArlF+SFLNqy7580v3n0m1fIZfn8Vi/RZArUzMxIvfD4UYyZdgz5p3c0HuTShXr7sK0SVvYc9yZX4867kQMul0w2J1NC93+L2wRcuvTJZ31VJQRBBIUeLDEuZ1J9FwhvHSNs57MyUon0Po1Y3jZjC9OHX6eTfzkSJFjFi9THNX7sltMMF7F0pdV7ixl97FJSXopTO/iJ0okMjEMcIWu1RQhuLZfu3Y8fRg9hP77Obhl1katakbdOmw+m4791nsJbmsiLGGtW3kqEpez6tQhhZFHd9N7sZSDskma+1uBJWMpGelFb6ufnYgkqaiRsRVmUjIh5vvlg+Qz3YzeZYWpV8I6YEPUNmYNzFM2kR4kVmZqZJO4sg25eRjYNbnsfDV2+hVQhw39sWRHW6Le/qCTNunTlmwryzfgPpCUpACbQaAirIWs1S6ESUwNkT+PuHrz8w/9Pv/vz+Kfak6QO5w9LkK3kdmoWmp0fhtSWD0bX3VCQlJSJ97244nAtg61WAx7Z0YCSGwuF0goyXseVXsJ+l7MCki7y0VYpiWyUKjWALMnlqSS0m0Y/s6Wvvo0v/ZANCHPbLXYHUpdSchbGGrLrgXgrw/7lqHpbs28Lm5LlG86QmtDfWFXeOmoZhjKbVHbX7U8o1n1z8AX4x79+mAXmjC/kbI8jo6yZ9QL1JETTdpSBjG6oaUcachBFlMfWLMnEtibV6MbooGrP6j0OXrl15Ljsm8AGLS8qwZ/ty3DhqCfr1LuY6M77p9OG9jS688ZU3a8blTz14/9W3fXj27yI9QwkogdZA4DxsJ2oNj61zUAL/HQR8Xp+jc2pUkj8pHh9liuQ4MeyMtqQM2ocvdxSidDsFQFgFjWF9WLqxIyNEVQ3J68MgBq2FjPaIGKN4sBZVmMgYXVybBZqIMUlHSrPwIZ16ml6W72xcik8ZHZMWS0eKC3jrcLxz52MY3a0Pnln2KX4x93Xk0zzVylorGwWLjB1HDmJ79n78Z/0i/PyS2/DAhCuwI+cAvvvBP0xELJR1dL3Z83LWgFGYyrTlIzSMHdSxO77F3ZiywaDRoux0FIQb2065GTG0sgeoiDJPu0gTJZMoY7Uok6gj+7jXGymTJyny0actohzp275Ap902xId6jSGszerB8F552OOwYld6vJmFNFSITbWgc05BZ6/Xl9AsC6QXVQJKoEUIqCBrEcx6EyXQPAQcVr/z7zsS8WJJF2OUWnfY6EkmUTBfqJuF4A646NzPc4wZf71DREWRk+m4yiox5jTpyeYy5vJwt2MviqS3bv8xerfrZNKI9zONuCpjp0mDSprVzzZGNw2bhBFd09hW6Ut8/4PnaVbhP8XOwiEF+XwVVJSZYxIionHd4PFoFx2HNxlNA9OSn+9Yg+dXfoZL+o3Ak1d/y/z58s0P44ZXfsPG4uXGMqNpg2JYNkgwGmanAJPomJUpTWtJwOPNxo4I0iP0JFFG1vVFymQGHj7KvjgvMsDoYFUUU6Jknx1IhGd/0slTJCPXISv+Mchf0rS561lKQAm0BgJN/e3TGuauc1ACSgBwCoTq3uJ1/5Q2O9IT0ePjP3X+PYRi7LR1CiLGKCJshRXw0g5D/m5hKC1QIxZ81LL70cYQz+9oOyFi7EDBMdz4yhNYxZovh6Qn+ZJjbqZpqxTgi3u/1IN5WKBvnPxPM+RnHhbrS5QtlNd49voHcC3NZ6VxuhjEyjU/3rwC17/8GxwuyjNu/t+bdDVbFjEK2NQhux7ZnF1aT0kBv42pShFbDGwZgSuRRulTWbvWTiJlwri+BZE1ssnJplVSYP3cXEc3HfrrW+uqaZ/DAzT1wfU8JaAEgkVABVmwSOp1lMD5IWA+hOUDvKHXGadXHRlj3ZiIMSnYtzDa40mJZqV58/yakOjYaPaqvGzAaDO1X8z9N/Yw7RjCnZcimtwUSGJx8c+bHqLvWCBdehfrw7rQo8tF7zJJQwbMXQOpWvm7bBBweRnRoyib1meoOUcK/f/JdOh1QyeZ5uMyxCx2A9sy/WLe6+brb4yZiVTuwPTWstpoynL62CDc0yGaa0GxKa2QImlcG8INABS5Ujsmoq1GlHHSZxJl1fdvaF1rCez6Ddya8iB6jhJQAi1OoHl+07b4Y+gNlcD/LIFzj4rIDkEKMHsBxRhTbRb2tbRWstE4G12bNFwzRMdktURGTe8z3ESxdh07xJqx1dwhyiiTNAbnz39O+4u/0gZDTGCrx6jUPph7769x59iZSKJNhqQYRZiJeDONtnn+yK598O/bHzE1ZNVDRNlrt/4QD7J7gZeRMjnHRpf/DzevxC720UyJTcA47uL0nsaUttHvLqkNiwiBm6JMCrzsR0pNeypfuIO7MynKEsLNz89WlDXy/s20Uo28ux6mBJTAORHQGrJzwqcnK4HzTsBERYzrREMfx+LOUHe61WKMdU+eBIoxKUavoBhjZMwvkbGGrnkOj29l7dNQ9pGUseXwfuSV5JsdhR1pDPv7K7/BtkpTaq4uuyLFXV9MXwd0SGXd1/dNIb7YWRwqOG7c/jvFJbJovzP6tu9szvsqcxeOlRaiM01gB6Z0M8Lu6Wvug3iR/ZybAopYa5bHn8txfdt3wWAW+P9HCrXOdUjULsxOhjFsGF5imoZ7kiPgi6QoE9FLziLWpOi/pqZM+PO+tWvKDPrG8D9xTCD8p0MJKIE2SUAFWZtcNp20EjhBwM66sFDuqEQdCwsxGpWdltXWFrJTr5RWFz7WkplCcUlTSmTsOAWDiDGmKOVrSbmJl1a1d1ZzsA7YclkCnmMcu7mbUmq8Zg4cY2rKBnfsYb5/kGLrDe6anL19NYVXLndbhuGiXhfgvvGXsWdnNyO26o63Ni7BHxa+i728pouRMxFifSi47h83i43Mp+K7k67ibs4e+MHH/8S6fVux/cgBc4mUmIRT+mg2+dmlpoypSiPKjpUGCv2ZCvaKN1leOUUZ6/JEDLPov1olyzHVokxqxUQbRju8Zg1pAcfIITc41CfQuP5+vjiYD9WhBJRAWyWggqytrpzOWwmQgNNnCfvdiCO4bWIZ2Pqw5gPbyg/x0nIbtmZEoaicpqcUYKV0gN/ktGNxRTgOlocglKlJEQuexCoxxp2VIiACxefNi1dShhEUSpE0PJUxlHYXb9z1E+6KnMD+k4FfS++z8P6RT/6J/SLWGDmTiJrUie3MzsTHW1biX4ySzeQuydrjH9xB+eB7z5oUpp0OuRLvKuMmgDWMgq3N3M1NAduYBr0fkyjqFn77Cfxj+RwTkZMhPmYypA5NInHnPESUsWm7u0OU8SMTLzeJjnnjwozHmzeeokwiZUVcuKrbSU1ZBcXYoFQ/vjsgF6l8jqxjEYiJcGNQ91KEh0i69cTcxPaCjiB4ZUmJvBcYetOhBJRAWyWggqytrpzOWwmQgN1qdS3e4do/qH1Jj+kDqnzCGC3JzQvFG4v6wxo9CrEUGgFjVRf6luxFvJ8O+NZyZB9lYTxFgUUEiIgxqRmjqem5uO43ZlFEjEWyqP6Jy+6iC38Hc0p1YX/1+e9uWoa7//MkPckqTZH/SYNCK7soHw+8/yy++PbvaqJse44dxk/nvModib6TmopLJC6EtXAi5v61ch41kA1/v+5+xIZF4tGpN9RcWurTvscas7/T56y6F2hjnueMx4iwpWoStjYbi/vp8i+CTLib3ayxYdxISYHGv0tIzMUQ2cSIfLwzPR/bdsThy70XIbljfxw7mo/MjBX45sxdiIzjQR4qMermygoaw65zYcEm986ruluY89WhBJRAWyWgRf1tdeV03kqABL59zW3/ueuOdx9+YeflWT/60G1SWxLd+nhNZ8R1vwZTZ8zABRf0Ra+0VIwYNRTjp12Ddo4RuCGsGI4k7makWLEWiBhjmjK8VrF5M9GV6FM4DVqfu+E7+DZ3UEokasHuDcguPqElxAz2ezRzLWVkqzpaVnc6IbxG+rEsfLhlRc2PPtm2CrklBTR4rd8SQ4r+7Sz6/+equfho66qa81Yf3I3X137BtK8dT171Tfzq0ttN4X/QRlW00cs6Mi+jkTYx3WXfI4+IMtpeiAiWdKasXXyYH3+eWYjN2+KwMH0Gpsy8EWMvHIkp02cisuuNeOqTfigsZGaSj1hQQkuQ1x1Y6/zOqkcfnHPrt6+5fUHQ5qwXUgJKoMUJqCBrceR6QyUQXAJXTrz4o3///NkLtldc7F26hzVJTHnlV7RDrx5dcfToEXz00Uf46quvaBXhQhg//Nt17o/eCaHoFsMacEmd0bjUz12AzR0Zk6f2+Dx0yL8Bt7A9kpMO/eKiP/Nvj+CPX7xbA+WZpZ8gm55kDTvnW7DmwJ6a8/Ycz24w1SoCUJpzP7d8tklrymaBxz59GbfTk0zmIl0DfjjlOtO+ycWG7EEdFFwmZUmvMinoF2EmHm+mjoxOvc7YCEzoXomi3BgszpiB6TMuhdNZhqKiIhzNycbgQb3RrtcNeH5ub87NiueXVaL/kO9lPv3g4+Onjhy7Iahz1YspASXQ4gRUkLU4cr2hEgg+gTCHveyKiVcd2nQoENmR2iIL/ycjIwNdunTB1KlTsXbtWhQUFMDG6FKU3Y9+Iaw7SmBkRryyzqE5eGOfRoxXB7FJ+IOTrjSnyE7Hv375AXxMp27I2me+V1hRioVsKm6RDukNDYqrCjYlrx7GjawRpV9SW7aJuzr35x0xjckPF7EXJlOof/vyQ/xmwVumsP+xqTciISrG1JMFdfB6kqaUjROym7U6hSkGsV6HDUmxVqzd2w0TJk6Fj35qixYtoneaGzt27sTmzZsxcsQgOMPGY09mKLbnxuGmqZc/yvkGMZwX1KfViykBJXAWBFSQnQUsPVQJtGICtnJnRZKjRscElEl4eDjy8/Oxb98+HDp0iHVMNrO7UXZaFkazZoxGpi0hxmQuIm6uGzLe1G4t378Df1vysfEdk4J9qSuTIc75OUxf2s7gxH9CgfnYkDy25sseUo/WCP0k3mUFZcU4XlbEiJgHFYwcyoYB6Ysp9WM76UvWr0NXNvceRcf/IEfJZLZiYMu+oGItYmxGnF74GSGzsitCBSNfPkskoiLDUVzMBuIcsbGx5pWbm2tSvDGxcSjj5gybhVYgHncM690aIUNb8TtXp6YElIAhoIJM3whK4L+AwOHcvCEfffFq1ISeVGRig+B1suDbib59+yIxMRHp6ekYMWIE4uPjUU7vraPMVm4rZ4/FOlYZzYVCiuTDWJwvvSNlfLBlOcqd5TWNwasVhQgzXz09Oeubl4XCamz3fjU/mtZ3KKIjoij8GhEwqtpFGcadnhGMjsn8pOVSHmvQ5u5ca64p17MxmnZyy/YgERJRFs5ri71IlYpkzT82H5OdoTnYvXsfOnbsiKSkJJNylvUbNmwYCgqLceTQdvTo4MK4riV48q3nX3R5vLq7MkjLopdRAueTgAqy80lf760EzpFARvbB5CdeffaFW35y48q7LtiKC1IZ8eK/6gtSD+Kr1V+huNSJkaPGYsbMS9Gtey9+sB9CTuYKLHbZcbQ05PRNxs9xXnVPl2bg4pZfvatSUobS3sgMipPosICmiAwJqxFIZ5qC1H/1prfYFQMDbZdkDO+SZnZrSh/LMw0Rfe2j49EpJsk4+0fRN6ImNUmRt5u7NWX0ooGs2VTQiKhbk3DVua40fN+T50CuIx+Htn/ENOVeTJw4EePHj8cll1yC8IhIzP70U4zvtQbJSU7cMSYc8eX/wbWP3XHs6bf+9et9WRlxTZqHnqQElECrINCIQo1WMU+dhBJQAvUQ+Gj5F7fsW/fDe16+NgbdU2gP4Q18yk8fnguf+xNsWrKdqbh4U08Gvwf55cexM7II84vYPLyFomMyH4lAiSCrLtTPLys5YcLKaFXPpI5m3qkJ7dj6qDc+3bqSacs6dhdVzy87ICV199MZN5+UspRU7P9dehtWs0flfhb4h9RquVQbnZeCbSr7XMq95DrSNgkHGFWr0ofV/SwljdmSQ7zi/Nxq+cqBKNxxwVFsXPMh05iXoVfvNJQUl2Lpl59jco+lmDX+qNm4ERJqwV9vdGBDxsKIpxd+9IjP+sxOzveNlpyz3ksJKIHgEVBBFjyWeiUl0OIEHDarpzCyAz7MS0JlzolUnaQA7TF+lHVLR1GZ1I0BxxkV2+gPw+7iCFOr0JKFR1Ion8u6rUoTvYpEl/hkbD6cXsNrRJde5u+SNhShtSx9mynwD5Eas1pDdkGKrcXPLrnN7NSsO3pR2P37tkfwrbefxtas/dwcYDP1aJKh9FHsiBjrw9ZLP5t5S435q3QF+LTaBoNirwOjZzKkp2ZzBcdO90YR3VzitOFvh2PQKbwMa1fMRveNicivrIAtIQds34ktGzvUlP3JGoaFWlEWnevke0Gd+lv8X6DeUAkEj4AKsuCx1CspgRYnYLf4Xe+nx+J9Jwva66u9kt2WNZEwiSFR9LRgZKwaiJV3LqksN+2MRPCM69Efs+m2L6lCSRkO79K7hp1EyF655Qd4lC79u9mrsqbhI9OJA9guSQTbjUMnmj6VGw7tYz/LQ9wU4DX9KIfR8X9st35YcP/v8JclH+LdjcuMx5kIucTIaExOG4xfUsz1Tu5Uc79pfYbhdwvfMXMRn7IL2WRcxtacTNpL0J6iMTs+g7jyIsrc1NYH/DYciK3AOu8hbgLgRgx3KD5dn3JqClUieVnuqGmj/HSX1aEElEBbJaCCrK2unM5bCQQIuKWIP6SeXpanAmrpeM+JGUiETHzHPqIIm9BjIK5ni6S/Lf0Y2cdzMP6CC9G73QmBJGddOWgMxnTrgwW7Nphdj2JVIVG0CT0HMvUZhae5Q/OZZZ9gn7RVqjW6sDfm10dPw+PTbzadAB6adDXS83IYmXOzZozNx+vcR04d2TUNw3jtNbs3YsqgC41ok40Bs7evCTj2n4d3mtwzkEGlEGNxWfXXtkDPypMHv+cKfL8RuxnOw8PoLZWAEmgUARVkjcKkBymBVkugGXwZmudZJXX4nw1f4t5xlyEtuSN+O+su/OKz1/DwlGspKE/9VSSF97eOvPikybiZRrz7zSfx0qrPWRdnOyWlKZ5iv6S/2U66+P/zxu+hXXScedUdlYx8ycYCaT4+JrWv8R17gtf+05XfMM3I51MILtyzgRGz8/8r8iwE4flT3M3zltGrKoH/KQLn/7fN/xRufVglEHQCbSYqIv00j7AH5aOf/MvUed0xaiqm9x2GlJgEbMxKx1csxu/GvpsXMuUYyw0A9Q2Jir301Xw4mFqUqFvdITVofr7eWbcYaawn+9WsO06JcC3Zt9WY0q7I2ME6MQ8emnyNaZl0Sf+RRhiKD9qPPn2JHl+BBuU6lIASUAItQUB/27QEZb2HEmg+AnSUsLDmSKrW64+lWJnOkp9Ir8TaHqJSS1aPpmm+mfLKIqQ+5A7K+exfedWgsUaMbWJx//RnH0Mua8KsFFODOnZjyvFruH7IhJPmUlBeihdWfmaEWH1irPpgeVYr7/PymgW4b/wsdIpNqrnOq2sWsk/mc2bDgMMeYgxhpY/lvRdeynRmZ3OcHLPx0J5Tm5rLD8W5vxnjULJGHq6jvBp/HznWrH2bEefN+ibTiyuBNkpABVkbXTidthIw+oDao124GwmxbCFUu6hfugjxM9pu86Gg1Aaniw7vET6Eh/prPuyPVNpR5pFy+5Yb5l6sz1qWvtUIMhnS6DuXUamQ0DDz9WamEm957fdYz4L9XzPCZa+yn0jPyzb1YPbTNA+v/RQSjTtaXIAt2Rk1guyl1fPxwLvPwMmoWAjFmAyJqOWWFJqNASLIxFJj+f7tAXh1B5nac8sDoiwk+JYYctk4NhdPinWxvZLd2JIYtxLOgx04jZj2UqiZbk61p8dnzc93y3H1+4S03PLqnZSAEjgHAirIzgGenqoEzjeBSq8l9JdDs3Hv9BL4K/iBXdV7sVpPzF2TjDWlfWCNjIODu/WuHboHfVPL2GjcimuXpGL2oZjAhoAWHNK6aNHezWbXpRjCFlaUUVaeEDhidSE7Hn/PvpIiR6Q4XyJixbR+EJ8uSyP8wUSviMN+Hv3OZCxif8wH33uWYsxrRNjJw4+D+fT24shgf8u1B3efmqo0YqzMNAL3xYlwDL6MrfRYcO2ASvx1+nFjS5JNk9ijhYHWVhLjDA/x0WuuEqE0txBhJk9oFzfZED+enV/MZ7OoIGvB97HeSgkEm4AKsmAT1espgRYkEBcZcfz1DTGbS5zlg++fGIbIsEBIRT7C/70wBTvyL8b0GdMRHR2BjMxsvMpm3ndOWo0+3cqbQVI07sGlLmvHEXYSOLAb02jQmhARfUo/TTFsFQuKJxe9b4xirx08HqncQRnJKFqZy3nGlKXMQp7fQeE1gJ5j5Tz+x7Nf5nmVp2wCMDOm4IlghwAZn+1Yi2OMmJ3kf1Ytxooq2YjdAW9UCOx5jJQ1wxCLEkkxz1vdHsv2DUdCcg9+Ld4lML0to9atx13T9yAhmns5yGj/MTeeXw6sOxC/9bY+4QeaYUp6SSWgBFqIQPDj7i00cb2NElACwF2XXj/7yZ/Nu3W/7d6d33zTjUq3JDH9eH9ZB4qxqbhs1iVsJVSJvXv3oHOnRIyecD1eXTIGu+gGb2/hyFjt9XLRoHXZ/m3mW0M7iehgMX6doikRZW76i/3hi3dR6qxAVwqyqfQM83CHZEODTbcxKrUPfctS8fG2VRQse0z9Wt0hthYO7qrsxV2fMpYylXpSs/VaYswfQTGWEEExVgFLpQc+h5WlW8GNlMmapB+MwJL08bh45tcwcdJFGD32Qlx44QTMmnUFHO2vwQfLWetm9+PAcQ++/lYcug79c9Gzv/riprsuvWFxQ1z050pACbReAirIWu/a6MyUQKMIDOnVZ9tzD/9iiCf2KizYWYmjuaFYf3gMLr10JmuL8rBw4ULs3LkTS5YsRZfO7TFk9FWYvbY7dxEGIi/na6xlhEz6So7rMQC96A8mzvh1h4O2E7IDc1XmTuPQ/+OpNyAlLtkYvZ5uuLg7Mj4iBj+feavZNfnm+i+Nr1h9jyo9Mfsxija8cy8UsdBfInfW6hq12mIszA6PiLECirEK1mvxa29ylOkbGswhPmN7s2OQ2n0Q4mIjKabdWL5sGebMmY2CgnwMHtQXx8o6wV1uxT+Wu3HtrMfw7atu2N+nS2pGMOeh11ICSqDlCQT510nLP4DeUQkogQCBSy6ckZeZ50PW8VC079gbMdGR2LVrF9LS0nDVVVdh8ODBcLtpkNoxGcXuTih3nj81Zrc5sJIiS3ZYSsryW9zl6Detik6uZxNLVDcjYqbQnkMaiL922w/Rh678LqYiRZiJqJOX/N3ldtI6ox1eveVhXNx7CI6XFmEbHfdrRFatN4vUqUk92w8mX2tq2eZsX8vOADShlRqzOmLMmxQJm4ixMhf84RRnHaLgD6lbixacd6LTY0dYeASKioqwdetWTJgwAR06dMD27dsRERFOER2KSqcfmcWJmD5yvNyUOV/EBOfuehUloATOFwEVZOeLvN5XCQSXgD8791hCOLNySbFu5OfmUMh40KlTJ+zfvx8rVqzAjh07jM1DUXEZQizc1eho2WL+2o8r6chiFvP/nulIiVKJPcWt9CVzU2SJUDpp8FgRVtVjKoXWom//Dr+94huY1OsCtI+JQ1JUjIm0/fzS27H4O3/A5QPHmMPFU6yYmwcCXvcnhtxDok/iQXYbzWeLK8vwZ9bXmTvXI8ashRWwljnhD6UYa08x5hDRdgZ+puaeP5dm7+JlIV83Vv9WBS4lnbp3717k5OSgvLzcmNTK92SCUlcWZivDscL86odq7NWD+67TqykBJRA0AlrUHzSUeiElcP4IrNuz64p5S/5l+dd1IejarhIpoSuxYlUnjL9wJHsx2syH+sCBA1FaVonlS+Zh1gV7sfF4bOO8rry0t5K9AqyZspbXjWE1/ZklHfnB5hV4vudcPDDhcjx3w4OIYaTqxVXzTKTLynSj8RujcEqWrtq1RsfYRPx42g145OJrUcEImsiUCEcoG4mf/N+YYjDr4HWk16WIQJm9hynNEB77g6nX4/eXf502IF48NvtVbMjaSzcLR2A3JQv4TVqSkTEjxkp5jxCKsXYSGeOvzTOJMQowW3ElLM4TKVi/3QpfbJhh2JC/WLjDhazSYsTFpZk1k8hYWFgYBg0ahJKSMu40rWBDcWBWv0r8/vUn0eexp53t4uJKm74SeqYSUAKtgYD+V1VrWAWdgxJoIoG1OzelvfzRa8/u2v/F1B9OPI6ZF9AmgYKgrII1Rp+lwdHuGowdPYwCxIHc/EIsnP8pZvb7ApOGFuLKL7rhk4NnsL3gbwdrmRu2YyUUE+Hw02JBfLiMSGHqTtJ33uRIeOOYRjuTQDnDs0ltVxg9wZ68+lu4Z+xMc+ScHWvw73WL6EO2F/k0gx3dtQ/+dt396JHIBuq1hqQpyync8sqKTeRIxFhSZKxpfVTbOPbXn7/JRuMf8FgXwijEpBPA/eMvw6V05pdWTNLE/Ck2IncwjSq7JyU1WS3GqtOULEaDWyJjYQxBNiDG7MfL4KMAq4wJg4XM+IgILXfBXuqEh+z8oYGUqFzHcbiYjcM5X24SKOe8vzswD48NLcFf5k3C2InXIaVDIryMIFqYWvVSGH+5ZBX6RL2Day5iD0+PDX9YUIlFWYPRL3XI6ptn3XTTqH5DM5v4VtLTlIASOM8EVJCd5wXQ2yuBcyHw5NsvPXB444N/++kVcYiNZOSmOijD4vAyFn6/sbgbcipGIZJ9IQuP0xF/4FpMHJYHv9uGKxen4tPT+ZCJG36lG/Zs+pvFhMLHaJH9GIMwTMF5GSUKliCTZxdhJWLqzlHTGPG6Hj2TUgwScdMPFOhHm4L+6rEiYzvm7lhnatD2srm4NC2vck81EbZ+7boaO40bhk5Eh5h4c1pWYS6yi/NMZ4Au3BQgQwxopYXSJ9u+Mmaz9vwK2PgSMSbCyc7ImIWRsUaLMbHqoKATu3x/UgQuj3TjAhrx7qEp74dlDriLnLBTxErK04x6BNl3+hfgr5ccw9rtcZi3uR/v3YO+awEzWI+zCL0St+CmSVncGWq8TUwH8qw8F/44twjdRvzt7u/f+PWXzuX9pOcqASVw/ghoyvL8sdc7K4FzJhBmt1WsKOuMhza1467Jk2uaxM/KT7+qA+VrUXLUhg7xbqbCovDPL6ONaNhSEE4hVM8URIw52cfxSCn89N3y0e7BViXGaO4VqJ+SuqggDRFjUtMlbZHEouKeMTPxo2k3Ii68SrhU3UdSk4/PeRnPr5iLctZ8MadpauJq14dJtCz9eDZmb12B19d9gXn3/gaJkdHoHJdkXjKyi/LwMwqxD7asYBeDYmN7Yc9nZEzEGCNhHkb9bAVMOYoYY6TLLWnKhiJjcmEP1bDLA2dSFO4m918mMSpW9Z+8nfNpdOsNhb3cbaJhfin2qxNpkz0CX+4PwV2ftAfiQ1GSmIOS8iOBp+d1HCzdz6DAW7C6U00LLLm8w2HBDucxd19py6BDCSiBNktABVmbXTqduBKgJrH4XV8dicBXdkaCardOqoYjBeJVPSs35bOGKfcENTsFm40/O2mIGHPTzf4oI2MUXl6m3SQyZnHzs57qTSJHFqbfRFQEc0h9l5ixSvG+pBjFD+y3l9+Fcd0H1NymnMauHzOaVe4sR0iVkWu9c6BQc3G+JfQuq1tI//7m5fjJnFexi/YWNtawhVCM2arFmDyviDHWj1mZXjTPK2KsHvF0yn2FsyfASETcFVE0r+VB5fxWCP8yM9KL5wr9qKSgFb7iaVZ3GMuLPBu2F4XB1yHQXF3WrnqYjqTH6nliqZvLKXXcafFz0jqUgBJoqwRUkLXVldN5K4EAAbcYwZr2R3XFVV1C8vMzOTWIqGCdkv0oU5MUSN7EcNiPc4eii6qCaTMjxlxe2JjKM90VKWAklRnMYSwn+Fq6bysuff5nuHXEFDb+nmUajidGxuClm76PO974Iw6wxZFdmoPXMWYN7J50sS9lF7z0tYeQKF0AOBbv3YK/LvkIn+1cC5f0sqQQkyFRMRMZ47N42lGMMSpmLaauoaiSr32RgdZFjRoyF8kk8vjjXqYv+SXdKcyfhWx1JBLNSpR+cd4/zRA9F0bTV4+s5ym3Pc36cf1dfHE0cqKNeho9SAkogRYmENzfpi08eb2dElACCE6oSjQC05CSpmRRl4kM2VgPZSJhFAke1kRZZPcgxYsJO1FUeClYGpXKa8IiiWCSiNizSz/BWxu+xNTeQ/Gby++kzcUgzLvvt4yi/cfUfkk/zBrBREEkfmJXD78I/3fJ7UilH5n4l/2S6ckVGTtRweuJW7+YxZ4QY+Vm52ONGGN0rDoydlZiTPQTc44WqYdjuvdv7EHZ2e5EX/aflBqyP+c7TNQunFYkHtbkNZN0UkHWhPeanqIEWgsBFWStZSV0HkqgaQSC8yEsYuxYGdNpFAwixiRtx3on0V7eREbGKHZstIMwQ6JlEj2KOIvoUROeTUxbRZgVVZTjnfWLsSU7g9YY38FF9B77922PYGt2JubtWoftOQfMPAd37MHWSkMxKKWbudt/1i3GQx+9gGMs5pdoWnVULCDGqmrGakfGRIyZSGDE2UXGqp9NoopM8Ybx2ltsUbjZHYb2jHblMVp2jOVo4fncfcmIoj9ErC+Cs2xNwKqnKAEl0EoJqCBrpQuj01ICjSRgAdNhLi8/5Bss6aboYmqrvoyZ7A60sjbM0z7aFLObGioRY2wXoj6U8gAAIkhJREFU5GcezX6ckTPRENViLEqiPC0jKqTo38aasV1Hs3DlP3+JO2jkejctMkSASSqz9pB0oUTFnlsxB+9tWkqPMZ/xHDsxKCxrxFigRsxWQs8z+oaZZ2M7JJ+JYDXh2XiOiaoxwhhOXiWsPSt02GGVr8lWTGUDFiFnXlmpMTO7WfncgW5SDWyG98vam2OaMOlGvsv0MCWgBJqdgAqyZkesN1ACzUfA57eEXJBUge6phQFX+FpDisRZ9B/4QOefJbS6kML+oxVM21XXm0nkiwJF6qZEnIjVhZiayvCK9xg9s0xNmYg98WhNZPSoBcVY7ecJYRG+pDH/tuRj+pQtxkBGwgawD2VcBAvg+ZjHy4qw4dA+7Dp2CBXOQHrS1KRVDz6rmLzaCpjmNGlKijEKT2sJn9eIz/Cmi7Hqe4goo6CTjQAicG2MOJr0LuvxjKHsmYbUoFH8iiD2ZpehQ49QDEmuRJiVqszUp1EwBoTXSUO8zjIqK5hxtlDt6VACSqCtElBB1lZXTuetBEig0uuLuDctG/ddwnSi7LGrEk5gUXjB0TCs2hlHEUN7CAqwckZSZiY6Mc8VhoXHWcBeI1AqaPbKGjHuEhQjVBE3xlWelhfGe6xajLGoX77fpOhRkFarOo1Zwp2Wy7gTc9m+LbUEl4hGRvMowmqnJ80B8qxFFcbYll4ZRoxJStZExozYoUVIsHpTSj2Z2INQ0J4Y9RXpn/xjC014PRJBc/vxwKB8fGOkE+n7YpFXFM+6NycmDjqCrqlcZ6ZAawbFGOh28YyniO8FPxdHhxJQAm2VgAqytrpyOm8lQALd2nfY/ffP+2XsOH6w+09n2tAuNtBjcW9mBF5aNAbd+k5GYvs4o6lCaRnvy9iPSaWL4Esuw6J0RsrEeZ+RIb+YmrLGyYix6BDjHi+O8wzJiJqBN57Ro/MsxmovuBFm3AnZqFEtxuR5jBhjTVwFI4GFEgmsJW6CmfBrwqZHK1OnsqH1wcmV+BXd+l+c25sC7Qr0HtQTJaVleOaLhbh+5DKM7M/OBB5G0vjbe/VuF578MhSFrgu2fmtEuz2N4qEHKQEl0CoJNFCc0CrnrJNSAkqgFoFjhYVDX58/e+WSxT8Ne/02L2IigL9+1B+Jafegf99uyM3NhdPpRHx8PMLCI7D0iwUMJH2I3623oCiEB4efcOGXGigfxZeN4sVCk1Njf8GojaTc2mSFkqRkWaxvkxo4U//GGjknxZhEAsW6gylZsfIQEevpQMPclkzHVjv1y+YI+U2cW4FuCR58dks+PlzWEyEdrmPbq6HsX1mC8PBwFBaWsvXV+7hh1DKMGFCCjfs9+PbHnfCju//knDh42ID4qKh0/YehBJRA2yXQyP/EbLsPqDNXAv/tBJJjY3O/f/0t2Z163YZ525m3ZErL5Y9lH8RkZGRkYMGCBVi3bh0+//xzuFhbldA+Fe1p/dCnmwXusKpIGOvPpO7JiDGxuxAxxiFRsbYtxlgzZsRYVZqSlhQBMSY1cqGmJi7QV/I8vUskese0qaRLK+MjMC7VhWWbUmBLutqIsc2bN2P27NmYN28eG4zbMWXaNXhv9Ujk0UbjpVU+fOfmX+GKCycUxUVGch+nDiWgBNoyARVkbXn1dO5KIEBAXE4rxg4chayCgLIwfql85eTkoHfv3rj66qtNm6GioiLzQzvb7bBvNSxVaclA/8YI4zMmhf1GjEWHnRAsVaS9LCx3s7C8+iVft8phImMixqRmTCJj3LBAMWaVgn4jxhj1447KerecNuGBhHqT2IifL9PCkh42PmYUwDnFXTF48AC43W5ER0dj1qxZiIuLw+rVqymyk9Cu8zCkHwpBvjsBI/qaTgay/lxNHUpACbRlAlpD1pZXT+euBAIEzLbI7Rm70TfQcYdDOjxakJCQgI0bNxr3+NGjRyM2NhZHjxVDNNehDDYPdzNtF86WQSLGpH8ja6tk+KIZPWKtlYg6HwWYRwrJ+f8dGIiJDQlEz0SE5HLHZn5loA2QnTb0ZzChb7m1MpsVmKYU37RaYqw6MuYzKVhGxoKgJUWEeYUNd7SmRLgQHeI1l5VWn8Ilr4qNg2zqNBUwwtgXYaeRLJkzQungBoq8FD96sEO8h7szLeyfWV5ejvz8fFRWViIighYkXEcno5xhoRbEOfKx51Am0jp1EnMMhgF1KAEl0JYJqCBry6unc1cCJODyeH2frlo+YO36V/HQrQyWSBsdbzkKCouRlpbG5tMOE21JSkqiQaodFSXHcSjXh33HuPuSJqUSKbKKEWyZZL0CXlrSJkmGi8XjsaEeXJaWh6t75mJAYinahbNBtgg1ipGs0hBszYvCe3uTseBQPMpprRHSnD2ujYg6s5IykbHaYkzaPZnIWGBzgmxiMJc4xzSleL/FhZFNt1zDZmBiGZL4tfSfFHuK7LIQbDwejbd2t8Piw3H0imO/TmmJVGuIz5vMQ+rcHBRbmzL8mDLgADauX4tJky9imjLMCGqp/xs5ciT2ph+Cq2AN+nSpwE087+evP4FOyX8JH9Kz13H9x6AElEDbJhCE/0Zs2wB09kqgLROYv2bphBfe+tObds/WTj+d7kL/LoxWWXxYvyMW762/GCNGT0F8XKCfo8/nRXZWFtasn4uVpZnYWcz/Hmsv9g80ghWXejlGxJg01GZkyU0xNiM1H78am4GRKcUBoSc+WLU1hfwGMQLQgoUHE/CTVd2x+kgMHBRlQf/lIpGvMvqGVchmg9OsmrTdFF8xTsnDRuGmHVSe7B4NeIF54yiAqh9AGqkzVOjI4rNJUX9K44r6xTPW7WMD8R65+PnoTAxrX3JGNj5y/CwzAY+v7IEtx6O4O/RUB1/pDyrpYunhfmXfSoxj305EX4Gx48Yz1cznppVH5oEsrFv+Lr4+ZS16dpWWUVZ8srESL69vj7CIPhl3XnPfFTNHT97Wlt/POncl8L9MQCNk/8urr8/e5glsy9g3ckDskk6PXBpPXRSKknI/tYoN/bqX4FLPIizfsJO2VtFS006B5cPe/GKsLa7AYSf/6VfZPwTEGFOXrCOTaJmIMQ8Fx/2DD+P3E9IRJSlK0wmgHhUk4qzq+1O752FIuxLct6iPiZgFNVImYoy2EMYX7ZTc38nLKBYekpI0vTdPEmPiC3ZuYbGAlLLgRyMO4hcUqqF2cdU/Mxsp1L2sVy6GtSvF/Yt64+P9SaewkcidXNdOk95Pd4WhvGcJOh//DPmMcg7s149F/AXYs2cZbpmwAR3bV6CkLGB4O2NABCb0KcQTs+d133HgkpH8lgqyNv+vWh/gf5WACrL/1ZXX5/6vIBAWYiv765YkLDqWyAjYyWJD2iT5/Hn8fq7RMCVOKw4U2uCk2PJTeEmLHkmVyTBF/YyW+e2MjLmtuHtgDv5y0V4a2kv0q/beH7GIkBoyuRe/bxFhUOWGz0hQEtOZ/5q6C5X8++yMxOCIMrMTkWKMuyVl16cvglHAOs960mJK5Et2U1LcGNsO1sd548TQ9tyX3EMW3x2Shd+OSw8E6WqzMVyknKt+Nh2jnHht+k5cNXsgFmeJ2WutSJlgjg/4usq8F6aHIsxehrisLxHPJuqVPg/s0WVYvziSYpmbEWoNGwX0oSN2/HCEVayBdSgBJdBGCagga6MLp9NWAkKAksiTmWtDjosipYH+i6Yzj2gnKWhnj8dqV37Z3WfSlGy0LZ1+JMr1h/HpATFWExWjePCz+NzeiXv6BvPPdrxzFrsDbKaSYPmSRTb6SWGZBTFhbvx10l5sz4/AgeIw0z+zyUN2S9IWQnzRRFRJ+yHTyknaRJ0pJyqCzfSmZHcB05uyyTOoOVFqxsZ3LMKvGRkzQbqT2BCcvQvdd4cQcjzDkQdYgLeV88w7mQ0F6zOT92LKB0PMhghbdQsruUuVKPPTfd/OGji3NCW3OHHMF9BZvmJGMQtr9+UMTE0igq5i1gNyRc79KfUKSkAJnC8CKsjOF3m9rxIIDgELtz3C2k6KwxtQHfKBz5Y+FooZ+cAXAWDEmETG+Kfs4LPyw/3R4YeQILZWjHIFhkRyKPjiHgRi7w0Ij4AUoPDYCxT+jeG3l/m1HE+lQuHSPaEcDzLl+TANTmVWTaonM2nKKjEmrZwoxsQjzRvDSBIjeQ2JLBGYPrZ/aui4xiyD6LtQRrQeG3kAURScJyJj0meS6ca47wExdwYEazUz1w6yeZps3uQxJ9j0Ty7FN/rn4DdrUymQ66yZaGAKSFFWskaWWrYiZgdr3ePlXvy+K7BUTcLcmOfXY5SAEmh+AirImp+x3kEJNCcBhkdotSB2FQ0JMvnEpieqVTwvRIxJg20RY6H8NSBF7UxlDksuwWWsBTshOKrkVNIfKTjurvMc/Px39AaSKcjs7YGCJ0QxBHQBo0c3pB3HnzZ0wRHuNpRG52c1amrGakXGWA/m4a5E08JJxpkuWb2LshFMGjMvL9lc2KkQU7sU8NmqhapMgJHB5GeAqBvrXIbHhAxknd7zREKLMBFmJooYmPfX+x/BC9tTUEBbjEAD+FqjWpSJX5wI5zOlZ08+M+A/okMJKIE2SUCNYdvksumklUAtAk4vdx+yUXZjXmyoLQEvqRXzSAF/lRgzOoHfn0jRERXO6Fi1RvDz71E31CPG6qxA3CNswXRRIK0pg4IsJaoSE5ji89a3GaDqdNEaxsuLrxrdITVg3PkpZqleiYyFMrVHYSKNtyV65GOEzyu19Jzv6V5yTGMEauD+gdeZtJv87GKKMQd9xk6w4bPG3FaPGKvNhr9i438KhI3leVVm+owgpsZUYARTw8bfrb4hoky84Fj/dhZD/wP7LGDpoUqgtRHQf8CtbUV0Pkrg7Ag4xHKijAav9UWMpNbJXmVBIfsvJVBlY2TMyx2WfimOr1Ihor8kfTY4SfxFa4sE/oqIvr3hGUn0J/pmoHyJSDtzDQvtHYYwPSc+XHWHHCE1UhE8JsoRMFMtp1ApER+zSiccR0vgZacAaeckNWNSPyaGrhbONzaE9W+1okrVs60dZ5JOAmU1KddTp18tAuMdfkRG+ChG/cjjhZw8L6ROxEoQiY3HgARGq2oGv2llpC761obZWGm/EXU97XtX1hxro7AbRN+yudz4cBo9Zvq60y6Wmy8o6s6kFmWRPYaC/gd2w6uhRyiBVktABVmrXRqdmBJomAAjRGFXDKrAqN7F8HlOTn3Z+PFc4bJgS3oUillAHhFZiSy3H9uttMhgQ2sRN7WHiJzUaBaQ10THGA2SmihHr4YnIkeEDqckkAL6qigZo17JjLZZqQJr15HJ38U49cbuRbivXz6GxLFdE7+XXh6KF7bG4o0lVril4Tbrv2y0uZComNhCyC7SSIcP70w8gGFJFdQoTOkxQ8r9CabIXq7hkZIuCst5h2Jw+4rOZt51Y1AenhdHEfhAvzzc1rMQ7UJcjLpZsPR4BZ7cmYSlRyMDGxqqhvwtlNdMDGdlV823xfCsI/n0aDyb2nqJ14kLlcmeerpE7UQ8j0kux6R+RUgYJJ5jge+5KVrleauHnG5ltHP1ngoRcDQv06EElEBbJaCCrK2unM5bCZBApccbMialAD++WCI2VGDiuiCDgsJbZsWLc/sgOW0iYmLiceDgXlwVuxp7Eorw1x1JJuhS19Lr5K/lADGarbK1aIi4RWq7TlYY9YVsRIx9r18u/jjyCDIOlGHRFqdJGaa2t+HZC0sxIiYO96/swCgZxRiNar3SNaBKPMrVJUIWF+aFjxnAjbvLkZFN0ccfpHUNxaA0pvjsfkRTuNU3ROzEU4y9PvEQpiUXYvXWMmzM9xkH/eF9y/DJ1DLcuawzPjwYg5CT6t644aF2CNLAq6qXa4iL/Fw41hn1Bb1kfmGc/y8vOIIxdid7j0bAERZj7hwV6sTwtCKExFAYVqeB5Tc4U9a/KSqE0+MNOADrUAJKoE0SUEHWJpdNJ60EAgSGpfVd9ve1sw5c/dz61Ecml2Nsr0AasojGoc/N6YPYLtdh/Khhxu09bcAQLF4YiwvD5qKkVz5e2JMIR630nLRCOlpeSziI4PBkB142Fu03NJz0JPWLRUOVKOMfhS676YVZXdQvYmxYYgV+PewYvvyqCKvSUzBkzK2IDA3Hyk1z2Y9zFW6fZcWC3Q68XxIDq7jt11EuIk681CRvfl6E7IoBGDzyOtOF4LM1byP98D5cNSXmtHXwcn+JjE1NKsRzHxSzmfdF6DtoKkpL8/DqF2/h4kHH8eRIO9blhSO7nLs6qx5Fzivms9QM2TXpzaUwyiebhIbIMD+bzmNqRSQlPVpP/ZhEwR4feBSdj4bji+JL0K4TW1/ZAmtScDwXc7eswN0Xb0RqCv3jqJ4//MqFF1Yns7XS5IpvpvVd2/BE9AgloARaKwEVZK11ZXReSqARBCYPu3CF2+sduHD92p2PPH9/5zdvPob2sQ786/PeFGPXY8TwgeyFuB55eXkYOHAApkybgUXzfegbtciYuBZU2k10SXSH1F1ty4vEDcYMVm4udWmsmyp9jzm7oQ3MhueUvhNIV1qqvLIoOHbkB3piVsfNJAJ0bbcSFNPkdeWeJNz54Bvo0n2wOWb85Nvx/JNfw7ota3HbqCi8XRYpexhPGXaqpA3bSnHEORjfevgtxMZ3MMeMHHcdXvjjlRiYngN7aOwp54kckpTn9d2LsWBVMcJTrsId9/2DhfqBXZsDBk/F28/fiAdSSzAlpQyv7o1nXV2gKbjTY8OewqoemOZocednyyV55vjHGmBDmKW0vqg9mHrcUxjoY1k9JJU6KKECY2xOLCuZiWmXXGZ2YBYWFpqeltHRfbBlW3t8uqYAD1y1Eyv2uPC3tUPw54efxuCeabdyHT9vxFtGD1ECSqCVEtAi0Fa6MDotJdBYAnartXzmyNE/mDXlfsze5sSB7DAUYQxGjxqC7du348CBA0hMTMTSpctQUV6KseMnozC3M7qHuai7TqQY5W9Ls+PgdEqasuruUqxf8hIr7heceToi2so+PWHtIEKCdWsrshnlqkr9ifaQurYe0S7sPViBngMuqRFjcvGIqHhcNPMB7MioREqM1GidWmAl35Fasr0HnRg18fYaMSbnJ7VLxaBRN2BXRqnJ3tYdstuzY4Qb8TYX9uVYMHnmfTViTI5N6zcOyV0m4FBOOfrEBhqtyzCz4P8sYYNwf+2NAhJBLHqOeePVZ2ZT/Cr5zT+RtiSbIyWhWH00+iQ7EIkkjmtXhhKmKVO69DasFixYgGXLlmHOnDk4eDATPXt0ZaSuHZzlVry1wYrv3fIYhvZKyyOqJIt0NdehBJRAmyWggqzNLp1OXAmcRGDH4J79kEELsZJyG2LikhjdsZjIWMeOHTF48GB+bWNNUhEiIsLg8ccgynpynZXsxlydE4O1R1iKVPMziQQVAcfuCUTKTHugWsPP1FkxvbaOf5fflGL+KhHFmqy5bKgtUaCT3OjNqYHiNQqIU5bQxxZBUrTeoPUWz/WJ50Wd4ad3R33XrT6sOhooU5A0Z90hTbzlZ6aov9b0pNuACLJNbA6OmpZHPFac+I99nWw+4qXqXE8iaGKam/ejqttUs/FhdmYiMovCT/FnC+O1pVrNYQ9BQUEBKisrcfnll6Nv377Yty8dobQAkXo06ahQ4o5AjxRjRCt54tpbQPWfhhJQAm2QgAqyNrhoOmUlUJsABYgokwPzVn+J/h0s6JbiRF7ONuQXlDBNOZCeXV4cOXIEycnJ6Ny5M3bvyUB02EEcdtNSoVbOTORCJVNpv1mXChdTdNyGWXUbigBpj3SMxrDZM1nM9FuKsBcpNOivlT0DyH2YIobio7qnJcWL7Op8enNn4xNWd6OAn5GgtNRw7N36KbIOsL1Q1agoL8KSz5/DgB5Vxq/1LLPMSOrh+nYLxZplr6Co8GjNUXnHMrF93Xvo14Ptkuqv6TflaCG0/ejZyY9Fnz0Dl5M7GKvG3p3LcezgUqR2Zu/LOudL6rCIDdl/v74rry09PKs1Ftm4M8jmTrKYFWBTRIGa9xN+PR3If5Rs5B5Vv2opdI+WhOHJjZ3JpW5Ay49DZRRb5OOjsIyMjMSwYcOQlZWFzMxMbsxgbRwfTPasSv/KDhHFWLZlnUykkK8GwnT6b0YJKIHWTkBryFr7Cun8lEADBHKLiuKefPffr+7f+RJ+cVsY4mldMZn13Qvmx2Em65BGjx4Nj8djImU7dqbj6K53Ed0nFwd2tK+WUDV3kIbXnx+Ix1N02H90VGaga5K077HIrwoKiMoVfC0N/N2oEhFuUnReXcgfiCz9dGV3rD7CnYq1G2hX3cXL8FeHlFCM6VOE1565GQNHXIfQsGhs2/Ap04mbMXpINIvqT//QHm7JHNYvEnsP78ALf7oWA4dfyWiZB5tWv4P+HbPQo3sUth88/fly/ymjY/HK7Ll44ckbWdQ/HcVFR7Bl9ZuYOrQSMez16TtwavZPvMje35eMF7Z0xL1D2cdTGosbDPL8BFWxhK9FtdiQmeF2go34n/1kVQ/sZG1dXTay8WHp0SiMSWB9m+8owiN6GwG9fv16dO3aFYMornPzC7mJtJi8fLhnnB1ff/cPSI5L7DhrzHj2YNChBJRAWyaggqwtr57O/X+ewFtffHLZTd+/6NlB7Y92eeVrVsRHSRoNmDaKES3ffCyc58PosZNZEB6J3bsoxvZ8gOEj9uLBHSnsuGRlS8hThYfsLPzpqm6Q9Nl3h1PZyCHGZkGEWX1l9lXLQEEhhem/+yoVz27tZMxUzzSmj41CaodcbN77JEppojUhLRxD+8TQuLZej9uaS0mUSzKL102JxdZ9eykyf2Wapl8+MgIDezHdKs90hmoqSYeGR1jw9ctjsWHXKuzb9CUiw624bVokenbhJoTThNdM/RpfP1zRk5sDvLhtYE6ASyPZuHjcT1b0wEvbaelRDxvhfpyRxdcLIjGmeAMjmilo16E9BvQfaNKwRUWlWLd6BcZ3z4CVmxN6pjjw7JXZ+Otnd8e9+Ea7TXwv3HDTxVcs/p//R6EAlEAbJaCCrI0unE5bCQiBI3l5qSNSD3V5YHoCi72ZMSuo4sIP9579S3DE8yVmL8pk+8VICqxcJPY4jnu3dUJ6UUgdn60TPCU9J5GcH1I8ZBaH4ceMlLWL4sVFeEi0rLbYEZUi9Wb88xB3IT6+sgde39UOUnN1aoVYrTUTzcTT+jA92acndy/KMMJPftCI2nQeIiJsSL8IDOkf2MlpzpMyrkacLsoqNMSCsUNj+KqaF8/3i1frGQo5pB6unM7531rUG7vyI/DwCDZij2iYTTojYo+t6I53GWGTa5yOjQjkrRWhOOzPx66F76NXbIRhKYC9HicGdz2Azr1Ksa+AzPjtqLhQPH6VD8/M35/E90JPHqiCTH81KIE2SkAFWRtdOJ22EhACITaUPLu3E/7t6kSBc2pEysHieldYMR3sWeNFR/fje5KlqdFpxVg1VRENom/+sqkzPj8Yj7v65+CS7vlIi6mkkDlR2F/OuqqdBVH4dH8SXtvZHhnF4Sb6c0YxVluXiQCSiJbovKrpN/pc0SlGQAUUWJPOZ3cDI8AaqQPlPiKQpM7rt2tT8QlbH32DkbJpXQvQO7YCdkbOqkcZG4fvLIhmmjMJ/97VAVncWelgq6iGnk/sZgsYiFweUoYt1mIj4OQJ7SytW1AYjSfmn2zIb+GW0uIDh/G7QThDolf/vSgBJdDaCagga+0rpPNTAmcgkBybsLW4yI1Spros9QiyQGyFokNUAHWUw6iBxoSQAsX4Uue0qyACjyzrxYJ2N7qyYXiHSBdbIrmRUxaCY+Uh2M8oWgmFmdhb1FczdrrpGyFE9XG8wI0ypw/dkpirrM+v4jQXMOdTrOTkB1o1pSRIrrMhuXPiYsZon8wyj7tpTGtFcrxsXmjc2012a4ZQXG1n5Ot7X6YhmUxSq9hIi6XDpQE2GbXZ8PjGjkCQjma0vhO/os0GV7bCqjv8ZOYrchfzvbCzsdfX45SAEmh9BFSQtb410RkpgUYTuH7qlRvTbpu0dm9R/siQeDrG11v/VF1U3ujLnnSgQ4QLI21FLgc25jF0Q4P6msFLS5othE26A6NhQSTGruyZjXy2LPrN5x5klqaxHyMtIFz78NBF5Rjdlw3FTVciqVmrM2d+z8yH09if5cFvFzA6hAHmoBjsxmPTvOjRxXbi/Nqni9UGlVTgfOn/6MJTX3JHZUh/9gGtoD/aXjw2007Xe/FLk3vXc/8606lmk+8MwfFKGuKydO9c2NRdoZOyp/WhpRhzFTByGZu8nO+FXU1bYT1LCSiB1kBABVlrWAWdgxI4BwLPfPvnN9/5p0c/yCk5OAhR9Mlq4VHHmezMd6du251VivW2cvzuc4d38OhfLPvRFTc+EBUekbV445rLfvjid//8k7L97Y9IW6HCArhqKxKeW84o07ZD5SjLL8PP5iX6b7vuTy9fO2naE7xpxftLFnzrnnd+8MivZuaF7s63w02H+5MGA1RFHhc20ZTWRX+vJ5Z0r/jRPU//efLQUS+WVpRH/f3DN5745n9+fdmPZ7qtGTklvH/oyfdvAtezYtOE67PnE1K89jXP/OD398x4fUpTrqDnKAEl0EoINPyfs61kojoNJaAEzkzgp/944rbdOQcG0txUjLxqeVGYHGUge1ljiFWTt5TvVb+qw1zVx8r3q+JRpouRyCPJuxkzDL4kwSeW9mK5QIfYkxJ+1T+XY6rPkWNcYVZfKFssRXXvMmDbz+966O3aT/Xp8i/6vzn/PzeHhYaUl3tM/lKeQ4qm5D8ey5h+dYez+bbL5XRMGTVz4ddn3bCw9vkvzXnn8kVr5l3ucISWVnitksuUa0jTbXmOCmkQHmH3+8qdLs/Xpt/89uXjLz6p/+MvX3rq3oys7UP8FkeF02fcceV86QVVH09T2lX1c/lTXiaeWMVUfi6aTOZRm0NtztVs5DGq10fuWf2S71evn/y95vs0tnX2SUld+at7f/xCbQb6dyWgBJSAElACSkAJKAEloASUgBJQAkpACSgBJaAElIASUAJKQAkoASWgBJSAElACSkAJKAEloASUgBJQAkpACSgBJaAElIASUAJKQAkoASWgBJSAElACSkAJKAEloASUgBJQAkpACSgBJaAElIASUAJKQAkoASWgBJSAElACSkAJKAEloASUgBJQAkpACSgBJaAElIASUAJKQAkoASWgBJSAElACSkAJKAEloASUgBJQAkpACSgBJaAElIASUAJKQAkoASWgBJSAElACSkAJKAEloASUgBJQAkpACSgBJaAElIASUAJKQAkoASWgBJSAElACSkAJKAEloASUgBJQAkpACSgBJaAElIASUAJKQAkoASWgBJSAElACSkAJKAEloASUgBJQAkpACSgBJaAElIASUAJKQAkoASWgBJSAElACSkAJKAEloASUgBJQAkpACSgBJaAElIASUAJKQAkoASWgBJSAElACSkAJKAEloASUgBJQAkpACSgBJaAElIASUAJKQAkoASWgBJSAElACSkAJKAEloASUgBJQAkpACSgBJaAElIASUAJKQAkoASWgBJSAElACSkAJKAEloASUgBJQAkpACSgBJaAElIASUAJKQAkoASWgBJSAElACSkAJKAEloASUgBJQAkpACSgBJaAElIASUAJKQAkoASWgBJSAElACSkAJKAEloASUgBJQAkpACSgBJaAElIASUAJKQAkoASWgBJSAElACSkAJKIGWJfD//OfhVyFf6NoAAAAASUVORK5CYII=;direction=south;" vertex="1" parent="1">
                    <mxGeometry x="370" y="450" width="233.33" height="350" as="geometry"/>
                </mxCell>
            </root>
        </mxGraphModel>
    </diagram>
</mxfile>